<?xml version="1.0" encoding="UTF-8" standalone="no"?>
<!DOCTYPE svg PUBLIC "-//W3C//DTD SVG 1.1//EN"
"http://www.w3.org/Graphics/SVG/1.1/DTD/svg11.dtd">


<!-- Page 1 -->
<svg x="0" y="0" width="1650" height="2933" viewBox="0 0 1650 2933" version="1.1" xmlns="http://www.w3.org/2000/svg" xmlns:xlink="http://www.w3.org/1999/xlink"
style="display: block;margin-left: auto;margin-right: auto;">
<defs>
<clipPath id="c0_1"><path d="M0,2933.3V0H1650V2933.3Z" /></clipPath>

<style type="text/css"><![CDATA[

.g0_1{
fill: #F3786F;
}
.g1_1{
fill: #FED590;
}
.g2_1{
fill: #57585A;
}
.g3_1{
fill: #F68C6C;
}

]]></style>

</defs>
<path d="M0,0
L0,2933
L1650,2933
L1650,0 Z " 
fill="#FFFFFF" stroke="none" />
<image preserveAspectRatio="none" x="-199" y="-5" width="2131" height="2944" xlink:href="1/img/1.png" />
<image x="0" y="0" width="1651" height="2936" xlink:href="1/shade/1.png" />
<path d="M994,1928.9c.7,74.3,60.2,134.5,134.4,134.5c74.2,0,134.4,-60.2,134.4,-134.5c0,0,.8,-23.2,-6,-40.1c-16.2,-40,6.1,-54,-15.3,-100.8c0,0,.1,11.1,0,14.8c-.5,16.3,-13.9,35.4,-13.9,35.4c-12.3,-13.4,-19.1,-31,-17.5,-54.8c3.6,-52.4,-62.6,-87.1,-82.2,-87.1c0,0,27.4,66.3,14.3,109.3c-6.8,22.1,-19.1,52.7,-50.5,49.8c-65.1,-5.9,-37.6,-80.4,-37.6,-80.4c-3.7,7.4,-58.5,37.4,-60.8,118.4c-1.1,41.3,.3,-4.6,.7,35.5Z" class="g0_1" />
<path d="M1105.1,2015.3c-46.6,-17.3,-35.9,-89.8,-11.2,-101.9c0,0,21.9,28,32.4,16.8c20.5,-21.8,17.5,-85,17.5,-85c33.2,31.5,50.3,93.7,31.1,142.6c-14.2,36.3,-47.1,35.9,-69.8,27.5Z" class="g1_1" />
<path d="M526.4,979.2c.7,74.2,60.2,134.4,134.4,134.4c74.3,0,134.5,-60.1,134.5,-134.4c0,0,.7,-23.2,-6.1,-40.1C773,899,795.3,885.1,773.9,838.3c0,0,.1,11,0,14.7c-.5,16.3,-13.9,35.4,-13.9,35.4C747.7,875,740.9,857.5,742.6,833.7c3.5,-52.5,-62.7,-87.1,-82.3,-87.1c0,0,27.4,66.2,14.3,109.2c-6.8,22.2,-19.1,52.7,-50.4,49.9c-65.2,-6,-37.7,-80.4,-37.7,-80.4c-3.7,7.4,-58.4,37.4,-60.7,118.4c-1.2,41.3,.2,-4.6,.6,35.5Z" class="g0_1" />
<path d="M637.5,1065.5C591,1048.3,601.7,975.8,626.3,963.7c0,0,21.9,28,32.4,16.8c20.6,-21.9,17.5,-85.1,17.5,-85.1c33.3,31.6,50.3,93.8,31.1,142.6c-14.2,36.4,-47,35.9,-69.8,27.5Z" class="g1_1" />
<path d="M937.9,596.2c.7,74.2,60.2,134.4,134.4,134.4c74.3,0,134.5,-60.2,134.5,-134.4c0,0,.7,-23.2,-6.1,-40.1c-16.2,-40.1,6.1,-54,-15.3,-100.9c0,0,.1,11.1,0,14.8c-.5,16.3,-13.9,35.4,-13.9,35.4c-12.3,-13.4,-19.1,-31,-17.4,-54.8c3.5,-52.4,-62.7,-87,-82.3,-87c0,0,27.4,66.2,14.3,109.2c-6.8,22.1,-19.1,52.7,-50.4,49.8c-65.2,-5.9,-37.6,-80.3,-37.6,-80.3c-3.8,7.4,-58.5,37.4,-60.8,118.3c-1.2,41.4,.2,-4.5,.6,35.6Z" class="g0_1" />
<path d="M1049,682.5c-46.5,-17.2,-35.8,-89.7,-11.2,-101.9c0,0,21.9,28,32.4,16.8c20.6,-21.8,17.5,-85,17.5,-85C1121,544,1138,606.1,1118.8,655c-14.2,36.4,-47,35.9,-69.8,27.5Z" class="g1_1" />
<path d="M593.6,2184.7c.7,74.3,60.2,134.5,134.4,134.5c74.3,0,134.5,-60.2,134.5,-134.5c0,0,.7,-23.2,-6.1,-40.1c-16.2,-40.1,6.1,-54,-15.3,-100.8c0,0,.1,11.1,0,14.7c-.5,16.3,-13.9,35.5,-13.9,35.5c-12.3,-13.5,-19,-31,-17.4,-54.8c3.5,-52.5,-62.7,-87.1,-82.3,-87.1c0,0,27.4,66.2,14.3,109.2c-6.8,22.2,-19.1,52.8,-50.4,49.9c-65.2,-6,-37.6,-80.4,-37.6,-80.4c-3.8,7.4,-58.5,37.4,-60.8,118.4c-1.2,41.3,.2,-4.6,.6,35.5Z" class="g0_1" />
<path d="M704.8,2271c-46.6,-17.2,-35.9,-89.7,-11.2,-101.8c0,0,21.9,28,32.4,16.8c20.5,-21.8,17.5,-85.1,17.5,-85.1c33.2,31.6,50.2,93.8,31.1,142.6c-14.3,36.4,-47.1,35.9,-69.8,27.5Z" class="g1_1" />
<path d="M1371.9,1529.2c-.7,74.2,-60.2,134.4,-134.4,134.4c-74.2,0,-134.4,-60.2,-134.4,-134.4c0,0,-.8,-23.2,6,-40.2c16.2,-40,-6.1,-53.9,15.3,-100.8c0,0,-.1,11.1,0,14.8c.5,16.3,13.9,35.4,13.9,35.4c12.3,-13.4,19.1,-31,17.5,-54.8c-3.6,-52.4,62.6,-87.1,82.2,-87.1c0,0,-27.4,66.3,-14.3,109.3c6.8,22.1,19.1,52.7,50.5,49.8c65.1,-5.9,37.6,-80.4,37.6,-80.4c3.7,7.4,58.5,37.5,60.8,118.4c1.1,41.4,-.3,-4.5,-.7,35.6Z" class="g0_1" />
<path d="M1260.8,1615.5c46.6,-17.3,35.9,-89.8,11.2,-101.9c0,0,-21.9,28,-32.4,16.8c-20.5,-21.8,-17.5,-85,-17.5,-85c-33.2,31.6,-50.3,93.7,-31.1,142.6c14.2,36.3,47.1,35.9,69.8,27.5Z" class="g1_1" />
<path d="M916.5,1407.4c-.7,74.3,-60.2,134.5,-134.4,134.5c-74.3,0,-134.5,-60.2,-134.5,-134.5c0,0,-.7,-23.2,6.1,-40.1c16.2,-40.1,-6.1,-54,15.3,-100.8c0,0,-.1,11,0,14.7c.5,16.3,13.9,35.5,13.9,35.5c12.3,-13.5,19,-31,17.4,-54.8c-3.6,-52.5,62.7,-87.1,82.3,-87.1c0,0,-27.4,66.2,-14.3,109.2c6.8,22.2,19.1,52.7,50.4,49.9c65.2,-6,37.6,-80.4,37.6,-80.4c3.8,7.4,58.5,37.4,60.8,118.4c1.2,41.3,-.2,-4.6,-.6,35.5Z" class="g0_1" />
<path d="M805.3,1493.7c46.6,-17.2,35.9,-89.7,11.2,-101.8c0,0,-21.9,28,-32.4,16.8c-20.5,-21.9,-17.5,-85.1,-17.5,-85.1c-33.2,31.6,-50.2,93.8,-31.1,142.6c14.3,36.4,47.1,35.9,69.8,27.5Z" class="g1_1" />
<path d="M741.1,454.3c-.7,74.3,-60.2,134.5,-134.4,134.5c-74.2,0,-134.4,-60.2,-134.4,-134.5c0,0,-.8,-23.2,6,-40.1c16.2,-40.1,-6.1,-54,15.3,-100.8c0,0,-.1,11.1,0,14.8c.5,16.3,13.9,35.4,13.9,35.4c12.3,-13.4,19.1,-31,17.5,-54.8c-3.6,-52.4,62.6,-87.1,82.2,-87.1c0,0,-27.4,66.3,-14.3,109.3c6.8,22.1,19.1,52.7,50.5,49.8c65.1,-6,37.6,-80.4,37.6,-80.4c3.7,7.4,58.5,37.4,60.8,118.4c1.1,41.3,-.3,-4.6,-.7,35.5Z" class="g0_1" />
<path d="M630,540.6c46.6,-17.2,35.9,-89.7,11.2,-101.8c0,0,-21.9,28,-32.4,16.8c-20.5,-21.8,-17.5,-85,-17.5,-85C558.1,402.1,541,464.3,560.2,513.1c14.2,36.4,47.1,35.9,69.8,27.5Z" class="g1_1" />
<g clip-path="url(#c0_1)">
<path d="M2623.7,3926.5c-48.9,-198.6,-243.9,-134.4,-342.2,-183.4C2188.1,3696.6,2118,3710.4,2015.7,3569c0,0,-119.7,-138.1,-176,-186.4c-37.9,-32.5,-16.5,-93.6,-58.5,-139.6c-37.9,-41.5,68.4,-38.4,2.2,-86.5c-31.8,-23.2,-155.9,-97.1,-182.5,-154.1C1559.6,2914,1419.6,2861,1352.6,2771.5C1251.2,2636.1,1291.8,2448,1203.3,2425.1c-71.5,-18.4,-133,24.1,-189.4,-1.9C966.3,2401.4,837.1,2395.8,749.2,2407l-.1,1.3c-35.4,2.2,-65.9,7,-84.5,14.6c-57.4,23.8,-117.1,-21.1,-189.3,-5.5c-89.3,19.4,-52.3,99.7,-158.9,231c-70.5,86.8,-118.2,90.6,-162.9,177.3c-28.9,55.9,-308,134.8,-343.4,187.2c-46.5,68.7,-191.3,515.6,-191.3,515.6c-107.8,137.4,-177.3,120.8,-272.4,163.7c-100.1,45.1,-292.5,-26.8,-349.2,169.7c-49.1,170.6,10.2,107.8,28.9,109.5c896.1,82.9,1517.7,129.9,1811.2,97.1c312.8,33.6,912.4,10.9,1753.2,-33.8c18.9,-1,75.6,64.1,33.2,-108.2Z" class="g2_1" />
</g>
<path d="M655,2490c0,0,79.2,15.2,112,14.6c232.7,-4,307.4,-29.9,307.4,-29.9c-45.4,-54.6,-145,-3.8,-175.3,-6.2C838,2463.7,738.7,2419.3,657,2456c-9.7,4.3,-2,34,-2,34Z" class="g3_1" />
<path d="M695.7,2497c0,0,60.6,10.9,127.9,8.1c13.6,-.6,157.4,-13.4,157.4,-13.4c-17.3,-17.3,-151.5,-10.2,-175.9,-11.3c-24.4,-1,-114.7,9.3,-109.4,16.6Z" class="g0_1" />
<g clip-path="url(#c0_1)">
<path d="M1133.6,2446.5c39.8,16.4,6.2,54.6,42.8,58.6c45.7,5,90.8,139,97.7,135.7c6.9,-3.3,129.6,115.8,155.8,166.4c11.9,23,5.6,82.4,24,100.6c28.2,27.7,120.2,14.4,154.2,34.4c44.9,26.5,64.5,57.1,77.9,107.4c6.7,24.9,69.5,246.5,43.6,300.2c-37.6,78,-503.7,55.1,-515.6,4.6c-17,-72.1,63.3,-210.3,11.4,-263.1c-71,-72.3,54.3,-166.1,20.7,-203.8c-128.4,-143.6,-3.6,-269.4,-107.4,-289.2c-64.3,-12.2,-74.3,-62.2,-82.4,-92c-2.8,-10.2,-23.9,-29.4,-18.2,-38.4c6.4,-10.2,84.4,-26,95.5,-21.4Z" class="g3_1" />
</g>
<path d="M1267.1,2733.7c11.8,31.6,10.5,37.4,16.3,70.6c6.3,36.8,43,96.3,43,96.3c0,0,-7,-44.8,-17.1,-96.3c-3.2,-16.7,3.6,-44.3,-19.2,-79.4c-27.9,-43,-54.9,-68.8,-54.9,-68.8c0,0,25.1,59.3,31.9,77.6Z" class="g0_1" />
<g clip-path="url(#c0_1)">
<path d="M625,2451.5c-24.7,4.4,-79.2,-3.1,-99.8,11.4c-37.6,26.4,-81.2,164.8,-88.1,161.5c-6.8,-3.3,-118.2,62.9,-144.4,113.6c-11.8,22.9,3.2,59.9,-15.2,78c-28.1,27.7,-62.4,4.6,-94.7,27.4c-30.5,21.4,-105.5,112.7,-79.7,162.1c33.8,64.7,-160.8,41,-176.9,161c-9.6,72.1,-9.8,168.5,16.1,222.3c37.6,77.9,527,2.6,550.5,-43.6c52,-102.2,-49.8,-296.3,-27.9,-367c14.9,-48.2,109.5,-106.6,135,-150.1c28.8,-49.3,30.1,-154.8,35.2,-211.6c2.8,-30.7,11.7,-96.8,19.9,-126.5c2.8,-10.3,23.9,-29.5,18.2,-38.5c-6.5,-10.1,-36.3,-2.1,-48.2,0Z" class="g3_1" />
</g>
<path d="M518.7,2562.6c-12.9,31.1,-13.9,78.5,-32.4,106.7C465.8,2700.6,381,2825.2,381,2825.2c0,0,129.5,-102.1,157.3,-146.6c9,-14.5,8,-61.2,10.4,-67.3c2.5,-6.1,0,-120.7,0,-120.7c0,0,-22.5,54,-30,72Z" class="g0_1" />
<g clip-path="url(#c0_1)">
<path d="M397.8,3140.6c-8.3,-56.1,-19.8,-50.6,-4.1,-80.4c5.7,-11,-4.8,-44.2,5.1,-72.3c20,-56.8,76.4,-107.9,76.4,-107.9c0,0,-63.8,24.5,-96.3,66.7c-15.8,20.6,-29.5,39.2,-33.6,63.6c-2.8,16.8,-.7,97.5,-2.5,103.8c-1.9,6.3,-26.5,145.6,-26.5,145.6c0,0,84.3,-99.9,81.5,-119.1Z" class="g0_1" />
</g>
<path d="M617.8,2478c-13,31.1,4.2,44.8,-6.7,67.4c-16.1,33.7,22.9,85.5,22.9,85.5c0,0,-.4,-60.4,27.4,-105c9,-14.4,8.9,-22.2,11.4,-28.3c2.4,-6.1,33.6,0,33.6,0c0,0,-81.2,-37.6,-88.6,-19.6Z" class="g0_1" />

</svg>
