<svg id="svg" version="1.1" width="400" height="309.09090909090907" viewBox="0 0 400 309.09090909090907" xmlns="http://www.w3.org/2000/svg" xmlns:xlink="http://www.w3.org/1999/xlink" ><g id="svgg"><path id="path0" d="M201.333 4.261 C 200.646 4.386,199.596 4.574,199.000 4.677 C 198.404 4.780,197.542 4.965,197.083 5.088 C 196.625 5.211,195.762 5.440,195.167 5.596 C 190.316 6.871,184.503 9.182,178.417 12.255 C 175.059 13.950,167.782 18.104,167.500 18.485 C 167.454 18.547,166.892 18.927,166.250 19.328 C 164.433 20.464,158.402 24.888,157.833 25.502 C 157.787 25.551,157.412 25.847,157.000 26.158 C 156.587 26.470,156.175 26.805,156.083 26.904 C 155.992 27.003,155.129 27.758,154.167 28.583 C 151.477 30.888,146.826 35.603,144.486 38.397 C 144.264 38.661,144.007 38.961,143.914 39.064 C 143.821 39.166,143.486 39.587,143.169 40.000 C 142.851 40.412,142.545 40.787,142.488 40.833 C 142.430 40.879,141.924 41.554,141.363 42.333 C 140.802 43.112,140.266 43.841,140.171 43.951 C 140.077 44.062,140.000 44.196,140.000 44.250 C 140.000 44.304,139.921 44.438,139.824 44.549 C 138.604 45.941,134.698 53.125,133.939 55.373 C 133.792 55.807,133.606 56.295,133.525 56.456 C 133.233 57.040,132.997 57.786,132.010 61.250 C 130.943 64.994,130.693 68.488,130.916 76.571 C 131.107 83.500,130.599 90.378,129.575 94.750 C 128.421 99.673,127.865 101.573,126.359 105.750 C 125.703 107.568,124.723 110.391,124.246 111.833 C 124.110 112.246,123.999 112.720,123.999 112.887 C 124.000 113.287,123.709 112.990,123.253 112.125 C 123.072 111.781,122.875 111.500,122.815 111.500 C 122.755 111.500,122.658 111.369,122.600 111.208 C 122.542 111.048,122.402 110.767,122.289 110.583 C 122.020 110.147,121.021 108.428,120.546 107.583 C 119.950 106.525,118.377 103.289,117.983 102.310 C 116.708 99.146,116.239 97.650,116.004 96.000 C 115.821 94.713,115.058 90.408,114.845 89.458 C 114.747 89.023,114.582 88.310,114.478 87.875 C 114.374 87.440,114.227 86.708,114.152 86.250 C 114.076 85.792,113.892 84.892,113.741 84.250 C 113.591 83.608,113.405 82.727,113.328 82.292 C 113.250 81.857,113.145 81.434,113.095 81.351 C 113.044 81.269,112.851 80.436,112.667 79.500 C 112.482 78.564,112.298 77.744,112.257 77.678 C 112.217 77.613,112.070 77.039,111.930 76.404 C 110.681 70.703,110.763 70.826,109.699 73.025 C 108.560 75.382,107.167 78.350,107.167 78.419 C 107.167 78.450,106.904 79.044,106.583 79.739 C 106.263 80.433,106.000 81.052,106.000 81.115 C 106.000 81.177,105.843 81.571,105.651 81.989 C 105.284 82.789,104.984 83.471,104.696 84.167 C 104.548 84.522,104.085 85.737,102.902 88.875 C 102.773 89.219,102.559 89.781,102.427 90.125 C 102.295 90.469,102.098 91.050,101.988 91.417 C 101.879 91.783,101.690 92.346,101.568 92.667 C 101.446 92.987,101.153 93.925,100.918 94.750 C 100.682 95.575,100.381 96.625,100.248 97.083 C 99.687 99.022,99.528 99.636,99.340 100.583 C 99.232 101.133,99.042 101.996,98.919 102.500 C 97.627 107.780,97.060 117.297,97.639 123.992 C 98.127 129.627,97.863 138.151,97.066 142.500 C 96.923 143.279,96.731 144.329,96.639 144.833 C 96.548 145.337,96.374 146.125,96.253 146.583 C 95.568 149.180,95.054 150.934,94.543 152.417 C 94.227 153.333,93.912 154.309,93.844 154.585 C 93.776 154.860,93.641 155.235,93.544 155.418 C 93.447 155.601,93.240 156.087,93.083 156.500 C 92.927 156.912,92.732 157.380,92.650 157.539 C 92.567 157.699,92.500 157.965,92.500 158.131 C 92.500 158.297,92.430 158.505,92.344 158.592 C 92.116 158.824,90.615 163.459,90.000 165.833 C 89.893 166.246,89.703 166.958,89.578 167.417 C 89.302 168.426,88.911 170.118,88.692 171.250 C 87.718 176.276,87.556 177.198,87.341 178.917 C 87.238 179.742,87.076 180.904,86.981 181.500 C 86.885 182.096,86.742 183.408,86.661 184.417 C 86.581 185.425,86.428 187.075,86.321 188.083 C 85.845 192.569,86.839 205.732,88.267 213.833 C 88.404 214.612,88.592 215.700,88.684 216.250 C 88.776 216.800,88.952 217.700,89.074 218.250 C 89.197 218.800,89.429 219.850,89.590 220.583 C 89.865 221.831,90.600 224.730,91.322 227.417 C 91.494 228.058,91.828 229.183,92.065 229.917 C 92.301 230.650,92.575 231.512,92.674 231.833 C 92.773 232.154,92.956 232.679,93.081 233.000 C 93.206 233.321,93.507 234.146,93.750 234.833 C 93.993 235.521,94.292 236.346,94.416 236.667 C 94.864 237.833,95.688 239.925,95.827 240.250 C 96.061 240.796,96.642 242.112,97.023 242.958 C 97.601 244.243,100.124 249.333,100.720 250.417 C 102.247 253.192,102.803 254.148,102.996 254.333 C 103.044 254.379,103.226 254.679,103.400 255.000 C 103.575 255.321,104.437 256.661,105.317 257.978 C 106.197 259.295,106.992 260.495,107.083 260.645 C 107.175 260.794,107.291 260.954,107.341 261.000 C 107.392 261.046,107.616 261.346,107.839 261.667 C 108.062 261.987,108.335 262.362,108.444 262.500 C 108.553 262.637,109.337 263.650,110.186 264.750 C 111.035 265.850,111.774 266.787,111.827 266.833 C 111.880 266.879,112.297 267.367,112.754 267.916 C 117.997 274.235,126.343 281.650,133.583 286.422 C 134.408 286.966,135.121 287.450,135.167 287.497 C 135.291 287.626,135.882 287.987,136.167 288.109 C 136.304 288.168,136.642 288.379,136.917 288.579 C 137.192 288.778,137.529 288.995,137.667 289.060 C 137.804 289.126,138.068 289.271,138.253 289.382 C 138.439 289.493,139.226 289.946,140.003 290.388 C 140.781 290.831,141.529 291.259,141.667 291.338 C 143.508 292.404,149.188 295.167,149.540 295.167 C 149.665 295.167,149.838 295.235,149.925 295.318 C 150.066 295.452,152.798 296.604,154.583 297.281 C 154.950 297.420,155.380 297.602,155.539 297.684 C 155.699 297.766,155.965 297.833,156.131 297.833 C 156.297 297.833,156.514 297.914,156.613 298.013 C 156.712 298.112,157.045 298.258,157.355 298.338 C 158.002 298.505,159.813 299.089,160.667 299.407 C 161.302 299.643,162.487 300.009,163.667 300.334 C 164.079 300.448,164.754 300.635,165.167 300.751 C 166.347 301.080,167.849 301.465,168.667 301.647 C 169.079 301.738,169.923 301.930,170.542 302.073 C 172.993 302.640,173.796 302.809,174.917 302.992 C 175.558 303.098,176.721 303.290,177.500 303.420 C 180.599 303.935,182.166 304.152,184.000 304.317 C 185.054 304.412,186.742 304.580,187.750 304.689 C 190.860 305.027,203.731 305.076,207.167 304.762 C 212.647 304.262,215.115 303.956,218.000 303.418 C 218.688 303.290,219.700 303.103,220.250 303.002 C 221.608 302.754,223.393 302.368,224.500 302.081 C 225.004 301.951,225.904 301.728,226.500 301.585 C 227.096 301.443,228.108 301.174,228.750 300.988 C 230.684 300.427,231.058 300.321,231.667 300.162 C 231.987 300.078,232.662 299.851,233.167 299.657 C 233.671 299.463,234.308 299.245,234.583 299.173 C 235.387 298.961,238.330 297.864,239.750 297.248 C 240.025 297.128,240.845 296.791,241.572 296.498 C 242.299 296.205,243.011 295.903,243.155 295.826 C 243.299 295.750,243.867 295.490,244.417 295.250 C 245.645 294.712,250.700 292.175,251.500 291.695 C 251.821 291.502,252.383 291.189,252.750 291.000 C 253.117 290.810,253.642 290.509,253.917 290.329 C 254.192 290.150,254.529 289.952,254.667 289.890 C 254.804 289.827,255.353 289.489,255.887 289.138 C 256.420 288.787,256.901 288.500,256.954 288.500 C 257.008 288.500,257.298 288.313,257.598 288.083 C 257.899 287.854,258.185 287.667,258.234 287.667 C 258.335 287.667,259.872 286.637,260.000 286.483 C 260.046 286.428,260.417 286.174,260.824 285.919 C 261.862 285.269,264.739 283.140,264.806 282.972 C 264.836 282.896,264.961 282.833,265.083 282.833 C 265.206 282.833,265.331 282.777,265.361 282.707 C 265.392 282.638,265.754 282.325,266.167 282.012 C 266.579 281.698,266.992 281.361,267.085 281.263 C 267.178 281.164,267.590 280.822,268.002 280.502 C 269.065 279.676,269.346 279.450,269.660 279.167 C 269.813 279.029,270.570 278.355,271.344 277.668 C 273.366 275.872,276.204 273.117,278.673 270.554 C 280.015 269.160,282.834 265.954,283.922 264.584 C 284.286 264.125,284.678 263.650,284.794 263.527 C 284.910 263.405,285.210 263.030,285.460 262.694 C 285.710 262.358,285.960 262.046,286.016 262.000 C 286.173 261.870,289.764 256.932,290.283 256.131 C 290.538 255.738,290.786 255.379,290.833 255.333 C 291.012 255.160,292.502 252.847,293.569 251.083 C 294.180 250.075,294.752 249.137,294.841 249.000 C 294.929 248.862,295.052 248.637,295.114 248.500 C 295.175 248.362,295.270 248.213,295.325 248.167 C 295.379 248.121,295.515 247.896,295.628 247.667 C 295.740 247.438,296.128 246.725,296.491 246.083 C 297.454 244.378,298.283 242.810,299.265 240.833 C 300.364 238.620,301.152 236.928,302.348 234.208 C 302.896 232.963,302.949 232.837,303.581 231.250 C 303.909 230.425,304.245 229.600,304.327 229.417 C 304.409 229.233,304.637 228.633,304.834 228.083 C 305.030 227.533,305.491 226.258,305.858 225.250 C 306.224 224.242,306.584 223.192,306.657 222.917 C 306.730 222.642,306.867 222.229,306.961 222.000 C 307.055 221.771,307.215 221.283,307.316 220.917 C 307.418 220.550,307.691 219.650,307.924 218.917 C 308.569 216.882,309.457 213.529,310.218 210.250 C 310.972 207.000,311.162 206.110,311.407 204.667 C 311.540 203.887,311.723 202.875,311.814 202.417 C 312.101 200.961,312.474 198.633,312.668 197.083 C 312.771 196.258,312.960 194.796,313.087 193.833 C 313.973 187.161,313.969 175.435,313.076 163.750 C 312.943 162.008,312.756 159.496,312.661 158.167 C 312.566 156.837,312.379 154.840,312.244 153.727 C 312.110 152.615,312.000 151.425,312.000 151.084 C 312.000 150.743,311.892 149.966,311.760 149.357 C 311.628 148.748,311.431 147.800,311.323 147.250 C 311.129 146.262,310.864 145.116,310.417 143.333 C 310.290 142.829,310.100 142.042,309.994 141.583 C 309.816 140.815,309.637 140.193,309.084 138.417 C 308.970 138.050,308.781 137.412,308.664 137.000 C 308.372 135.970,307.089 132.119,306.664 131.000 C 306.473 130.496,306.200 129.746,306.058 129.333 C 305.916 128.921,305.703 128.358,305.585 128.083 C 305.466 127.808,305.017 126.721,304.586 125.667 C 304.155 124.612,303.734 123.679,303.651 123.592 C 303.568 123.505,303.500 123.336,303.500 123.218 C 303.500 122.766,299.938 115.572,298.661 113.444 C 298.487 113.154,298.189 112.617,298.000 112.250 C 297.810 111.883,297.509 111.358,297.329 111.083 C 297.150 110.808,296.951 110.471,296.888 110.333 C 296.723 109.977,295.785 108.433,295.673 108.333 C 295.622 108.287,295.433 107.969,295.252 107.625 C 295.072 107.281,294.866 107.000,294.795 107.000 C 294.725 107.000,294.667 106.931,294.667 106.847 C 294.667 106.707,292.376 103.192,292.159 103.000 C 292.108 102.954,291.894 102.633,291.683 102.287 C 291.473 101.941,291.212 101.566,291.103 101.454 C 290.995 101.342,290.723 100.987,290.500 100.667 C 290.277 100.346,290.001 99.987,289.886 99.869 C 289.772 99.751,289.547 99.432,289.387 99.161 C 289.226 98.889,289.036 98.667,288.964 98.667 C 288.892 98.667,288.833 98.592,288.833 98.501 C 288.833 98.410,288.691 98.167,288.518 97.960 C 288.344 97.753,287.544 96.758,286.739 95.750 C 285.935 94.742,285.158 93.794,285.013 93.644 C 284.868 93.493,284.375 92.931,283.917 92.394 C 283.458 91.856,282.877 91.205,282.625 90.946 C 282.373 90.686,282.167 90.441,282.167 90.400 C 282.167 90.108,272.056 80.000,271.764 80.000 C 271.729 80.000,271.449 79.756,271.142 79.458 C 270.835 79.160,270.181 78.579,269.689 78.167 C 269.198 77.754,268.679 77.304,268.536 77.167 C 267.485 76.153,262.292 72.099,257.917 68.877 C 257.367 68.472,256.729 68.002,256.500 67.832 C 256.271 67.663,255.183 66.882,254.083 66.097 C 252.983 65.313,251.783 64.409,251.417 64.089 C 250.326 63.136,250.197 63.225,250.676 64.599 C 250.865 65.140,251.094 65.846,251.186 66.167 C 251.277 66.487,251.420 66.975,251.503 67.250 C 251.585 67.525,251.777 68.162,251.929 68.667 C 252.081 69.171,252.461 70.596,252.774 71.833 C 253.087 73.071,253.448 74.496,253.576 75.000 C 253.705 75.504,253.886 76.329,253.979 76.833 C 254.155 77.782,254.488 79.516,254.830 81.250 C 255.049 82.362,255.256 83.957,255.490 86.333 C 255.575 87.204,255.725 88.552,255.823 89.329 C 256.092 91.478,256.047 98.772,255.749 101.110 C 254.997 107.008,254.149 110.160,252.190 114.333 C 251.813 115.137,249.835 118.373,249.594 118.581 C 249.486 118.674,249.183 119.050,248.920 119.417 C 248.140 120.506,246.686 121.931,245.000 123.258 C 244.129 123.943,243.342 124.563,243.250 124.636 C 243.158 124.708,242.971 124.817,242.833 124.878 C 242.696 124.939,242.208 125.215,241.750 125.492 C 241.292 125.768,240.729 126.074,240.500 126.172 C 239.550 126.579,238.554 127.031,238.111 127.258 C 237.852 127.391,237.511 127.500,237.353 127.500 C 237.196 127.500,236.995 127.562,236.908 127.638 C 236.821 127.715,236.262 127.911,235.667 128.075 C 235.071 128.239,234.246 128.468,233.833 128.583 C 233.072 128.796,232.248 128.947,229.241 129.426 C 227.061 129.773,221.567 129.686,219.583 129.274 C 216.814 128.698,216.717 128.669,214.083 127.667 C 213.794 127.556,212.466 126.899,211.280 126.278 C 209.151 125.164,204.516 121.100,202.997 119.015 C 202.770 118.703,202.499 118.362,202.397 118.258 C 202.295 118.153,201.679 117.246,201.029 116.242 C 200.379 115.238,199.788 114.342,199.715 114.250 C 199.536 114.023,198.937 112.883,198.052 111.083 C 197.647 110.258,197.250 109.463,197.172 109.317 C 195.783 106.730,192.605 96.990,191.985 93.419 C 191.906 92.961,191.773 92.399,191.690 92.169 C 191.606 91.938,191.450 91.225,191.341 90.583 C 191.233 89.942,191.040 88.892,190.913 88.250 C 190.193 84.627,190.093 83.847,189.747 79.167 C 189.209 71.876,189.598 63.859,190.925 54.917 C 191.061 54.000,191.250 52.725,191.345 52.083 C 191.517 50.918,191.798 49.360,192.262 47.000 C 192.397 46.313,192.586 45.337,192.682 44.833 C 192.848 43.964,193.055 43.025,193.581 40.750 C 193.708 40.200,193.849 39.563,193.894 39.333 C 193.938 39.104,194.100 38.392,194.252 37.750 C 194.405 37.108,194.590 36.321,194.662 36.000 C 194.735 35.679,194.923 34.967,195.080 34.417 C 195.237 33.867,195.429 33.154,195.506 32.833 C 195.583 32.512,195.800 31.725,195.987 31.083 C 196.175 30.442,196.482 29.296,196.670 28.537 C 196.858 27.778,197.078 26.991,197.159 26.787 C 197.240 26.583,197.505 25.742,197.748 24.917 C 198.387 22.741,199.494 19.177,199.741 18.500 C 200.131 17.426,200.355 16.756,200.602 15.917 C 200.738 15.458,200.918 14.933,201.003 14.750 C 201.154 14.425,201.354 13.871,201.997 12.000 C 202.170 11.496,202.472 10.671,202.667 10.167 C 202.862 9.662,203.169 8.801,203.349 8.253 C 203.530 7.704,203.750 7.183,203.839 7.095 C 203.927 7.006,204.000 6.804,204.000 6.647 C 204.000 6.489,204.106 6.148,204.235 5.889 C 204.492 5.371,204.752 4.744,204.896 4.292 C 205.015 3.922,203.268 3.906,201.333 4.261 M199.148 10.042 C 193.219 25.001,188.342 43.698,186.420 58.833 C 184.424 74.548,185.247 86.367,189.177 98.434 C 199.031 128.690,213.270 139.102,236.678 133.170 C 257.820 127.812,266.149 109.532,260.334 81.250 C 259.897 79.125,258.820 75.035,258.170 73.034 C 257.589 71.244,257.567 71.111,257.945 71.671 C 258.443 72.408,260.040 74.203,262.167 76.415 C 267.157 81.605,269.892 84.578,272.887 88.069 C 293.978 112.655,305.466 139.086,307.519 167.750 C 307.962 173.934,307.702 191.150,307.076 197.165 C 302.536 240.725,272.269 279.425,231.833 293.372 C 176.511 312.454,115.130 280.851,97.580 224.250 C 91.041 203.161,91.157 177.972,97.876 160.410 C 102.062 149.465,103.182 141.616,102.416 128.583 C 102.282 126.292,102.086 122.917,101.981 121.083 C 101.261 108.488,102.849 98.514,107.447 86.750 C 108.215 84.785,109.519 81.792,109.695 81.592 C 109.771 81.505,109.833 84.319,109.833 87.846 C 109.833 91.373,109.912 94.894,110.008 95.671 C 110.806 102.147,114.186 110.575,119.297 118.833 C 120.822 121.296,120.582 121.226,121.956 119.612 C 127.946 112.577,131.881 104.254,133.584 95.015 C 134.441 90.360,134.763 84.875,134.488 79.583 C 134.017 70.539,134.804 64.820,137.525 57.500 C 143.378 41.758,158.884 25.978,178.333 15.973 C 186.103 11.975,194.050 9.298,198.456 9.192 L 199.495 9.167 199.148 10.042 " stroke="none" fill="#8c141c" fill-rule="evenodd"></path><path id="path1" d="M175.987 107.385 C 158.698 120.395,143.720 139.086,135.426 158.000 C 129.342 171.876,126.201 183.628,124.916 197.333 C 122.707 220.883,129.204 245.884,141.765 262.167 C 158.275 283.566,190.388 290.913,227.750 281.837 C 249.080 276.656,263.244 265.190,271.151 246.703 C 283.821 217.083,274.303 174.723,252.166 162.208 C 250.147 161.066,248.657 160.554,247.750 160.689 C 230.213 163.305,209.557 160.831,201.013 155.090 C 184.940 144.291,174.962 123.371,178.089 107.028 C 178.221 106.338,178.309 105.754,178.286 105.730 C 178.262 105.707,177.228 106.452,175.987 107.385 " stroke="none" fill="#fbeb8b" fill-rule="evenodd"></path><path id="path2" d="M196.667 9.439 C 186.275 11.013,169.636 19.693,158.583 29.305 C 142.307 43.461,134.333 58.639,134.534 75.083 C 134.696 88.284,134.519 91.344,133.262 97.083 C 131.497 105.145,127.891 112.543,122.586 118.990 L 120.772 121.194 120.467 120.805 C 118.998 118.935,115.588 112.716,113.629 108.333 C 112.687 106.226,111.433 102.685,110.826 100.417 C 109.890 96.916,109.804 96.017,109.711 88.750 L 109.623 81.917 109.133 83.000 C 108.721 83.910,107.748 86.292,106.750 88.833 C 104.767 93.880,103.151 100.507,102.299 107.083 C 102.019 109.250,102.014 121.805,102.293 125.167 C 103.504 139.781,102.458 148.561,98.143 159.987 C 94.817 168.796,93.509 175.708,92.986 187.236 C 91.036 230.267,114.412 269.675,152.958 288.334 C 172.395 297.743,195.881 301.087,216.167 297.334 C 242.160 292.526,264.837 278.741,282.109 257.250 C 289.183 248.449,296.253 236.254,299.744 226.833 C 299.862 226.512,300.159 225.725,300.403 225.083 C 301.314 222.681,303.185 216.839,303.711 214.750 C 303.757 214.567,303.944 213.854,304.126 213.167 C 305.744 207.056,306.836 200.080,307.361 192.500 C 307.652 188.296,307.659 170.505,307.371 167.000 C 306.932 161.666,306.015 155.204,305.099 151.000 C 304.969 150.404,304.748 149.392,304.607 148.750 C 299.348 124.808,286.563 102.376,265.438 80.024 C 261.042 75.373,259.259 73.452,258.453 72.497 C 258.019 71.983,257.875 71.880,257.992 72.167 C 259.209 75.165,261.085 83.764,261.835 89.776 C 262.480 94.955,262.239 103.599,261.338 107.561 C 260.797 109.942,260.566 110.793,259.977 112.583 C 256.325 123.679,247.668 130.937,234.750 133.734 C 212.581 138.535,198.951 128.162,189.326 99.167 C 185.314 87.079,184.321 74.713,186.176 59.917 C 186.549 56.935,187.216 52.424,187.506 50.917 C 187.594 50.458,187.855 49.071,188.085 47.833 C 188.315 46.596,188.612 45.096,188.744 44.500 C 188.876 43.904,189.142 42.704,189.336 41.833 C 190.427 36.925,192.424 29.523,194.103 24.167 C 195.627 19.304,197.617 13.595,198.849 10.553 C 199.115 9.895,199.333 9.314,199.333 9.262 C 199.333 9.115,198.400 9.177,196.667 9.439 M178.089 107.028 C 175.756 119.222,180.449 133.945,190.300 145.333 C 200.380 156.987,208.910 160.710,227.379 161.517 C 233.225 161.772,243.209 161.366,247.750 160.689 C 248.657 160.554,250.147 161.066,252.166 162.208 C 274.303 174.723,283.821 217.083,271.151 246.703 C 263.244 265.190,249.080 276.656,227.750 281.837 C 190.388 290.913,158.275 283.566,141.765 262.167 C 129.204 245.884,122.707 220.883,124.916 197.333 C 126.201 183.628,129.342 171.876,135.426 158.000 C 142.336 142.242,154.803 125.429,168.393 113.540 C 171.563 110.767,178.135 105.579,178.286 105.730 C 178.309 105.754,178.221 106.338,178.089 107.028 " stroke="none" fill="#d3736b" fill-rule="evenodd"></path><path id="path3" d="M185.548 67.417 C 185.549 67.875,185.581 68.043,185.620 67.789 C 185.658 67.536,185.657 67.161,185.617 66.956 C 185.578 66.751,185.546 66.958,185.548 67.417 M185.379 71.500 C 185.379 71.912,185.411 72.081,185.451 71.875 C 185.491 71.669,185.491 71.331,185.451 71.125 C 185.411 70.919,185.379 71.087,185.379 71.500 M134.381 72.083 C 134.382 72.542,134.415 72.709,134.453 72.456 C 134.491 72.203,134.490 71.828,134.451 71.623 C 134.411 71.418,134.380 71.625,134.381 72.083 M185.379 76.833 C 185.379 77.246,185.411 77.415,185.451 77.208 C 185.491 77.002,185.491 76.665,185.451 76.458 C 185.411 76.252,185.379 76.421,185.379 76.833 M134.383 77.333 C 134.383 77.837,134.415 78.044,134.453 77.792 C 134.491 77.540,134.491 77.127,134.453 76.875 C 134.415 76.623,134.383 76.829,134.383 77.333 M263.250 77.667 C 263.794 78.217,264.277 78.667,264.323 78.667 C 264.369 78.667,263.961 78.217,263.417 77.667 C 262.872 77.117,262.390 76.667,262.344 76.667 C 262.298 76.667,262.706 77.117,263.250 77.667 M185.542 80.583 C 185.544 80.950,185.578 81.080,185.618 80.873 C 185.658 80.666,185.656 80.366,185.615 80.206 C 185.573 80.047,185.540 80.217,185.542 80.583 M134.542 80.917 C 134.544 81.283,134.578 81.414,134.618 81.206 C 134.658 80.999,134.656 80.699,134.615 80.540 C 134.573 80.380,134.540 80.550,134.542 80.917 M266.000 80.552 C 266.000 80.581,266.244 80.825,266.542 81.094 L 267.083 81.583 266.594 81.042 C 266.138 80.537,266.000 80.423,266.000 80.552 M109.635 81.625 C 109.607 81.694,109.622 84.412,109.670 87.667 L 109.756 93.583 109.795 87.542 C 109.830 82.094,109.806 81.210,109.635 81.625 M134.542 85.583 C 134.544 85.950,134.578 86.080,134.618 85.873 C 134.658 85.666,134.656 85.366,134.615 85.206 C 134.573 85.047,134.540 85.217,134.542 85.583 M134.375 88.750 C 134.377 89.117,134.411 89.247,134.451 89.040 C 134.491 88.832,134.490 88.532,134.448 88.373 C 134.406 88.214,134.374 88.383,134.375 88.750 M262.039 94.000 C 262.039 94.321,262.073 94.452,262.115 94.292 C 262.157 94.131,262.157 93.869,262.115 93.708 C 262.073 93.548,262.039 93.679,262.039 94.000 M262.042 100.750 C 262.044 101.117,262.078 101.247,262.118 101.040 C 262.158 100.832,262.156 100.532,262.115 100.373 C 262.073 100.214,262.040 100.383,262.042 100.750 M101.881 111.750 C 101.882 112.208,101.915 112.376,101.953 112.123 C 101.991 111.869,101.990 111.494,101.951 111.289 C 101.911 111.084,101.880 111.292,101.881 111.750 M101.883 119.000 C 101.883 119.504,101.915 119.710,101.953 119.458 C 101.991 119.206,101.991 118.794,101.953 118.542 C 101.915 118.290,101.883 118.496,101.883 119.000 M102.039 122.667 C 102.039 122.987,102.073 123.119,102.115 122.958 C 102.157 122.798,102.157 122.535,102.115 122.375 C 102.073 122.215,102.039 122.346,102.039 122.667 M102.379 127.833 C 102.379 128.246,102.411 128.415,102.451 128.208 C 102.491 128.002,102.491 127.665,102.451 127.458 C 102.411 127.252,102.379 127.421,102.379 127.833 M226.875 134.782 C 227.035 134.823,227.298 134.823,227.458 134.782 C 227.619 134.740,227.487 134.705,227.167 134.705 C 226.846 134.705,226.715 134.740,226.875 134.782 M102.372 142.000 C 102.372 142.321,102.406 142.452,102.448 142.292 C 102.490 142.131,102.490 141.869,102.448 141.708 C 102.406 141.548,102.372 141.679,102.372 142.000 M307.737 179.083 C 307.737 180.917,307.761 181.689,307.791 180.801 C 307.821 179.912,307.821 178.412,307.791 177.467 C 307.761 176.523,307.737 177.250,307.737 179.083 M93.045 183.833 C 93.045 184.246,93.078 184.415,93.118 184.208 C 93.157 184.002,93.157 183.665,93.118 183.458 C 93.078 183.252,93.045 183.421,93.045 183.833 M92.881 187.083 C 92.882 187.542,92.915 187.709,92.953 187.456 C 92.991 187.203,92.990 186.828,92.951 186.623 C 92.911 186.418,92.880 186.625,92.881 187.083 M307.542 188.917 C 307.544 189.283,307.578 189.414,307.618 189.206 C 307.658 188.999,307.656 188.699,307.615 188.540 C 307.573 188.380,307.540 188.550,307.542 188.917 M307.372 192.667 C 307.372 192.987,307.406 193.119,307.448 192.958 C 307.490 192.798,307.490 192.535,307.448 192.375 C 307.406 192.215,307.372 192.346,307.372 192.667 M92.883 196.500 C 92.883 197.004,92.915 197.210,92.953 196.958 C 92.991 196.706,92.991 196.294,92.953 196.042 C 92.915 195.790,92.883 195.996,92.883 196.500 M93.042 199.917 C 93.044 200.283,93.078 200.414,93.118 200.206 C 93.158 199.999,93.156 199.699,93.115 199.540 C 93.073 199.380,93.040 199.550,93.042 199.917 M121.833 265.750 C 122.144 266.071,122.436 266.333,122.482 266.333 C 122.528 266.333,122.311 266.071,122.000 265.750 C 121.689 265.429,121.397 265.167,121.351 265.167 C 121.305 265.167,121.522 265.429,121.833 265.750 M273.411 267.042 L 272.417 268.083 273.458 267.089 C 274.031 266.541,274.500 266.073,274.500 266.047 C 274.500 265.924,274.336 266.074,273.411 267.042 M125.833 269.750 C 126.144 270.071,126.436 270.333,126.482 270.333 C 126.528 270.333,126.311 270.071,126.000 269.750 C 125.689 269.429,125.397 269.167,125.351 269.167 C 125.305 269.167,125.522 269.429,125.833 269.750 M193.294 298.785 C 193.501 298.824,193.801 298.823,193.960 298.781 C 194.120 298.739,193.950 298.707,193.583 298.709 C 193.217 298.711,193.086 298.745,193.294 298.785 M203.875 298.782 C 204.035 298.823,204.298 298.823,204.458 298.782 C 204.619 298.740,204.487 298.705,204.167 298.705 C 203.846 298.705,203.715 298.740,203.875 298.782 M198.125 298.956 C 198.606 298.990,199.394 298.990,199.875 298.956 C 200.356 298.923,199.963 298.895,199.000 298.895 C 198.037 298.895,197.644 298.923,198.125 298.956 " stroke="none" fill="#b4463e" fill-rule="evenodd"></path><path id="path4" d="M154.824 32.625 L 154.250 33.250 154.875 32.676 C 155.457 32.141,155.577 32.000,155.449 32.000 C 155.422 32.000,155.140 32.281,154.824 32.625 M151.658 35.792 L 151.083 36.417 151.708 35.842 C 152.290 35.308,152.410 35.167,152.283 35.167 C 152.255 35.167,151.974 35.448,151.658 35.792 M185.381 70.083 C 185.382 70.542,185.415 70.709,185.453 70.456 C 185.491 70.203,185.490 69.828,185.451 69.623 C 185.411 69.418,185.380 69.625,185.381 70.083 M134.381 73.583 C 134.382 74.042,134.415 74.209,134.453 73.956 C 134.491 73.703,134.490 73.328,134.451 73.123 C 134.411 72.918,134.380 73.125,134.381 73.583 M134.381 75.750 C 134.382 76.208,134.415 76.376,134.453 76.123 C 134.491 75.869,134.490 75.494,134.451 75.289 C 134.411 75.084,134.380 75.292,134.381 75.750 M261.583 76.000 C 261.941 76.367,262.272 76.667,262.318 76.667 C 262.363 76.667,262.108 76.367,261.750 76.000 C 261.392 75.633,261.062 75.333,261.016 75.333 C 260.970 75.333,261.225 75.633,261.583 76.000 M185.379 78.167 C 185.379 78.579,185.411 78.748,185.451 78.542 C 185.491 78.335,185.491 77.998,185.451 77.792 C 185.411 77.585,185.379 77.754,185.379 78.167 M134.542 79.750 C 134.544 80.117,134.578 80.247,134.618 80.040 C 134.658 79.832,134.656 79.532,134.615 79.373 C 134.573 79.214,134.540 79.383,134.542 79.750 M134.539 86.667 C 134.539 86.987,134.573 87.119,134.615 86.958 C 134.657 86.798,134.657 86.535,134.615 86.375 C 134.573 86.215,134.539 86.346,134.539 86.667 M262.039 93.000 C 262.039 93.321,262.073 93.452,262.115 93.292 C 262.157 93.131,262.157 92.869,262.115 92.708 C 262.073 92.548,262.039 92.679,262.039 93.000 M262.209 97.417 C 262.211 97.783,262.245 97.914,262.285 97.706 C 262.324 97.499,262.323 97.199,262.281 97.040 C 262.239 96.880,262.207 97.050,262.209 97.417 M101.902 115.333 C 101.902 116.938,101.927 117.594,101.957 116.792 C 101.988 115.990,101.988 114.677,101.957 113.875 C 101.927 113.073,101.902 113.729,101.902 115.333 M102.042 121.583 C 102.044 121.950,102.078 122.080,102.118 121.873 C 102.158 121.666,102.156 121.366,102.115 121.206 C 102.073 121.047,102.040 121.217,102.042 121.583 M102.542 130.250 C 102.544 130.617,102.578 130.747,102.618 130.540 C 102.658 130.332,102.656 130.032,102.615 129.873 C 102.573 129.714,102.540 129.883,102.542 130.250 M102.731 135.583 C 102.732 136.775,102.758 137.241,102.790 136.618 C 102.823 135.996,102.822 135.021,102.790 134.451 C 102.757 133.882,102.731 134.392,102.731 135.583 M307.548 170.417 C 307.549 170.875,307.581 171.043,307.620 170.789 C 307.658 170.536,307.657 170.161,307.617 169.956 C 307.578 169.751,307.546 169.958,307.548 170.417 M307.545 187.667 C 307.545 188.079,307.578 188.248,307.618 188.042 C 307.657 187.835,307.657 187.498,307.618 187.292 C 307.578 187.085,307.545 187.254,307.545 187.667 M92.875 188.417 C 92.877 188.783,92.911 188.914,92.951 188.706 C 92.991 188.499,92.990 188.199,92.948 188.040 C 92.906 187.880,92.874 188.050,92.875 188.417 M307.372 191.667 C 307.372 191.987,307.406 192.119,307.448 191.958 C 307.490 191.798,307.490 191.535,307.448 191.375 C 307.406 191.215,307.372 191.346,307.372 191.667 M92.881 194.917 C 92.882 195.375,92.915 195.543,92.953 195.289 C 92.991 195.036,92.990 194.661,92.951 194.456 C 92.911 194.251,92.880 194.458,92.881 194.917 M276.073 264.208 L 275.583 264.750 276.125 264.260 C 276.630 263.804,276.743 263.667,276.615 263.667 C 276.586 263.667,276.342 263.910,276.073 264.208 M270.573 269.708 L 270.083 270.250 270.625 269.760 C 271.130 269.304,271.243 269.167,271.115 269.167 C 271.086 269.167,270.842 269.410,270.573 269.708 " stroke="none" fill="#bc544c" fill-rule="evenodd"></path></g></svg>