<svg id="svg" version="1.1" width="400" height="573.3832175307323" viewBox="0 0 400 573.3832175307323" xmlns="http://www.w3.org/2000/svg" xmlns:xlink="http://www.w3.org/1999/xlink" ><g id="svgg"><path id="path0" d="M192.354 53.438 C 166.675 54.895,141.536 61.024,122.760 70.405 C 119.674 71.947,119.698 71.820,122.284 72.980 C 125.283 74.326,125.171 73.681,123.174 78.136 C 107.036 114.132,99.218 137.782,96.079 160.096 C 93.167 180.802,93.379 220.690,96.557 249.940 C 100.684 287.917,115.896 348.486,124.458 361.029 L 125.393 362.399 124.465 363.781 L 123.536 365.162 123.536 369.112 L 123.536 373.062 122.581 372.934 C 121.332 372.766,121.336 372.774,123.357 374.662 C 141.949 392.021,166.683 407.313,184.366 412.381 C 203.665 417.911,220.396 413.325,248.268 394.866 C 253.944 391.106,263.009 384.568,266.667 381.594 C 267.258 381.113,269.354 379.440,271.323 377.875 C 277.085 373.298,280.139 370.607,280.486 369.801 C 281.343 367.812,281.550 368.113,278.253 366.555 C 276.612 365.779,275.269 365.040,275.269 364.912 C 275.269 364.785,275.601 363.944,276.007 363.045 C 287.586 337.410,297.964 291.798,300.817 254.002 C 301.927 239.292,301.733 217.168,300.355 201.314 C 299.079 186.632,297.949 177.072,296.047 164.875 C 292.397 141.462,285.945 112.060,280.053 91.995 C 278.710 87.420,277.826 84.301,276.105 78.057 L 274.864 73.556 275.485 73.318 C 275.826 73.186,276.938 72.846,277.955 72.561 C 280.323 71.898,280.417 72.029,276.165 70.071 C 258.044 61.728,236.565 55.938,216.010 53.856 C 212.488 53.499,196.315 53.213,192.354 53.438 M289.459 84.059 C 289.524 84.284,289.843 85.382,290.169 86.499 C 290.773 88.572,292.957 96.679,294.489 102.540 C 294.957 104.331,295.348 106.052,295.357 106.363 C 295.372 106.847,295.399 106.866,295.547 106.490 C 296.043 105.231,311.203 122.133,317.589 131.063 C 332.899 152.476,337.292 165.816,339.303 197.013 C 340.263 211.901,341.334 216.930,344.534 221.581 C 349.505 228.807,362.164 232.804,368.740 229.225 C 376.796 224.841,377.050 206.424,369.384 182.557 C 358.465 148.560,336.565 116.803,310.340 96.938 C 303.683 91.895,289.129 82.919,289.459 84.059 M96.323 114.005 C 96.176 114.427,96.097 114.815,96.148 114.866 C 96.199 114.917,96.361 114.613,96.509 114.191 C 96.656 113.769,96.735 113.381,96.683 113.330 C 96.632 113.279,96.470 113.583,96.323 114.005 M92.371 125.824 C 92.283 126.174,92.257 126.506,92.313 126.563 C 92.370 126.619,92.488 126.379,92.576 126.028 C 92.663 125.678,92.689 125.346,92.633 125.289 C 92.577 125.233,92.459 125.473,92.371 125.824 M84.404 162.724 C 84.404 163.184,84.453 163.372,84.514 163.142 C 84.574 162.912,84.574 162.536,84.514 162.306 C 84.453 162.076,84.404 162.264,84.404 162.724 M84.170 164.755 C 84.173 165.281,84.222 165.468,84.279 165.170 C 84.336 164.873,84.334 164.443,84.274 164.215 C 84.214 163.986,84.168 164.229,84.170 164.755 M83.931 167.145 C 83.934 167.670,83.983 167.857,84.040 167.560 C 84.097 167.263,84.095 166.833,84.035 166.604 C 83.975 166.376,83.929 166.619,83.931 167.145 M83.687 169.654 C 83.687 170.114,83.737 170.302,83.797 170.072 C 83.857 169.842,83.857 169.465,83.797 169.235 C 83.737 169.005,83.687 169.194,83.687 169.654 M83.449 172.521 C 83.449 172.981,83.498 173.169,83.558 172.939 C 83.618 172.709,83.618 172.333,83.558 172.103 C 83.498 171.873,83.449 172.061,83.449 172.521 M83.210 175.866 C 83.210 176.326,83.259 176.514,83.319 176.284 C 83.379 176.054,83.379 175.678,83.319 175.448 C 83.259 175.218,83.210 175.406,83.210 175.866 M82.989 180.526 C 82.991 181.314,83.035 181.608,83.088 181.179 C 83.142 180.749,83.140 180.104,83.086 179.745 C 83.031 179.386,82.988 179.737,82.989 180.526 M309.499 181.243 C 309.501 181.768,309.550 181.955,309.607 181.658 C 309.665 181.361,309.662 180.931,309.603 180.702 C 309.543 180.474,309.496 180.717,309.499 181.243 M309.733 183.274 C 309.733 183.734,309.782 183.922,309.842 183.692 C 309.902 183.462,309.902 183.085,309.842 182.855 C 309.782 182.625,309.733 182.814,309.733 183.274 M82.784 194.265 C 82.784 199.194,82.816 201.210,82.855 198.746 C 82.894 196.281,82.894 192.249,82.855 189.785 C 82.816 187.321,82.784 189.337,82.784 194.265 M311.171 197.252 C 311.174 197.778,311.223 197.965,311.280 197.667 C 311.337 197.370,311.335 196.940,311.275 196.712 C 311.215 196.483,311.169 196.726,311.171 197.252 M311.418 200.358 C 311.420 201.016,311.467 201.256,311.522 200.893 C 311.576 200.530,311.575 199.992,311.518 199.698 C 311.462 199.404,311.417 199.701,311.418 200.358 M311.663 203.704 C 311.664 204.492,311.709 204.786,311.762 204.357 C 311.815 203.927,311.814 203.282,311.760 202.923 C 311.705 202.564,311.662 202.915,311.663 203.704 M311.904 207.168 C 311.904 208.023,311.948 208.372,312.001 207.945 C 312.054 207.518,312.054 206.819,312.001 206.392 C 311.948 205.965,311.904 206.314,311.904 207.168 M82.997 209.438 C 82.998 210.490,83.040 210.890,83.090 210.328 C 83.141 209.766,83.140 208.906,83.089 208.417 C 83.038 207.927,82.996 208.387,82.997 209.438 M312.135 211.589 C 312.137 212.246,312.183 212.487,312.238 212.123 C 312.293 211.760,312.292 211.223,312.235 210.929 C 312.178 210.635,312.133 210.932,312.135 211.589 M312.384 216.368 C 312.385 217.288,312.429 217.635,312.480 217.139 C 312.532 216.643,312.531 215.891,312.478 215.467 C 312.426 215.042,312.383 215.448,312.384 216.368 M83.226 216.249 C 83.226 216.971,83.271 217.267,83.325 216.906 C 83.380 216.544,83.380 215.953,83.325 215.591 C 83.271 215.230,83.226 215.526,83.226 216.249 M83.467 222.103 C 83.468 222.891,83.513 223.185,83.566 222.756 C 83.619 222.326,83.618 221.681,83.564 221.322 C 83.509 220.963,83.466 221.314,83.467 222.103 M312.631 223.417 C 312.631 224.665,312.671 225.176,312.720 224.552 C 312.770 223.928,312.770 222.906,312.720 222.282 C 312.671 221.658,312.631 222.168,312.631 223.417 M83.709 227.240 C 83.709 228.094,83.752 228.444,83.805 228.017 C 83.858 227.590,83.858 226.891,83.805 226.464 C 83.752 226.036,83.709 226.386,83.709 227.240 M83.949 232.616 C 83.950 233.536,83.994 233.884,84.045 233.388 C 84.097 232.892,84.096 232.139,84.043 231.715 C 83.991 231.291,83.948 231.697,83.949 232.616 M84.188 237.395 C 84.189 238.315,84.233 238.662,84.284 238.167 C 84.336 237.671,84.335 236.918,84.282 236.494 C 84.230 236.070,84.187 236.476,84.188 237.395 M312.628 240.382 C 312.628 241.499,312.669 241.956,312.720 241.398 C 312.770 240.839,312.770 239.925,312.720 239.367 C 312.669 238.808,312.628 239.265,312.628 240.382 M84.420 240.860 C 84.420 241.583,84.465 241.879,84.520 241.517 C 84.575 241.156,84.575 240.565,84.520 240.203 C 84.465 239.842,84.420 240.137,84.420 240.860 M345.216 240.970 C 337.332 242.624,329.142 254.220,323.100 272.282 C 317.697 288.437,316.199 305.104,319.890 308.007 C 324.940 311.979,341.632 294.885,351.743 275.388 C 356.871 265.498,365.066 243.194,363.823 242.508 C 363.459 242.307,359.994 241.651,356.989 241.215 C 353.292 240.678,347.213 240.552,345.216 240.970 M84.648 243.847 C 84.651 244.373,84.700 244.560,84.757 244.262 C 84.814 243.965,84.812 243.535,84.752 243.307 C 84.692 243.078,84.645 243.321,84.648 243.847 M312.380 246.476 C 312.381 247.264,312.426 247.558,312.479 247.128 C 312.532 246.699,312.531 246.054,312.477 245.695 C 312.422 245.336,312.379 245.687,312.380 246.476 M312.132 250.657 C 312.132 251.249,312.179 251.490,312.236 251.195 C 312.292 250.899,312.292 250.415,312.236 250.119 C 312.179 249.824,312.132 250.066,312.132 250.657 M311.902 254.361 C 311.903 255.149,311.948 255.443,312.001 255.014 C 312.054 254.584,312.053 253.939,311.999 253.580 C 311.944 253.221,311.901 253.572,311.902 254.361 M86.077 256.631 C 86.077 257.091,86.126 257.279,86.186 257.049 C 86.246 256.819,86.246 256.443,86.186 256.213 C 86.126 255.983,86.077 256.171,86.077 256.631 M311.661 257.587 C 311.661 258.309,311.705 258.605,311.760 258.244 C 311.815 257.882,311.815 257.291,311.760 256.930 C 311.705 256.568,311.661 256.864,311.661 257.587 M86.316 258.542 C 86.316 259.002,86.365 259.191,86.425 258.961 C 86.485 258.731,86.485 258.354,86.425 258.124 C 86.365 257.894,86.316 258.082,86.316 258.542 M311.415 260.454 C 311.415 261.045,311.462 261.287,311.519 260.992 C 311.576 260.696,311.576 260.212,311.519 259.916 C 311.462 259.621,311.415 259.863,311.415 260.454 M309.733 275.508 C 309.733 275.968,309.782 276.156,309.842 275.926 C 309.902 275.696,309.902 275.320,309.842 275.090 C 309.782 274.860,309.733 275.048,309.733 275.508 M309.494 277.419 C 309.494 277.879,309.543 278.068,309.603 277.838 C 309.663 277.608,309.663 277.231,309.603 277.001 C 309.543 276.771,309.494 276.959,309.494 277.419 M104.693 341.935 C 104.693 342.133,104.785 342.509,104.898 342.772 C 105.028 343.073,105.104 343.117,105.104 342.891 C 105.104 342.694,105.011 342.318,104.898 342.055 C 104.769 341.754,104.693 341.710,104.693 341.935 M106.370 347.073 C 106.369 347.204,106.513 347.688,106.691 348.148 C 106.868 348.608,107.016 348.823,107.020 348.626 C 107.024 348.429,106.880 347.945,106.699 347.551 C 106.519 347.157,106.370 346.941,106.370 347.073 M293.327 348.524 C 293.239 348.874,293.213 349.206,293.269 349.263 C 293.325 349.319,293.443 349.079,293.531 348.728 C 293.619 348.378,293.645 348.046,293.589 347.989 C 293.532 347.933,293.414 348.173,293.327 348.524 M291.305 354.387 C 291.158 354.810,291.079 355.197,291.130 355.248 C 291.181 355.299,291.344 354.995,291.491 354.573 C 291.638 354.151,291.717 353.764,291.666 353.712 C 291.614 353.661,291.452 353.965,291.305 354.387 M289.154 360.122 C 289.007 360.544,288.929 360.932,288.980 360.983 C 289.031 361.034,289.193 360.730,289.340 360.308 C 289.487 359.886,289.566 359.498,289.515 359.447 C 289.464 359.396,289.302 359.700,289.154 360.122 M111.850 361.171 C 111.850 361.302,112.109 361.894,112.425 362.485 C 112.742 363.076,113.001 363.453,113.001 363.321 C 113.001 363.190,112.742 362.599,112.425 362.007 C 112.109 361.416,111.850 361.039,111.850 361.171 " stroke="none" fill="#a4ccbd" fill-rule="evenodd"></path><path id="path1" d="M199.833 53.225 C 200.989 53.269,202.817 53.268,203.895 53.224 C 204.972 53.180,204.026 53.144,201.792 53.144 C 199.558 53.145,198.676 53.181,199.833 53.225 M191.219 53.460 C 191.711 53.511,192.518 53.511,193.011 53.460 C 193.504 53.408,193.100 53.366,192.115 53.366 C 191.129 53.366,190.726 53.408,191.219 53.460 M209.976 53.454 C 210.272 53.511,210.756 53.511,211.051 53.454 C 211.347 53.397,211.105 53.351,210.514 53.351 C 209.922 53.351,209.680 53.397,209.976 53.454 M187.280 53.698 C 187.710 53.751,188.355 53.750,188.714 53.695 C 189.073 53.641,188.722 53.597,187.933 53.599 C 187.145 53.600,186.851 53.644,187.280 53.698 M213.683 53.696 C 214.046 53.751,214.584 53.749,214.878 53.693 C 215.172 53.636,214.875 53.591,214.217 53.593 C 213.560 53.595,213.320 53.641,213.683 53.696 M184.289 53.935 C 184.651 53.989,185.242 53.989,185.603 53.935 C 185.965 53.880,185.669 53.835,184.946 53.835 C 184.223 53.835,183.928 53.880,184.289 53.935 M216.431 53.932 C 216.728 53.990,217.158 53.987,217.386 53.928 C 217.615 53.868,217.372 53.821,216.846 53.824 C 216.320 53.826,216.133 53.875,216.431 53.932 M181.664 54.174 C 182.027 54.229,182.565 54.227,182.859 54.171 C 183.153 54.114,182.855 54.069,182.198 54.071 C 181.541 54.073,181.301 54.119,181.664 54.174 M218.698 54.167 C 218.928 54.227,219.304 54.227,219.534 54.167 C 219.764 54.107,219.576 54.058,219.116 54.058 C 218.656 54.058,218.468 54.107,218.698 54.167 M179.391 54.410 C 179.686 54.467,180.170 54.467,180.466 54.410 C 180.762 54.353,180.520 54.306,179.928 54.306 C 179.337 54.306,179.095 54.353,179.391 54.410 M177.360 54.645 C 177.590 54.705,177.966 54.705,178.196 54.645 C 178.426 54.585,178.238 54.536,177.778 54.536 C 177.318 54.536,177.130 54.585,177.360 54.645 M241.935 58.239 C 248.191 59.795,260.469 63.627,265.116 65.473 C 266.134 65.877,267.008 66.166,267.060 66.114 C 267.573 65.601,243.555 57.964,241.831 58.092 C 241.592 58.110,241.629 58.163,241.935 58.239 M275.747 69.892 C 276.075 70.080,276.452 70.234,276.583 70.234 C 276.714 70.234,276.553 70.080,276.225 69.892 C 275.896 69.705,275.520 69.551,275.388 69.551 C 275.257 69.551,275.418 69.705,275.747 69.892 M287.305 76.165 C 287.372 76.395,287.871 78.142,288.416 80.048 C 288.979 82.021,289.577 83.646,289.804 83.822 C 290.024 83.992,292.165 85.245,294.564 86.608 C 318.843 100.403,338.248 120.415,354.004 147.909 C 372.484 180.158,380.429 217.339,370.995 227.425 C 365.353 233.457,350.438 230.163,344.534 221.581 C 341.334 216.930,340.263 211.901,339.303 197.013 C 337.292 165.816,332.899 152.476,317.589 131.063 C 311.919 123.135,296.004 105.176,295.634 106.289 C 295.589 106.423,296.033 108.504,296.620 110.913 C 312.984 178.036,316.702 232.643,308.487 285.208 C 304.097 313.298,295.891 345.026,288.662 361.862 C 287.724 364.047,287.111 364.547,297.825 354.372 C 334.213 319.810,366.928 276.871,377.108 250.311 C 380.709 240.916,381.376 235.173,380.423 221.744 C 376.156 161.560,342.889 108.006,290.936 77.690 C 287.400 75.627,287.115 75.507,287.305 76.165 M107.291 78.752 C 63.126 105.375,32.851 148.224,22.721 198.447 C 19.995 211.962,18.411 231.914,19.562 238.232 C 24.322 264.356,71.675 328.722,113.252 365.583 L 114.963 367.100 114.080 365.594 C 104.572 349.371,90.466 293.616,85.672 253.311 C 84.598 244.280,84.190 239.103,83.758 229.032 C 83.561 224.432,83.269 217.712,83.109 214.098 C 81.222 171.482,85.158 143.831,97.971 109.677 C 98.785 107.509,99.753 104.928,100.122 103.943 C 101.922 99.143,105.294 91.043,110.500 79.009 C 111.117 77.583,111.583 76.378,111.536 76.331 C 111.489 76.284,109.579 77.373,107.291 78.752 M356.989 241.215 C 359.994 241.651,363.459 242.307,363.823 242.508 C 365.066 243.194,356.871 265.498,351.743 275.388 C 341.632 294.885,324.940 311.979,319.890 308.007 C 314.072 303.431,321.090 270.383,331.468 253.489 C 338.574 241.922,343.975 239.324,356.989 241.215 M258.901 387.476 L 258.184 388.092 258.961 387.578 C 259.388 387.295,259.737 387.018,259.737 386.961 C 259.737 386.782,259.636 386.844,258.901 387.476 M256.272 389.388 L 255.556 390.004 256.332 389.490 C 256.759 389.207,257.109 388.929,257.109 388.873 C 257.109 388.694,257.008 388.756,256.272 389.388 M244.743 397.160 C 243.929 397.682,243.665 398.032,244.385 397.636 C 244.933 397.335,245.792 396.671,245.639 396.666 C 245.573 396.664,245.170 396.887,244.743 397.160 M242.832 398.355 C 242.017 398.876,241.754 399.227,242.473 398.831 C 243.021 398.530,243.880 397.866,243.728 397.861 C 243.662 397.859,243.259 398.081,242.832 398.355 M236.858 401.937 C 236.168 402.339,235.603 402.723,235.603 402.790 C 235.603 402.923,237.728 401.741,238.100 401.402 C 238.505 401.032,238.137 401.191,236.858 401.937 M233.871 403.600 C 233.115 403.990,232.497 404.362,232.497 404.428 C 232.497 404.493,233.142 404.221,233.931 403.823 C 234.719 403.425,235.364 403.047,235.364 402.983 C 235.364 402.824,235.409 402.806,233.871 403.600 M228.674 406.332 C 227.031 407.173,225.769 407.866,225.870 407.873 C 226.124 407.890,231.780 405.042,231.780 404.897 C 231.780 404.733,231.971 404.645,228.674 406.332 M224.134 408.483 C 223.805 408.670,223.644 408.824,223.775 408.824 C 223.907 408.824,224.283 408.670,224.612 408.483 C 224.940 408.295,225.102 408.141,224.970 408.141 C 224.839 408.141,224.462 408.295,224.134 408.483 M195.759 414.741 C 195.989 414.801,196.365 414.801,196.595 414.741 C 196.825 414.680,196.637 414.631,196.177 414.631 C 195.717 414.631,195.529 414.680,195.759 414.741 " stroke="none" fill="#3ba393" fill-rule="evenodd"></path><path id="path2" d="M281.019 368.519 C 280.213 370.564,280.010 370.777,274.543 375.309 L 272.503 377.000 271.580 383.781 C 270.629 390.765,270.423 392.129,268.963 401.075 C 268.491 403.967,268.107 406.655,268.110 407.049 C 268.113 407.443,267.685 410.723,267.159 414.337 C 266.036 422.059,264.239 434.893,263.663 439.307 C 263.440 441.016,263.212 442.535,263.155 442.684 C 263.005 443.080,261.836 443.214,256.137 443.487 C 253.320 443.622,250.585 443.787,250.060 443.853 C 248.828 444.009,240.888 444.574,233.572 445.027 C 230.418 445.223,223.026 445.457,217.145 445.548 L 206.452 445.713 206.451 441.196 C 206.451 438.711,206.380 431.759,206.293 425.747 L 206.135 414.815 200.000 414.815 L 193.865 414.815 193.707 425.747 C 193.620 431.759,193.549 438.641,193.549 441.039 L 193.548 445.400 190.263 445.398 C 188.456 445.396,184.289 445.238,181.004 445.046 C 161.622 443.915,153.617 443.472,148.507 443.248 C 139.958 442.873,140.024 442.883,140.024 441.922 C 140.024 441.489,139.643 438.627,139.178 435.561 C 138.713 432.496,138.243 429.020,138.134 427.838 C 137.930 425.630,136.578 415.780,135.085 405.615 C 134.621 402.461,133.688 395.860,133.011 390.946 L 131.780 382.011 128.394 379.109 C 126.532 377.512,124.166 375.406,123.137 374.427 C 122.108 373.448,120.852 372.458,120.346 372.226 C 119.840 371.995,119.001 371.469,118.482 371.058 C 117.565 370.332,117.542 370.327,117.667 370.878 C 117.738 371.190,118.123 373.973,118.523 377.061 C 118.923 380.149,119.408 383.782,119.601 385.133 C 119.794 386.484,119.949 388.097,119.946 388.717 C 119.943 389.337,120.369 392.909,120.894 396.655 C 121.807 403.176,122.856 410.921,124.971 426.762 C 125.506 430.771,126.240 436.219,126.601 438.869 L 127.258 443.687 125.866 444.957 C 120.971 449.423,119.937 461.725,123.309 475.376 C 123.697 476.946,124.013 478.398,124.012 478.602 C 124.010 479.107,125.730 484.736,127.046 488.530 C 129.060 494.334,130.637 498.136,133.144 503.226 C 134.051 505.067,134.576 506.044,136.440 509.354 C 137.241 510.777,139.410 514.133,140.213 515.191 C 140.569 515.661,141.195 516.490,141.603 517.033 C 142.012 517.575,142.891 518.616,143.557 519.344 L 144.768 520.669 201.172 520.669 L 257.577 520.669 258.509 519.654 C 259.021 519.095,260.036 517.885,260.765 516.965 C 261.494 516.045,262.401 514.916,262.783 514.456 C 264.163 512.790,270.012 503.629,270.012 503.134 C 270.012 503.033,270.423 502.233,270.926 501.356 C 271.428 500.479,272.357 498.632,272.990 497.252 C 273.623 495.872,274.485 493.990,274.907 493.070 C 275.329 492.151,275.808 490.968,275.972 490.442 C 276.137 489.916,276.680 488.357,277.181 486.977 C 283.834 468.627,283.921 451.178,277.390 444.917 C 275.926 443.513,275.930 443.680,277.180 435.664 C 277.706 432.294,278.135 429.208,278.134 428.806 C 278.132 428.405,278.614 424.797,279.204 420.789 C 281.321 406.416,282.207 400.109,282.203 399.457 C 282.200 399.093,282.671 395.706,283.249 391.930 C 283.827 388.155,284.300 384.582,284.299 383.990 C 284.298 383.399,284.683 380.119,285.155 376.703 C 285.627 373.286,286.083 369.979,286.169 369.355 C 286.348 368.052,286.005 367.823,285.544 368.937 C 285.182 369.810,285.398 369.821,283.224 368.817 C 281.079 367.826,281.281 367.853,281.019 368.519 " stroke="none" fill="#d3742c" fill-rule="evenodd"></path><path id="path3" d="M187.336 38.506 C 182.224 38.780,176.837 39.338,172.359 40.058 C 170.280 40.392,167.826 40.746,166.906 40.845 C 163.228 41.240,151.113 44.044,145.014 45.911 C 143.356 46.419,141.876 46.834,141.725 46.834 C 141.477 46.834,139.140 47.627,133.692 49.562 C 132.640 49.936,131.075 50.485,130.213 50.783 C 129.351 51.080,127.791 51.696,126.748 52.152 C 122.097 54.181,121.210 54.558,120.311 54.884 C 117.908 55.757,103.604 63.109,101.438 64.585 C 100.915 64.941,100.399 65.233,100.291 65.233 C 100.184 65.233,99.449 65.663,98.657 66.189 C 97.866 66.714,97.153 67.145,97.073 67.145 C 96.948 67.145,95.491 68.077,92.378 70.149 C 91.998 70.402,91.119 70.986,90.426 71.446 C 89.140 72.299,86.429 74.207,84.249 75.794 C 83.581 76.279,82.766 76.869,82.437 77.104 C 82.109 77.339,80.818 78.336,79.570 79.320 C 78.321 80.304,77.192 81.189,77.061 81.287 C 76.804 81.478,75.052 82.925,73.210 84.468 C 66.774 89.860,55.992 100.525,51.732 105.713 C 51.207 106.353,50.338 107.373,49.802 107.978 C 48.596 109.342,46.129 112.392,44.562 114.456 C 43.914 115.311,43.246 116.152,43.078 116.325 C 42.910 116.499,42.772 116.715,42.772 116.805 C 42.772 116.895,42.288 117.559,41.697 118.280 C 41.105 119.001,40.621 119.676,40.621 119.781 C 40.621 119.886,40.423 120.185,40.182 120.444 C 39.493 121.183,32.497 131.699,32.497 131.995 C 32.497 132.061,32.159 132.615,31.747 133.226 C 31.334 133.837,30.736 134.837,30.416 135.448 C 30.097 136.059,29.314 137.473,28.676 138.590 C 28.039 139.707,27.069 141.481,26.521 142.533 C 25.974 143.584,25.443 144.552,25.342 144.683 C 24.938 145.209,18.399 159.473,18.399 159.828 C 18.399 159.943,18.116 160.668,17.770 161.440 C 17.424 162.212,16.796 163.811,16.374 164.994 C 15.952 166.177,15.336 167.897,15.006 168.817 C 13.542 172.899,10.561 182.592,10.290 184.158 C 10.180 184.789,9.701 186.864,9.225 188.769 C 8.219 192.795,6.785 199.738,6.446 202.221 C 6.316 203.168,5.943 205.878,5.616 208.244 C 4.325 217.588,3.653 232.194,4.259 237.754 C 4.529 240.230,5.767 244.762,7.098 248.148 C 7.563 249.331,8.098 250.729,8.287 251.254 C 9.156 253.669,15.127 265.718,16.013 266.845 C 16.274 267.176,16.487 267.554,16.487 267.683 C 16.487 267.813,16.889 268.578,17.381 269.383 C 17.872 270.189,18.436 271.141,18.635 271.499 C 19.894 273.767,20.963 275.533,21.660 276.496 C 22.101 277.105,22.461 277.667,22.461 277.745 C 22.461 277.824,22.864 278.496,23.357 279.239 C 23.850 279.982,24.360 280.764,24.490 280.976 C 24.620 281.188,25.534 282.587,26.521 284.085 C 27.508 285.582,28.530 287.160,28.793 287.590 C 29.426 288.626,31.023 290.928,34.648 296.032 C 35.912 297.813,38.269 301.046,39.005 302.011 C 39.365 302.482,40.010 303.359,40.439 303.959 C 42.498 306.841,44.322 309.200,44.494 309.200 C 44.598 309.200,44.683 309.337,44.683 309.505 C 44.683 309.673,45.026 310.183,45.444 310.640 C 45.863 311.096,46.481 311.855,46.818 312.327 C 47.901 313.842,51.715 318.604,52.270 319.135 C 52.566 319.417,52.808 319.751,52.808 319.875 C 52.808 320.000,53.142 320.418,53.551 320.804 C 53.960 321.190,54.525 321.843,54.806 322.256 C 55.087 322.669,56.930 324.910,58.901 327.236 C 60.872 329.562,62.769 331.831,63.115 332.278 C 63.462 332.726,64.053 333.407,64.430 333.792 C 64.806 334.177,65.505 334.957,65.985 335.526 C 67.459 337.275,75.738 346.498,77.422 348.268 C 78.298 349.188,79.704 350.683,80.547 351.590 C 82.369 353.552,99.622 370.821,101.817 372.879 C 105.513 376.345,109.008 379.535,111.111 381.364 C 112.360 382.450,114.621 384.436,116.136 385.778 C 120.503 389.646,120.229 389.844,119.371 383.434 C 119.051 381.046,118.542 377.216,118.239 374.922 C 117.816 371.714,117.579 370.603,117.208 370.105 C 115.385 367.656,114.730 366.923,112.745 365.114 C 75.219 330.908,35.001 278.980,22.991 249.223 C 19.906 241.581,19.219 238.218,19.286 231.098 C 19.872 168.912,53.974 110.164,107.940 78.375 L 111.794 76.105 112.509 74.432 C 113.518 72.070,114.723 69.534,114.836 69.534 C 114.889 69.534,116.011 70.035,117.331 70.648 L 119.731 71.761 123.485 69.947 C 169.845 47.548,228.728 47.661,276.884 70.242 C 280.485 71.930,280.042 71.879,283.008 70.952 C 285.775 70.087,285.441 69.880,286.402 73.054 C 286.828 74.462,287.283 75.650,287.413 75.693 C 289.020 76.229,300.823 83.739,306.129 87.602 C 349.722 119.343,376.605 167.881,380.423 221.744 C 381.376 235.173,380.709 240.916,377.108 250.311 C 366.497 277.996,331.667 323.041,293.328 358.662 C 290.712 361.093,288.422 363.248,288.241 363.451 C 287.512 364.267,286.227 367.641,286.151 368.937 C 286.075 370.239,284.474 382.283,284.201 383.601 C 284.001 384.570,284.467 384.269,287.918 381.203 C 295.117 374.805,298.663 371.616,300.239 370.121 C 301.290 369.123,304.032 366.521,306.332 364.337 C 313.818 357.229,326.729 343.948,333.943 335.936 C 335.943 333.715,337.522 331.932,338.198 331.130 C 338.611 330.641,339.325 329.830,339.785 329.329 C 340.245 328.827,340.889 328.099,341.215 327.709 C 341.542 327.320,343.082 325.496,344.636 323.656 C 346.191 321.816,347.859 319.839,348.343 319.262 C 348.827 318.686,349.604 317.772,350.070 317.231 C 350.536 316.691,351.073 316.019,351.265 315.737 C 351.565 315.297,356.607 308.944,358.225 306.967 C 358.531 306.594,358.996 305.991,359.259 305.629 C 360.424 304.021,362.588 301.184,362.732 301.075 C 362.819 301.010,363.149 300.569,363.464 300.097 C 363.780 299.624,364.862 298.119,365.868 296.751 C 369.144 292.300,369.654 291.570,369.654 291.332 C 369.654 291.203,369.831 290.950,370.049 290.770 C 370.266 290.590,371.016 289.582,371.715 288.530 C 372.413 287.479,373.136 286.404,373.320 286.141 C 374.219 284.861,377.778 279.317,377.778 279.197 C 377.778 279.122,378.033 278.718,378.345 278.299 C 378.657 277.881,379.196 277.022,379.543 276.390 C 379.890 275.758,380.548 274.684,381.007 274.004 C 381.465 273.323,381.840 272.682,381.840 272.578 C 381.840 272.474,382.270 271.709,382.796 270.876 C 383.321 270.044,383.751 269.286,383.751 269.193 C 383.751 269.099,384.235 268.226,384.827 267.251 C 385.418 266.277,385.902 265.365,385.902 265.224 C 385.902 265.083,386.332 264.255,386.858 263.383 C 387.384 262.512,387.814 261.697,387.814 261.573 C 387.814 261.449,388.294 260.367,388.880 259.169 C 390.449 255.962,391.385 253.838,392.000 252.091 C 392.301 251.237,392.872 249.624,393.270 248.507 C 394.148 246.045,395.342 241.574,395.718 239.346 C 396.108 237.036,395.856 220.305,395.366 216.010 C 393.741 201.751,391.819 191.323,389.090 181.959 C 388.630 180.382,388.095 178.447,387.901 177.658 C 387.707 176.870,387.187 175.203,386.744 173.955 C 386.302 172.706,385.873 171.377,385.790 171.001 C 385.548 169.895,382.288 161.348,380.719 157.706 C 378.896 153.476,375.370 146.023,373.847 143.184 C 371.419 138.658,370.508 137.028,370.072 136.429 C 369.842 136.113,369.653 135.745,369.653 135.610 C 369.653 135.475,369.169 134.629,368.578 133.729 C 367.987 132.830,367.503 132.014,367.503 131.916 C 367.503 131.819,367.073 131.138,366.547 130.404 C 366.022 129.670,365.591 129.015,365.591 128.948 C 365.591 128.882,365.135 128.147,364.577 127.317 C 364.020 126.486,363.455 125.624,363.323 125.401 C 362.821 124.555,360.071 120.679,359.733 120.340 C 359.538 120.146,359.379 119.896,359.379 119.786 C 359.379 119.675,358.949 119.065,358.423 118.428 C 357.897 117.792,357.467 117.203,357.467 117.119 C 357.467 117.034,357.225 116.682,356.929 116.335 C 356.634 115.989,355.404 114.430,354.197 112.871 C 352.990 111.311,351.353 109.283,350.559 108.363 C 349.766 107.443,348.751 106.260,348.305 105.735 C 343.003 99.485,333.480 90.073,326.790 84.468 C 325.041 83.003,323.205 81.485,322.939 81.284 C 322.808 81.184,321.684 80.303,320.442 79.325 C 317.967 77.375,317.314 76.884,315.532 75.631 C 314.875 75.170,313.584 74.253,312.664 73.594 C 311.744 72.935,309.916 71.685,308.602 70.817 C 307.288 69.949,305.512 68.767,304.656 68.191 C 303.800 67.616,303.028 67.145,302.941 67.145 C 302.853 67.145,302.134 66.714,301.343 66.189 C 300.551 65.663,299.805 65.233,299.685 65.233 C 299.565 65.233,299.207 65.028,298.889 64.778 C 297.522 63.703,280.559 54.958,279.841 54.958 C 279.700 54.958,278.705 54.528,277.629 54.002 C 276.553 53.477,275.544 53.047,275.385 53.047 C 275.227 53.047,274.266 52.662,273.250 52.193 C 272.233 51.723,270.686 51.092,269.811 50.790 C 268.936 50.488,267.360 49.936,266.308 49.562 C 260.860 47.627,258.523 46.834,258.275 46.834 C 258.124 46.834,256.644 46.419,254.986 45.911 C 248.901 44.048,236.794 41.245,233.094 40.843 C 232.174 40.743,229.377 40.339,226.878 39.946 C 217.082 38.405,200.505 37.801,187.336 38.506 M267.384 381.161 C 248.985 395.558,233.093 405.322,219.355 410.670 C 214.170 412.688,210.027 413.786,204.301 414.659 C 203.973 414.709,204.268 414.764,204.958 414.782 L 206.213 414.815 206.213 422.105 L 206.213 429.395 207.587 429.249 C 210.017 428.992,215.616 427.448,219.260 426.029 C 220.587 425.512,221.796 425.090,221.947 425.090 C 222.871 425.090,237.222 418.008,240.502 415.933 C 241.159 415.518,242.098 414.962,242.589 414.698 C 244.134 413.867,247.158 412.012,248.015 411.370 C 248.468 411.030,248.930 410.753,249.041 410.753 C 249.153 410.753,249.804 410.348,250.488 409.853 C 251.172 409.358,252.026 408.803,252.385 408.620 C 252.745 408.437,253.229 408.115,253.461 407.906 C 253.693 407.696,255.066 406.731,256.511 405.762 C 257.957 404.793,259.409 403.758,259.737 403.463 C 260.066 403.167,260.573 402.803,260.864 402.654 C 261.353 402.402,265.400 399.445,267.818 397.573 C 269.983 395.896,269.886 396.082,270.347 392.707 C 270.581 391.002,271.143 386.931,271.597 383.663 C 272.050 380.394,272.390 377.631,272.352 377.524 C 272.313 377.416,270.078 379.053,267.384 381.161 M131.900 382.571 C 131.900 382.960,134.037 399.080,134.181 399.777 C 134.294 400.324,135.494 401.427,137.282 402.628 C 138.245 403.276,141.082 405.317,141.981 406.011 C 142.466 406.385,142.950 406.693,143.056 406.696 C 143.163 406.699,143.519 406.918,143.847 407.182 C 144.660 407.837,148.843 410.611,149.582 410.987 C 149.910 411.154,150.394 411.478,150.657 411.708 C 150.920 411.938,151.669 412.419,152.322 412.778 C 152.975 413.136,153.962 413.741,154.516 414.122 C 155.069 414.503,155.612 414.815,155.722 414.815 C 155.832 414.815,156.325 415.088,156.817 415.423 C 158.323 416.446,168.971 421.957,170.848 422.684 C 171.308 422.863,172.480 423.372,173.453 423.817 C 174.426 424.262,175.770 424.800,176.440 425.012 C 177.110 425.225,178.265 425.648,179.007 425.953 C 181.672 427.050,189.469 429.038,191.935 429.251 L 193.787 429.411 193.787 422.113 L 193.787 414.815 194.683 414.787 C 195.176 414.771,194.450 414.609,193.070 414.427 C 177.280 412.343,155.488 401.119,134.582 384.302 C 132.003 382.227,131.900 382.160,131.900 382.571 " stroke="none" fill="#1c544c" fill-rule="evenodd"></path><path id="path4" d="M113.608 72.342 C 112.982 73.754,111.992 75.986,111.407 77.300 C 106.759 87.753,101.094 101.499,98.359 108.961 C 89.127 134.145,85.558 149.581,83.497 173.238 C 82.025 190.134,83.393 234.248,86.038 255.197 C 88.908 277.922,93.687 301.507,100.952 328.793 C 108.509 357.178,115.788 372.022,122.597 372.936 L 123.536 373.062 123.536 369.112 L 123.536 365.162 124.465 363.781 L 125.393 362.399 124.458 361.029 C 113.454 344.908,96.923 271.184,94.995 229.630 C 92.045 166.036,95.179 145.264,115.004 97.013 C 116.045 94.479,118.987 87.620,120.794 83.513 C 121.546 81.804,122.514 79.589,122.945 78.590 C 123.377 77.591,123.955 76.331,124.230 75.792 C 125.119 74.049,125.574 74.405,118.655 71.417 C 116.561 70.513,114.825 69.773,114.797 69.773 C 114.769 69.773,114.234 70.929,113.608 72.342 M283.393 70.985 C 282.539 71.238,280.711 71.762,279.331 72.150 C 276.103 73.055,274.901 73.494,274.947 73.749 C 275.099 74.606,277.388 82.779,279.924 91.517 C 289.209 123.521,297.016 164.070,299.751 194.504 C 300.457 202.356,300.610 204.275,300.972 209.797 C 304.201 259.034,293.786 322.720,275.852 363.412 C 275.223 364.838,275.206 364.955,275.595 365.239 C 276.126 365.627,285.088 369.711,285.188 369.610 C 285.230 369.568,285.656 368.620,286.135 367.503 C 286.615 366.386,287.288 364.827,287.630 364.038 C 297.501 341.337,306.904 301.755,310.876 266.189 C 315.004 229.227,311.889 183.346,302.002 135.484 C 297.674 114.534,293.626 98.282,287.658 77.897 C 285.696 71.196,285.462 70.490,285.207 70.507 C 285.064 70.516,284.247 70.731,283.393 70.985 " stroke="none" fill="#f9eb91" fill-rule="evenodd"></path></g></svg>