<?xml version="1.0" encoding="UTF-8" standalone="no"?>
<svg
   xmlns:dc="http://purl.org/dc/elements/1.1/"
   xmlns:cc="http://creativecommons.org/ns#"
   xmlns:rdf="http://www.w3.org/1999/02/22-rdf-syntax-ns#"
   xmlns:svg="http://www.w3.org/2000/svg"
   xmlns="http://www.w3.org/2000/svg"
   viewBox="0 0 1440 2560"
   height="2560"
   width="1440"
   xml:space="preserve"
   id="svg2"
   version="1.1"><metadata
     id="metadata8"><rdf:RDF><cc:Work
         rdf:about=""><dc:format>image/svg+xml</dc:format><dc:type
           rdf:resource="http://purl.org/dc/dcmitype/StillImage" /></cc:Work></rdf:RDF></metadata><defs
     id="defs6"><linearGradient
       id="linearGradient34"
       spreadMethod="pad"
       gradientTransform="matrix(0,2003.4766,2003.4766,0,540,0)"
       gradientUnits="userSpaceOnUse"
       y2="0"
       x2="1"
       y1="0"
       x1="0"><stop
         id="stop24"
         offset="0"
         style="stop-opacity:1;stop-color:#0dabbf" /><stop
         id="stop26"
         offset="0.349139"
         style="stop-opacity:1;stop-color:#fbf889" /><stop
         id="stop28"
         offset="0.61252"
         style="stop-opacity:1;stop-color:#f9ab59" /><stop
         id="stop30"
         offset="0.996775"
         style="stop-opacity:1;stop-color:#f36425" /><stop
         id="stop32"
         offset="1"
         style="stop-opacity:1;stop-color:#f36425" /></linearGradient><clipPath
       id="clipPath44"
       clipPathUnits="userSpaceOnUse"><path
         id="path42"
         d="M 0,1920 H 1080 V 0 H 0 Z" /></clipPath><clipPath
       id="clipPath52"
       clipPathUnits="userSpaceOnUse"><path
         id="path50"
         d="m -24.5,1963.56 h 1129 V -43.5555 h -1129 z" /></clipPath><clipPath
       id="clipPath64"
       clipPathUnits="userSpaceOnUse"><path
         id="path62"
         d="M 0,1920 H 1080 V 0 H 0 Z" /></clipPath><clipPath
       id="clipPath80"
       clipPathUnits="userSpaceOnUse"><path
         id="path78"
         d="M 0,1920 H 1080 V 0 H 0 Z" /></clipPath></defs><g
     transform="matrix(1.3333333,0,0,-1.3333333,0,2560)"
     id="g10"><g
       id="g12"><g
         id="g14"><g
           id="g20"><g
             id="g22"><path
               id="path36"
               style="fill:url(#linearGradient34);stroke:none"
               d="M 0,0 H 1080 V 1920 H 0 Z" /></g></g></g></g><g
       id="g38"><g
         clip-path="url(#clipPath44)"
         id="g40"><g
           id="g46"><g
             id="g48" /><g
             id="g56"><g
               style="opacity:0.77000397"
               id="g54"
               clip-path="url(#clipPath52)" /></g></g></g></g><g
       id="g58"><g
         clip-path="url(#clipPath64)"
         id="g60"><g
           transform="translate(1,1793)"
           id="g66"><path
             id="path68"
             style="fill:#fbc58a;fill-opacity:1;fill-rule:nonzero;stroke:none"
             d="m 0,0 c 0.857,28.298 33.602,-18.542 68,44 22,40 78,29.552 96,2 18.335,-28.066 43.619,37.784 74.81,24.892 C 259.189,62.468 258.769,44.912 300,16 c 11.604,-8.137 6,-60 40,-48 23.443,8.274 76.483,44.068 78,27 4,-45 57.221,-22.908 68,-23 33.637,-0.288 79.811,-34.372 102,-14 22.189,20.373 24,-10 56,44 12.406,20.936 66,26 70,-32 1.021,-14.799 65.893,-84.821 62,-56 -3.872,28.668 -24,-60 42,-110 17.364,-13.155 -17.267,-58.762 -40.181,-51.904 C 718,-230 752,-306 692,-280 c -19.995,8.665 -39.214,-2.323 -56.151,1.38 -16.938,3.703 52.598,98.62 -51.776,18.045 -24.011,-18.535 -81.729,-2.188 -110.829,39.989 C 448,-184 434.795,-220.327 418,-208 c -43.599,32 -70.251,-71.78 -86.276,-20 -10.245,33.103 -91.724,42 -59.724,20 20.723,-14.247 -58,-82 -47.376,-30.505 3.267,15.836 -25.085,-20.89 -50.624,-29.495 -10.929,-3.682 -22,18 -71.891,-10.641 C 88.455,-286.479 70,-228 28,-258 c -4.869,-3.478 -30,11.767 -30,50 0,69 0,142 2,208" /></g><g
           transform="translate(319.6738,1313)"
           id="g70"><path
             id="path72"
             style="fill:#fbc58a;fill-opacity:1;fill-rule:nonzero;stroke:none"
             d="m 0,0 v 0 c 35.156,11.211 40,16 40,16 13.027,12.876 2.655,24.935 14,40 8.072,10.718 31.396,-14.558 64,22 33.89,38 40.884,12.976 46,8 11.285,-10.975 -13.017,-47.277 -6,-52 7.895,-5.313 46.264,35.513 58,48 21.006,22.35 22.048,37.917 32,32 40.366,-24 76.703,5.119 80,-10 2.724,-12.487 -8.826,-8.293 -5.011,-14.651 C 349,46 348.455,74.063 372.634,75.345 414.807,77.579 416.288,57.77 426,68 c 38.447,40.5 -12.044,40.279 -2,50 11.771,11.392 50,24 86,-16 16.518,-18.353 47.254,2.25 48,26 1.823,58 49.974,-54.664 66,-24 24,45.92 96,56 120,10 6.693,-12.829 20.423,-1.296 19.976,-11.41 -1.773,-40.049 -1.773,-40.049 -3.37,-92.59 -0.848,-27.93 7.621,-53.726 -0.715,-81.995 -6.565,-22.26 8.721,-34.623 -5.891,-50.005 -16.504,-17.374 -48.175,-36.323 -68,-26 -19.604,10.208 -10.652,40.201 -32,56 -4.434,3.281 -44,-28 -60,2 -21.795,40.866 -34.177,-12 -74,-16 -17.041,-1.712 48.775,-2.412 18,-70 -5.151,-11.313 -16,-42.227 -40,-24.716 -22.731,16.585 -56,-33.284 -60,0.716 -2.141,18.195 26.447,58 -20,62 -20.129,1.733 -11.06,38.967 -20,34 -36,-20 -92,22 -86,-12 3.772,-21.378 -59.192,-34.595 -54,-22 1.521,3.687 -22,-2 -52,-40 -14.503,-18.371 -34.709,25.616 -42,26 -38,2 4,56 -24,42 -26.167,-13.084 -76,-10 -74,28 0.429,8.155 -22,34 -50,0 -38.553,-46.814 -64.354,5.891 -74,2 -34.71,-14 -68.746,59.693 -34,74 34,14 -8.747,37.458 -1.324,44 C -78.186,51.343 -33.66,25.27 0,0" /></g></g></g><g
       id="g74"><g
         clip-path="url(#clipPath80)"
         id="g76"><g
           transform="translate(3,413)"
           id="g82"><path
             id="path84"
             style="fill:#f6853d;fill-opacity:1;fill-rule:nonzero;stroke:none"
             d="M 0,0 C 0,43 -3.053,86.464 22.607,95.953 66,112 49.864,148.966 78,156 c 18.509,4.627 41.646,7.475 43.191,22.742 C 128,246 143.731,207.377 154,228 c 16.322,32.779 6,100.511 36,72 10.995,-10.449 42,18.437 42,-4 0,-30 30.579,67.063 44,60 8.416,-4.43 20,-54 34,-68 22.907,-22.907 -2.516,-70.113 40,-102 32,-24 20.463,-33.947 28.936,-45.308 C 406.776,103.367 396.298,76.854 426,70 452,64 395.064,4.22 410,-36 c 11.167,-30.069 58,-24 66,-64 8.233,-41.167 56.599,-10.271 56,-30 -1.726,-56.815 42.755,-60.902 16,-108 -13.634,-24 26,-46 26,-46 12.03,-19.203 -1.132,-52.185 50.381,-67.202 C 682,-368 733.099,-412.065 700,-412.065 601.684,-412.065 -3,-413 -3,-413 c 0,0 3,292.019 3,413" /></g><g
           transform="translate(-6.0483,71)"
           id="g86"><path
             id="path88"
             style="fill:#fbc58a;fill-opacity:1;fill-rule:nonzero;stroke:none"
             d="M 0,0 C 1.396,30.003 -13.794,97.094 -3,108.032 1.544,112.637 -9.113,82.395 19.576,85.947 19.846,85.981 19.991,85.998 20,86 33.528,66.941 47.303,53.167 58,56 c 11.617,3.076 -12,32 24,34 24.394,1.355 56.115,6.625 66.371,1.218 0.743,-0.393 1.906,-1.068 3.629,-1.218 9.732,-0.85 13.627,17.113 22,18 8.509,0.9 10.669,-16.995 28,-32 2.718,-2.353 2.132,2 40,14 13.41,4.249 20.583,-19.392 32,-20 6.069,-0.323 -6,-32 34,-20 12.526,3.758 17.188,-10.174 18,-12 16,-36 28.039,-26.476 47.89,-28 36.174,-2.777 16.711,18.848 46.11,16 15.43,-1.495 -8.477,39.994 7.769,48.135 5.687,2.849 24.911,4.352 38.231,-2.135 30.074,-14.647 33.073,-12.037 42,-12 32.174,0.135 24,34 50,36 9.915,0.763 20,-74 60,-34 11.477,11.477 16,46.511 52,-10 22.586,-35.455 30,4 70,-12 8.066,-3.227 11.644,-41.449 12.874,-53.001 2.873,-27.001 25.627,-57.191 -43.826,-57.064 C 653.05,-69.963 6.048,-71 6.048,-71 6.048,-71 -4,-86 0,0" /></g><g
           transform="translate(1079,1809)"
           id="g90"><path
             id="path92"
             style="fill:#dc4f19;fill-opacity:1;fill-rule:nonzero;stroke:none"
             d="M 0,0 C 0,33.814 -4.996,96.924 -16,86.398 -36.778,66.523 -34,34 -59.314,26.586 -67.674,24.138 -72.369,7.873 -75.992,13.59 -94,42 -76.434,-35.412 -79.723,-61.73 c -7.055,-56.444 -34.317,-59.232 -46.21,-96.355 C -140,-202 -113.032,-227.861 -118,-300 c -2.782,-40.401 -3.791,-22.218 -22,-34 -34,-22 3.362,-66.004 -17.694,-84.036 -8.154,-6.982 3.694,-97.964 -9.036,-57.03 -8.024,25.799 -0.294,-58.016 -7.27,-80.934 -14,-46 22,-14 -5.333,-71.831 -18.433,-38.998 -24.163,-65.823 -32.667,-94.169 -12,-40 -51.2,-34.329 -61.903,-62.67 -7.048,-18.665 19.903,-27.33 9.565,-60.775 -6.776,-21.92 23.043,-40.655 28.856,-56.409 C -228.856,-919.816 -252,-926 -253.771,-951.398 -255.221,-972.181 -282,-984 -282,-1004 c 0,-6.274 -12,-70 -23.108,-48.724 -9.033,17.302 -14.468,-40.999 -16.892,-69.276 -2.66,-31.037 -46,-74 -37.553,-120.93 8.461,-47.009 -12.111,-90.143 -4.447,-103.07 7.728,-13.033 21.242,-38.272 14,-60 -14,-42 5.94,-20.768 -14,-42 -24.235,-25.806 -24.235,-25.806 -12,-116 10.926,-80.539 -27.224,-88.108 -36,-112 -6.707,-18.26 -56,2 -40.525,-22.352 6.066,-9.545 -19.975,-15.148 -27.475,-37.648 -6.752,-20.256 -58.402,-31.037 -52,-48 1.368,-3.624 -26.494,-24 6.753,-24 344,0 526.247,-1 526.247,-1 C 2,-1508 0,-204 0,0" /></g></g></g></g></svg>