<?xml version="1.0" encoding="UTF-8" standalone="no"?>
<svg
   xmlns:dc="http://purl.org/dc/elements/1.1/"
   xmlns:cc="http://creativecommons.org/ns#"
   xmlns:rdf="http://www.w3.org/1999/02/22-rdf-syntax-ns#"
   xmlns:svg="http://www.w3.org/2000/svg"
   xmlns="http://www.w3.org/2000/svg"
   viewBox="0 0 1440 2560"
   height="2560"
   width="1440"
   xml:space="preserve"
   id="svg2"
   version="1.1"><metadata
     id="metadata8"><rdf:RDF><cc:Work
         rdf:about=""><dc:format>image/svg+xml</dc:format><dc:type
           rdf:resource="http://purl.org/dc/dcmitype/StillImage" /></cc:Work></rdf:RDF></metadata><defs
     id="defs6"><linearGradient
       id="linearGradient38"
       spreadMethod="pad"
       gradientTransform="matrix(0,1920,1920,0,540,0)"
       gradientUnits="userSpaceOnUse"
       y2="0"
       x2="1"
       y1="0"
       x1="0"><stop
         id="stop24"
         offset="0"
         style="stop-opacity:1;stop-color:#fff424" /><stop
         id="stop26"
         offset="0.08434747"
         style="stop-opacity:1;stop-color:#5bc133" /><stop
         id="stop28"
         offset="0.177974"
         style="stop-opacity:1;stop-color:#5bc133" /><stop
         id="stop30"
         offset="0.339693"
         style="stop-opacity:1;stop-color:#26b254" /><stop
         id="stop32"
         offset="0.466646"
         style="stop-opacity:1;stop-color:#0d5a25" /><stop
         id="stop34"
         offset="0.621394"
         style="stop-opacity:1;stop-color:#08220c" /><stop
         id="stop36"
         offset="1"
         style="stop-opacity:1;stop-color:#08220c" /></linearGradient><clipPath
       id="clipPath64"
       clipPathUnits="userSpaceOnUse"><path
         id="path62"
         d="M 0,1920 H 1080 V 0 H 0 Z" /></clipPath><clipPath
       id="clipPath76"
       clipPathUnits="userSpaceOnUse"><path
         id="path74"
         d="M 0,1920 H 1080 V 0 H 0 Z" /></clipPath><clipPath
       id="clipPath88"
       clipPathUnits="userSpaceOnUse"><path
         id="path86"
         d="M 0,1920 H 1080 V 0 H 0 Z" /></clipPath><clipPath
       id="clipPath100"
       clipPathUnits="userSpaceOnUse"><path
         id="path98"
         d="M 0,1920 H 1080 V 0 H 0 Z" /></clipPath><clipPath
       id="clipPath180"
       clipPathUnits="userSpaceOnUse"><path
         id="path178"
         d="M 0,1920 H 1080 V 0 H 0 Z" /></clipPath></defs><g
     transform="matrix(1.3333333,0,0,-1.3333333,0,2560)"
     id="g10"><g
       id="g12"><g
         id="g14"><g
           id="g20"><g
             id="g22"><path
               id="path40"
               style="fill:url(#linearGradient38);stroke:none"
               d="M 0,0 H 1080 V 1920 H 0 Z" /></g></g></g></g><path
       id="path42"
       style="fill:#5b2913;fill-opacity:1;fill-rule:nonzero;stroke:none"
       d="M 168.133,139.721 H 107.899 V 1545.24 h 60.234 z" /><path
       id="path44"
       style="fill:#5b2913;fill-opacity:1;fill-rule:nonzero;stroke:none"
       d="M 267.526,311.083 H 235 v 1177.151 h 32.526 z" /><path
       id="path46"
       style="fill:#5b2913;fill-opacity:1;fill-rule:nonzero;stroke:none"
       d="M 377.984,414.307 H 352.6 V 1583.81 h 25.384 z" /><path
       id="path48"
       style="fill:#5b2913;fill-opacity:1;fill-rule:nonzero;stroke:none"
       d="m 472.423,534.412 h -20.568 v 887.815 h 20.568 z" /><path
       id="path50"
       style="fill:#5b2913;fill-opacity:1;fill-rule:nonzero;stroke:none"
       d="M 530.692,662.817 H 540 v 811.024 h -9.308 z" /><path
       id="path52"
       style="fill:#5b2913;fill-opacity:1;fill-rule:nonzero;stroke:none"
       d="m 773.84,491.466 h 16.66 v 996.768 h -16.66 z" /><path
       id="path54"
       style="fill:#5b2913;fill-opacity:1;fill-rule:nonzero;stroke:none"
       d="m 857.073,314.875 h -26.225 v 912.333 h 26.225 z" /><path
       id="path56"
       style="fill:#5b2913;fill-opacity:1;fill-rule:nonzero;stroke:none"
       d="m 986.864,234.364 h -54.006 v 845.829 h 54.006 z" /><g
       id="g58"><g
         clip-path="url(#clipPath64)"
         id="g60"><g
           transform="translate(238.6055,65.9541)"
           id="g66"><path
             id="path68"
             style="fill:#815524;fill-opacity:1;fill-rule:nonzero;stroke:none"
             d="m 0,0 c -4.276,29.311 -15.945,117.135 26.999,206.989 44.134,92.347 123.23,139.298 146.992,152.993 82.21,47.38 138.484,37.177 169.491,92.996 3.231,5.814 26.885,49.815 10.5,89.995 -19.985,49.011 -81.169,47.277 -85.495,82.496 -4.147,33.756 48.327,65.73 65.996,76.496 38.681,23.569 75.106,25.072 89.996,25.499 24.129,0.691 47.837,-3.329 47.998,-7.5 0.257,-6.737 -61.454,-0.316 -89.997,-37.498 -1.55,-2.021 -18.298,-24.516 -11.999,-49.497 7.118,-28.223 48.874,-18.913 80.997,-47.998 28.009,-25.362 32.376,-62.332 35.998,-92.995 7.304,-61.846 -13.167,-112.081 -28.498,-148.493 -29.046,-68.982 -52.715,-75.357 -58.498,-124.494 -4.888,-41.54 7.635,-74.305 16.499,-97.495 29.638,-77.54 88.892,-123.45 125.994,-151.492 54.992,-41.564 76.771,-40.117 76.496,-52.498 L 22.499,-83.995 C 8.75,-59.972 4.309,-29.531 0,0" /></g></g></g><g
       id="g70"><g
         clip-path="url(#clipPath76)"
         id="g72"><g
           transform="translate(-6.7891,711.9111)"
           id="g78"><path
             id="path80"
             style="fill:#21b052;fill-opacity:1;fill-rule:nonzero;stroke:none"
             d="m 0,0 c 4.225,-29.542 14.574,-58.194 30.201,-83.617 7.271,7.629 11.529,18.057 11.674,28.596 8.244,-9.807 16.487,-19.615 24.73,-29.421 1.167,28.76 5.903,57.376 14.064,84.979 5.951,-7.89 11.901,-15.78 17.852,-23.67 5.787,3.865 10.283,9.63 12.622,16.184 8.092,-0.521 16.184,-1.042 24.276,-1.564 -16.735,40.512 -14.125,88.534 6.904,126.992 11.122,-6.002 19.383,-17.061 21.983,-29.428 10.864,4.255 18.915,14.948 19.999,26.565 8.596,-2.776 15.592,-10.061 18.019,-18.762 21.462,46.888 -25.708,114.477 13.129,148.402 7.012,-9.301 14.025,-18.602 21.037,-27.903 8.742,19.8 17.486,39.6 26.228,59.399 10.599,-42.211 18.439,-85.115 23.455,-128.347 l 22.56,62.95 c 11.133,-5.27 20.574,-14.044 26.642,-24.762 2.098,50.33 -2.658,100.941 -14.095,149.999 16.903,-4.657 33.805,-9.315 50.708,-13.972 2.774,19.14 26.582,31.843 44.026,23.49 1.19,33.008 -0.387,66.116 -4.709,98.861 13.511,-4.847 30.098,6.63 30.325,20.983 17.537,-25.908 35.075,-51.815 52.612,-77.723 53.901,90.54 -18.81,221.61 43.136,306.846 0.29,-49.075 12.116,-98.045 34.255,-141.843 8.005,6.741 16.009,13.483 24.013,20.224 17.223,-37.124 34.446,-74.248 51.668,-111.371 18.856,68.498 26.291,140.126 21.908,211.038 l 26.888,-40.959 c 17.227,22.649 28.977,49.433 33.978,77.446 21.691,-20.749 22.289,-54.535 22.348,-84.553 0.23,-118.309 15.203,-236.582 44.46,-351.217 7.087,6.493 14.174,12.986 21.262,19.479 21.628,-59.688 41.214,-120.116 58.714,-181.142 10.771,6.861 21.541,13.722 32.312,20.585 20.046,-32.435 30.709,-70.596 30.378,-108.723 13.081,18.242 26.161,36.484 39.241,54.727 7.66,-20.778 15.319,-41.555 22.979,-62.333 7.78,10.337 15.56,20.675 23.339,31.013 13.106,-28.694 26.21,-57.389 39.315,-86.084 3.113,15.811 26.389,22.857 37.749,11.427 15.648,97.857 4.238,197.823 7.642,296.865 3.423,99.591 21.831,198.078 28.802,297.483 10.084,143.79 -3.829,288.06 -17.73,431.531 -7.612,78.573 -15.224,157.145 -22.836,235.718 -0.548,5.659 -1.158,11.515 -4,16.439 -7.935,13.745 -27.582,13.237 -43.318,11.17 -344.875,-45.304 -694.015,17.522 -1041.848,19.232 -19.453,0.096 -40.683,-0.619 -55.531,-13.187 -10.929,-9.25 -16.35,-23.346 -20.493,-37.051 C -84.057,1174.986 -86.66,1115.771 -88,1057.278 -95.748,718.873 -65.227,380.89 -34.738,43.771 -32.802,22.367 -22.742,-5.951 -1.49,-2.747" /></g></g></g><g
       id="g82"><g
         clip-path="url(#clipPath88)"
         id="g84"><g
           transform="translate(-7.3823,882.8447)"
           id="g90"><path
             id="path92"
             style="fill:#126d2d;fill-opacity:1;fill-rule:nonzero;stroke:none"
             d="m 0,0 c 1.965,-3.38 49.237,-52.074 52.498,-79.496 0.416,-3.497 1.114,-11.155 3,-22.499 2.594,-15.615 3.156,-12.454 6.295,-29.359 1.943,-10.459 1.914,-12.673 4.204,-14.138 7.277,-4.658 25.717,6.078 25.499,14.999 -0.142,5.816 -8.116,6.703 -9,13.499 -1.125,8.651 11.223,11.624 13.499,22.499 1.969,9.409 -6.201,12.318 -13.499,31.498 -5.915,15.544 -6.014,27.994 -6,35.999 0.021,11.377 0.041,22.857 6,25.498 5.969,2.646 15.817,-4.499 20.999,-11.999 8.196,-11.864 5.096,-25.172 7.5,-25.499 3.888,-0.529 11.636,34.349 11.999,35.998 5.518,25.104 5.559,33.78 10.5,55.497 5.502,24.191 9.871,42.682 17.999,43.498 6.257,0.629 12.474,-9.445 14.999,-14.999 8.48,-18.652 -1.852,-36.544 3,-38.998 3.757,-1.9 13.819,6.872 19.499,17.999 5.983,11.721 4.768,21.476 4.499,40.498 -0.289,20.463 -0.466,32.973 1.5,46.498 4.874,33.525 17.793,38.032 13.5,55.497 -4.644,18.89 -21.042,18.846 -23.999,37.498 -2.595,16.371 6.64,37.824 22.499,41.998 9.577,2.521 21.94,-1.164 26.998,-9 2.437,-3.774 2.658,-9.567 3,-20.998 0.454,-15.146 -1.138,-18.767 1.5,-20.999 5.046,-4.269 21.423,0.048 26.999,10.499 8.652,16.217 -16.179,33.186 -9,55.497 3.836,11.92 15.931,22.643 28.499,22.499 14.216,-0.162 10.707,-33.973 11.999,-26.999 3.032,16.367 7.379,37.539 7.5,35.999 0.282,-3.6 37.662,-8.559 46.497,-28.499 3.362,-7.585 -2.999,-38.998 0.199,-73.826 1.736,-18.913 -0.626,-20.549 1.301,-59.667 0.772,-15.66 19.502,-34.337 28.499,-28.499 12.119,7.864 -7.5,25.499 -7.5,67.497 0,12.306 16.224,36.977 15,47.997 -3,26.999 -3,26.999 5.999,67.497 5.658,25.458 -14.897,44.412 -13.499,44.998 1.137,0.476 0.241,0.144 0,0 -0.343,-0.207 -22.499,-4.5 -19.499,40.498 0.656,9.845 -5.867,20.249 -4.5,34.498 1.527,15.91 7.792,27.848 12,34.499 2.034,-11.921 14.999,-17.999 17.999,-47.998 0.737,-7.372 15.962,22.796 14.999,43.498 -0.668,14.353 -11.508,23.911 -10.5,34.498 3,31.498 -17.169,21.27 -31.498,44.998 -6.703,11.1 -13.117,21.925 -16.499,37.498 -2.035,9.371 -6.171,35.189 1.5,38.998 3.88,1.927 23.212,4.552 28.866,-20.675 7.132,-31.822 -9.367,-38.55 17.631,-50.55 19.499,47.226 41.336,19.935 43.499,18.727 2.847,-1.589 22.498,-10.499 4.499,-43.497 -10.875,-19.938 2.129,-25.626 0,-34.499 -8.999,-37.498 4.5,-58.496 19.499,-37.498 4.849,6.789 10.5,39.607 20.999,16.5 6.899,-15.184 10.157,43.522 9,42.935 -1.526,-0.774 11.999,0.369 11.999,-75.934 0,-25.499 -19.854,-20.576 -19.499,-37.498 0.073,-3.465 -0.346,-37.613 3,-50.998 11.999,-47.997 11.999,-52.497 17.999,-20.999 0.813,4.267 -4.5,43.498 -4.5,43.498 -6.639,32.363 -1.438,10.679 26.999,13.499 9.363,0.929 28.393,81.409 28.393,74.997 0,-44.998 18.763,-63.111 19.604,-68.997 6,-41.998 -4.636,-34.01 -5.999,-49.497 -1.249,-14.182 0.205,-21.641 0,-31.499 -0.971,-46.497 7.141,-19.609 13.499,-29.998 9.143,-14.939 17.999,32.998 19.499,-22.499 0.233,-8.591 15.754,24.752 13.499,44.998 -1.156,10.384 -4.154,13.993 -4.5,26.998 -0.141,5.361 4.165,11.912 3,25.499 -4.499,52.497 15.912,37.817 13.5,52.497 -1.947,11.849 -7.491,10.472 -13.5,29.999 -3.134,10.186 -6.104,19.839 -4.499,31.499 2.31,16.778 -2.407,22.834 2.999,44.435 2.249,8.982 28.499,-47.435 19.499,20.061 -1.284,9.634 16.083,37.46 19.499,37.498 5.34,0.061 -0.905,-40.511 0,-44.997 6.197,-30.691 -0.181,-45.462 3,-79.496 0.297,-3.174 1.699,-11.616 4.5,-28.499 10.656,-64.205 12.676,-59.427 13.499,-76.496 1.698,-35.181 -7.081,-51.438 4.5,-61.497 6.152,-5.343 19.499,-59.997 22.499,-4.5 1.141,21.11 0.109,68.779 6,56.997 23.998,-47.997 17.737,37.177 19.499,37.498 2.514,0.459 13.949,-4.228 16.064,-41.78 0.554,-9.836 3.484,-42.613 7.934,-45.215 8.277,-4.839 26.826,-51.061 22.326,16.436 -2.52,37.792 0,0 2.98,55.781 3.193,59.776 -10.499,57.981 -19.306,91.275 -0.698,2.638 23.102,9.893 23.999,32.998 0.622,16.004 -10.014,27.645 -9,29.999 7.162,16.606 21.557,25.055 28.499,28.498 26.701,-39.32 35.998,-24.561 20.999,-64.497 -3.473,-9.248 -19.804,-7.032 -19.499,-16.499 1.5,-46.498 24.011,-37.032 29.099,-41.835 18.646,-17.601 22.454,-7.437 26.399,-21.162 0.444,-1.547 0.061,-0.888 0,-20.999 -0.058,-18.969 -13.21,-23.799 -13.5,-28.498 -0.72,-11.714 10.51,-14.862 7.5,-26.999 -4.523,-18.232 -7.192,-22.367 -4.5,-25.499 5.158,-6 18.877,4.611 31.499,-1.5 9.102,-4.407 7.764,-40.412 10.499,-49.497 5.582,-18.546 10.744,-20.772 -4.499,-44.998 -11.157,-17.73 -26.629,-14.658 -23.999,-29.998 8.999,-52.498 5.38,-45.704 8.999,-52.498 5.974,-11.216 15.966,12.194 25.499,-1.5 21.204,-30.461 16.189,-78.761 20.999,-77.996 5.088,0.809 4.619,30.061 4.5,37.498 -0.381,23.733 -4.017,25.849 -3,46.498 0.632,12.858 3,31.498 3,31.499 12.503,4.586 19.074,1.174 20.999,0 1.836,-1.121 6.092,-4.264 11.999,-26.999 2.34,-9.01 3.566,-13.728 4.5,-20.999 4.738,-36.902 -6.696,-72.191 0,-74.996 6.494,-2.721 21.461,28.72 31.498,25.498 3.802,-1.221 4.219,-6.556 9,-26.998 6.403,-27.388 7.089,-23.937 8.999,-35.999 0,0 1.091,-6.886 3,-41.997 7.32,5.98 17.509,16.233 22.499,31.498 3.21,9.819 3.049,17.984 0,41.998 -6.589,51.897 -10.977,54.238 -9,71.996 2.939,26.393 15.093,43.333 12,44.998 -2.278,1.226 -11.439,-6.566 -10.5,-13.499 1.234,-9.12 18.826,-8.5 31.499,-20.999 9.098,-8.974 10.804,-19.92 13.499,-38.998 6.577,-46.566 -6.817,-64.995 6,-82.496 9.595,-13.104 27.045,-16.529 31.498,-16.499 65.505,0.439 16.499,1201.439 16.499,1201.439 L 0,1183.441 C 0,1183.441 -13.609,23.415 0,0" /></g></g></g><g
       id="g94"><g
         clip-path="url(#clipPath100)"
         id="g96"><g
           transform="translate(657.2207,659.5986)"
           id="g102"><path
             id="path104"
             style="fill:#277a2a;fill-opacity:1;fill-rule:nonzero;stroke:none"
             d="m 0,0 c -7.696,-1.4 -16.075,2.524 -19.926,9.335 -1.277,2.261 -2.132,4.837 -4,6.641 -5.43,5.242 -14.958,0.717 -21.791,3.924 -5.322,2.497 -7.432,8.829 -9.003,14.494 l -8.097,29.2 c -1.513,5.455 -1.843,13.22 3.599,14.778 2.237,0.64 4.612,-0.199 6.938,-0.164 12.886,0.195 13.358,23.21 25.855,26.359 6.672,1.682 13.794,-3.414 20.353,-1.337 7.644,2.422 11.32,13.624 19.328,13.198 3.677,-0.196 8.462,-2.561 10.291,0.635 0.764,1.334 0.41,2.999 0.084,4.501 -0.944,4.351 -1.44,9.063 0.401,13.118 1.84,4.054 6.749,6.994 10.855,5.271 4.219,-1.77 5.623,-7.223 9.421,-9.776 5.226,-3.514 12.13,-0.234 17.798,2.51 5.67,2.745 13.745,4.329 17.215,-0.927 -4.667,6.787 3.337,17.637 11.2,15.182 8.421,-2.63 9.516,-13.904 9.212,-22.722 -0.303,-8.818 1.503,-20.206 10.134,-22.035 -2.68,-5.516 -8.579,-8.529 -13.353,-12.377 C 91.74,85.959 87.667,79.417 90.465,73.961 83.063,69.308 73.49,77.982 65.004,75.881 56.086,73.673 54.283,61.97 54.315,52.782 c 0.008,-2.058 0.081,-4.303 1.409,-5.878 4.907,-5.814 13.717,6.221 20.917,3.759 5.441,-1.86 5.852,-10.785 11.394,-12.319 1.859,-0.515 3.83,-0.006 5.759,-0.027 7.854,-0.081 12.748,-8.301 16.049,-15.429 3.036,-6.559 6.12,-13.291 6.694,-20.495 0.575,-7.205 -1.871,-15.097 -7.883,-19.108 -3.438,-2.295 -7.647,-3.101 -11.758,-3.528 -13.175,-1.368 -26.693,0.707 -38.85,5.965 -7.32,3.166 -14.148,7.457 -21.662,10.129 -11.752,4.177 -24.517,4.18 -36.988,4.136" /></g><g
           transform="translate(565.3887,794.2344)"
           id="g106"><path
             id="path108"
             style="fill:#277a2a;fill-opacity:1;fill-rule:nonzero;stroke:none"
             d="m 0,0 c 6.366,5.063 -0.78,25.4 5.527,31.227 0.49,0.452 1.85,1.57 3.668,1.711 2.581,0.201 4.732,-1.991 5.968,-4.265 1.236,-2.275 2.024,-4.87 3.861,-6.694 3.349,2.046 5.545,5.552 8.687,7.904 3.143,2.35 8.31,3.065 10.507,-0.187 0.918,-1.358 1.147,-3.199 2.417,-4.237 1.69,-1.384 4.252,-0.594 6.086,0.593 1.834,1.186 3.606,2.769 5.789,2.875 3.418,0.166 5.813,-3.28 7.168,-6.423 3.217,-7.466 4.61,-15.709 4.027,-23.817 C 63.618,-2.512 63.461,-3.781 62.709,-4.719 61.764,-5.896 60.144,-6.243 58.651,-6.478 51.37,-7.622 39.346,-9.452 38.141,-9.695 31.793,-10.973 31.975,-13.918 21.38,-21.074 7.65,-30.349 5.17,-26.872 -5.711,-34.746 c -6.11,-4.422 -10.633,-9.777 -19.678,-20.488 -9.691,-11.477 -8.95,-12.561 -14,-17 -4.557,-4.007 -17.06,-14.999 -29,-12 -18.322,4.601 -23.061,39.074 -18,42 2.862,1.654 9.163,-6.598 14,-4 3.308,1.776 4.434,7.822 4.536,8.402 0.604,3.433 -0.283,5.16 0.464,5.598 2.467,1.444 13.498,-16.571 17,-15 2.084,0.933 -0.094,8.08 -1,23 -1.149,18.922 1.479,21.84 3,23 3.688,2.808 9.808,2.078 13.692,0 4.96,-2.655 4.309,-6.455 9.308,-10 5.956,-4.224 14.794,-4.44 16,-2 2.045,4.137 -4.223,20.881 -2.838,23 C -10.885,11.817 -6.478,-5.152 0,0" /></g><g
           transform="translate(669.9248,668.6357)"
           id="g110"><path
             id="path112"
             style="fill:#53bf3c;fill-opacity:1;fill-rule:nonzero;stroke:none"
             d="m 0,0 c -9.906,16.075 1.233,39.563 8.773,44.306 0.926,0.582 3.371,2.132 5.975,1.472 2.245,-0.57 3.71,-2.674 4.903,-4.66 6.084,-10.12 10.531,-21.222 13.113,-32.745 3.518,6.398 11.918,9.62 18.812,7.218 6.895,-2.402 11.474,-10.146 10.256,-17.345 6.029,2.235 12.222,4.5 18.651,4.468 6.43,-0.033 13.25,-2.858 16.249,-8.544 1.919,-3.639 2.397,-8.433 5.898,-10.592 1.531,-0.945 3.386,-1.18 5.18,-1.327 13.362,-1.096 27.009,1.524 39.016,7.49 2.235,1.111 4.662,2.373 7.099,1.834 2.232,-0.493 3.849,-2.372 5.296,-4.141 8.103,-9.913 16.7,-21.47 14.903,-34.146 -0.395,-2.792 -1.29,-5.693 -0.362,-8.356 0.924,-2.651 3.437,-4.399 4.898,-6.796 4.295,-7.045 -1.697,-16.512 1.041,-24.296 2.242,-6.373 9.506,-9.485 13.19,-15.149 9.966,-15.325 5.48,-30.817 12.335,-32.915 4.527,-1.384 7.455,5.246 13.849,4.588 8.862,-0.913 14.151,-14.772 15,-17 9.06,-23.746 -5.723,-44.192 3,-51 4.888,-3.813 10.821,1.595 16,-2 9.08,-6.301 5.078,-32.796 -3,-47 -25.896,-45.535 -145.358,-55.614 -200,0 -26.816,27.294 -36.196,68.555 -32,71 3.783,2.204 22.84,-24.671 27,-22 4.642,2.98 -18.803,36.608 -7,52 1.814,2.365 7.738,5.571 19.585,11.98 12.156,6.575 0.423,-1.852 0,0 -0.735,3.222 -13.634,5.02 -12.585,17.02 0.759,8.682 -7.01,17.834 -3,21 3.727,2.943 10.913,-2.04 12.215,-0.111 2.112,3.134 -18.123,14.375 -17.215,28.111 0.528,7.974 7.794,10.984 6.007,17.003 -1.515,5.102 -7.07,4.074 -14.007,9.997 -9.684,8.27 -5.991,16.366 -16.534,29.027 C 5.863,-3.59 3.74,-6.069 0,0" /></g><g
           transform="translate(430.1045,699.002)"
           id="g114"><path
             id="path116"
             style="fill:#53bf3c;fill-opacity:1;fill-rule:nonzero;stroke:none"
             d="m 0,0 c 0.566,8.711 0.628,23.15 1.109,32.849 0.083,1.676 0.329,4.261 2.08,6.532 1.934,2.509 5.337,3.349 8.497,3.561 12.473,0.836 25.13,-6.233 30.96,-17.291 10.18,5.084 21.994,6.828 33.209,4.902 1.158,-0.199 2.356,-0.456 3.284,-1.177 1.227,-0.954 1.757,-2.529 2.223,-4.012 2.973,-9.448 5.831,-20.215 0.912,-28.811 -1.002,-1.752 -2.309,-3.36 -2.941,-5.276 -1.27,-3.852 3.005,-5.757 2.746,-9.037 -0.403,-5.085 -9.375,-8.584 -9.472,-8.427 -0.12,0.199 10.792,11.141 19.603,8.939 8.561,-2.14 9.276,-15.225 17.384,-15.919 5.364,-0.459 8.032,5.013 11.816,3.395 2.485,-1.063 2.248,-3.814 5.818,-13.855 3.846,-10.82 5.782,-12.297 7.118,-13.001 3.205,-1.687 5.531,-0.282 8.16,-2.662 2.391,-2.165 1.32,-4.105 3.333,-6.839 3.25,-4.416 8.364,-2.514 12.357,-5.963 2.968,-2.563 3.616,-6.614 3.752,-14.125 0.212,-11.732 12.772,-2.785 12.548,-31.785 -0.198,-25.692 -6.643,-29.435 -10.6,-53 -5.091,-30.312 -15.108,-46.355 -24.852,-42.177 -5.771,2.474 11.852,-10.823 -10.529,-12.823 -16.097,-1.438 -17.39,12.387 -19.796,4.155 -2.343,-8.014 -8.255,-18.503 -14.823,-21.155 -12.529,-5.06 -25.735,19.078 -53,38 -44.111,30.611 -73.667,11.933 -92,40 -9.98,15.278 -15.807,43.141 -11.895,57.252 0,0 4.665,16.826 2.959,26.375 -0.075,0.423 -0.536,2.823 -0.698,6.116 -0.012,0.241 -0.128,2.73 0.029,5.195 0.315,4.942 1.683,9.016 2.604,11.764 1.906,5.682 6.327,18.874 11.112,23.694 1.758,1.771 2.815,1.655 3.176,1.574 1.134,-0.258 1.723,-1.618 1.991,-2.258 3.072,-7.352 4.729,-14.277 6.687,-14.45 0.91,-0.08 1.061,1.369 3.811,3.73 1.188,1.022 2.565,2.204 4.42,2.854 3.102,1.086 7.034,0.502 9.88,-1.338 2.473,-1.6 3.396,-3.678 4.858,-3.324 1.019,0.246 1.525,1.486 1.708,1.934 1.754,4.296 -2.608,9.747 -4.231,16.15 -2.888,11.386 3.88,21.876 7.999,24.712 0.601,0.414 2.688,1.851 3.986,1.124 1.306,-0.732 1.068,-3.24 1.41,-3.253 C -0.467,-7.186 0,0 0,0" /></g><g
           transform="translate(317.8228,442.4727)"
           id="g118"><path
             id="path120"
             style="fill:#35923b;fill-opacity:1;fill-rule:nonzero;stroke:none"
             d="m 0,0 c -20.797,8.439 -33.549,30.493 -29.289,50.654 1.033,4.89 4.684,10.648 10.15,9.874 1.535,4.457 0.793,9.246 0.663,13.91 -0.129,4.665 0.58,9.759 4.25,13.056 3.671,3.296 11.098,3.24 13.155,-1.042 2.719,8.704 -6.412,16.253 -12.694,23.312 -14.488,16.281 -15.413,41.211 -2.164,58.324 1.763,2.276 4.223,4.624 7.304,4.49 4.427,-0.191 6.377,-5.017 7.227,-8.931 1.536,-7.078 3.072,-14.157 4.609,-21.235 -1.141,5.678 8.377,8.958 13.708,5.749 5.331,-3.208 7.031,-9.441 8.313,-15.094 4.202,9.878 17.379,15.861 28.71,13.036 11.332,-2.826 19.204,-14.057 17.151,-24.47 -0.264,8.792 -0.28,17.836 3.231,26.045 3.51,8.209 11.344,15.499 21.071,16.405 11.863,1.106 23.341,-9.168 22.169,-19.843 6.38,4.782 16.381,5.122 23.144,0.786 2.76,-1.768 5.074,-4.242 8.29,-5.206 2.186,-0.655 4.55,-0.531 6.851,-0.662 16.533,-0.941 29.363,-17.864 24.3,-32.052 13.379,2.258 27.986,-4.75 33.354,-16.001 5.368,-11.251 0.95,-25.601 -10.088,-32.767 12.604,-6.184 9.983,-24.658 -1.215,-32.74 -11.198,-8.081 -26.619,-8.87 -40.937,-9.828 -20.955,-1.404 -78.04,-53.632 -98.321,-58.614 -20.28,-4.982 -21.599,-20.828 -38.861,-31.605 -5.37,-3.353 7.02,50.97 0.537,50.213 -8.36,-0.976 -16.672,3.586 -21.297,9.924 -4.625,6.339 -6.094,14.146 -6.268,21.727" /></g><g
           transform="translate(355.2573,398.9844)"
           id="g122"><path
             id="path124"
             style="fill:#277a2a;fill-opacity:1;fill-rule:nonzero;stroke:none"
             d="m 0,0 c 0.467,6.53 -0.92,18.813 -3.696,43.381 -1.396,12.36 -3.705,18.938 -7.831,22.715 -6.056,5.544 -18.586,3.483 -19.227,-4.701 0.165,9.449 -2.576,18.929 -7.758,26.832 -2.789,4.253 -6.78,8.321 -11.847,8.75 -5.069,0.428 -10.446,-4.843 -8.375,-9.489 -8.298,9.222 -23.031,11.878 -34.027,6.136 -4.168,15.602 -26.06,23.006 -38.843,13.137 -2.892,11.721 -13.786,20.116 -25.379,23.485 -11.593,3.37 -23.931,2.606 -35.978,1.813 -4.739,-0.313 -9.683,-0.687 -13.755,-3.13 -8.499,-5.099 -12.648,-16.822 -10.552,-26.509 5.282,-24.404 -6.686,-48.529 -17.21,-81.404 -2.193,4.011 -28.759,2.602 -26.772,2.029 0.021,-0.006 0.014,-0.029 -0.007,-0.029 -26.613,-0.272 -28.936,-41.794 -13,-41.794 15,-12.332 10.251,-32.138 8.337,-35.827 -2.174,-4.192 -6.016,-7.208 -9.345,-10.556 -5.215,-5.246 -9.343,-11.568 -12.051,-18.451 -1.362,-3.464 -2.378,-7.086 -4.192,-10.335 -1.598,-2.865 -3.776,-5.363 -5.525,-8.138 -11.04,-17.511 -2.808,-40.308 5.612,-59.22 -13.188,4.408 -28.05,-2.158 -37.389,-12.46 -9.339,-10.3 -14.327,-23.713 -19.106,-36.77 -10.217,-27.92 -20.435,-55.84 -30.652,-83.76 -1.542,-4.214 -3.102,-8.785 -1.846,-13.093 1.36,-4.659 8.673,-4.767 10.373,-4.982 18.895,-2.382 44.806,-35.833 58.586,-45.412 27.762,-19.298 83.049,4.933 113,26 50.292,35.373 59.466,118.006 82.089,172.798 8.018,19.42 31.733,14.259 40.109,31.546 9.032,18.645 -6.125,21.533 13.715,40.211 C -46.075,-71.723 -2.548,-35.602 0,0" /></g><g
           transform="translate(945,415)"
           id="g126"><path
             id="path128"
             style="fill:#277a2a;fill-opacity:1;fill-rule:nonzero;stroke:none"
             d="M 0,0 C 8,-27.272 21.544,15.389 29.02,14.656 35.744,13.998 40.532,4.589 43.803,-4.86 c 3.048,16.797 8.887,33.084 17.207,47.991 3.312,5.936 8.033,12.291 14.82,12.69 8.4,0.495 14.074,-8.153 17.881,-15.659 4.084,7.734 8.702,15.186 13.81,22.285 0.84,1.168 1.802,2.404 3.195,2.765 1.535,0.398 3.103,-0.383 4.497,-1.14 6.224,-3.379 15.44,-8.035 16.769,-9.105 C 143.337,45.829 150,-289 163,-380 c 5.859,-41.015 -249.923,11.621 -288,115 0,0 -149.005,79.79 -183,175 -1.767,4.947 -5.338,14.951 -1,24 10.206,21.286 32.63,29.207 43.908,49 8.8,15.444 5.566,8.664 10.092,44 0.624,4.871 12,22.5 16,39 4.195,17.307 16.343,29.655 23.651,25.006 9.228,-5.871 10.751,-41.614 12.349,-42.006 1.57,-0.385 -5.812,75.611 17,59.543 15,-10.565 24.101,12.701 31.5,2.231 5.997,-8.485 17.884,-34.279 20,-35.274 2.308,-1.084 9.827,21.38 22.5,22.5 9.422,0.833 5.703,-9.858 9.997,-20.551 7.535,-18.763 30.782,-12.378 30.99,-22.317 0.521,-24.903 12.73,-10.4 23.013,-19.132 6.422,-5.453 3.408,-14.853 9,-17 7.216,-2.771 13.977,12.216 24,11 C -3,28.545 -3.178,10.833 0,0" /></g><g
           transform="translate(647.6934,318.498)"
           id="g130"><path
             id="path132"
             style="fill:#19501b;fill-opacity:1;fill-rule:nonzero;stroke:none"
             d="m 0,0 c 1.819,1.754 16.897,16.281 32.812,12.173 15.678,-4.048 21.946,-23.546 22.852,-26.505 0.768,5.922 8.738,8.572 14.144,6.033 5.404,-2.539 8.492,-8.289 10.575,-13.886 2.084,-5.596 3.631,-11.584 7.419,-16.2 0.983,6.599 7.145,11.199 13.346,13.66 6.202,2.46 12.985,3.59 18.676,7.072 2.906,1.778 5.453,4.132 8.491,5.674 10.237,5.195 23.298,-0.546 30.092,-9.798 6.793,-9.252 8.861,-21.041 10.738,-32.366 2.155,-12.998 4.309,-25.995 6.464,-38.992 5.071,0.588 5.796,8.045 9.976,10.976 6.019,4.221 13.339,-3.11 17.013,-9.478 5.938,-10.29 11.876,-20.58 17.813,-30.87 7.352,-12.74 14.848,-25.889 16.886,-40.456 0.29,-2.078 0.59,-4.406 2.232,-5.712 2.651,-2.106 6.602,-0.067 9.906,-0.804 3.831,-0.854 5.747,-5.057 7.098,-8.742 11.24,-30.634 47.309,-48.513 39.774,-80.262 -8.184,-34.486 127.161,-16.399 132.971,-11.64 -0.013,-0.039 14.796,-54.375 0,-54.375 -63.806,0 -141.049,-40.595 -231,0 C 128.264,-292.9 81.281,-250.416 49.176,-213.156 -8.673,-146.021 -33.477,-32.256 0,0" /></g><g
           transform="translate(777.7715,117.9785)"
           id="g134"><path
             id="path136"
             style="fill:#48aa32;fill-opacity:1;fill-rule:nonzero;stroke:none"
             d="m 0,0 c -29.205,16.573 -84.915,20.355 -101.804,17.605 -1.34,-0.217 -5.543,-0.53 -8.967,1.526 -5.451,3.271 -5.206,11.9 -1.029,16.691 4.178,4.791 10.758,6.61 17.003,7.795 16.456,3.125 33.431,3.504 50.011,1.117 -29.917,7.27 -60.319,12.54 -90.937,15.765 -5.373,0.566 -10.989,1.149 -15.512,4.105 -4.524,2.954 -7.462,9.112 -4.988,13.915 2.649,5.138 9.487,6.033 15.263,6.285 20.14,0.879 40.753,1.7 60.009,-4.268 -37.651,13.847 -78.865,13.284 -118.962,12.061 -4.131,-0.126 -8.409,-0.232 -12.22,1.368 -3.809,1.599 -7.023,5.411 -6.546,9.515 0.693,5.955 7.806,8.478 13.672,9.713 l 51.738,10.899 -92.417,3.911 c -11.374,0.481 -24.878,2.264 -29.994,12.434 4.68,6.286 13.333,8.102 21.169,7.983 7.837,-0.118 15.75,-1.685 23.449,-0.22 -28.705,3.857 -56.763,12.487 -82.672,25.431 -5.824,2.909 -12.349,7.344 -12.179,13.851 0.18,6.879 7.703,10.955 14.323,12.835 22.369,6.351 46.584,4.23 68.656,-3.085 22.073,-7.315 42.201,-19.601 60.855,-33.483 -3.375,12.409 -6.749,24.818 -10.124,37.228 6.974,4.273 16.081,3.761 23.614,0.574 7.533,-3.189 13.801,-8.722 19.759,-14.326 21.417,-20.153 40.766,-42.502 57.642,-66.585 0.196,9.801 0.391,19.603 0.587,29.406 0.061,3.05 0.246,6.412 2.363,8.607 4.631,4.803 12.484,-0.322 16.806,-5.404 23.911,-28.112 42.237,-60.954 53.605,-96.065 1.547,11.62 3.851,23.139 6.894,34.46 0.618,2.295 1.392,4.769 3.347,6.122 1.836,1.27 4.283,1.224 6.463,0.742 C 11.775,95.657 21.366,68.705 21.366,68.705 32.492,37.17 22.457,2.796 9.229,-1.479 1.668,-3.922 26.234,-14.889 0,0" /></g><g
           transform="translate(969.9834,130.7012)"
           id="g138"><path
             id="path140"
             style="fill:#48aa32;fill-opacity:1;fill-rule:nonzero;stroke:none"
             d="m 0,0 c -13.301,44.197 -66.251,65.757 -83.725,108.477 -0.411,1.004 -0.802,2.139 -0.398,3.147 0.474,1.184 1.843,1.708 3.087,1.986 9.336,2.085 18.922,-2.417 26.559,-8.175 7.637,-5.759 14.287,-12.92 22.685,-17.498 -18.459,35.836 -66.916,49.721 -81.966,87.118 -1.237,3.075 -1.903,7.269 0.848,9.119 1.53,1.029 3.545,0.851 5.372,0.595 15.659,-2.198 28.825,-6.495 40.238,-9.948 -21.619,12.037 -43.239,24.074 -64.858,36.111 -7.832,4.36 -16.888,11.176 -15.11,19.963 1.83,9.043 13.806,11.667 22.828,9.73 9.021,-1.938 18.067,-6.448 27.035,-4.275 -23.539,9.941 -45.69,23.162 -65.612,39.162 -5.742,4.612 -20.433,11.081 -16.466,17.287 2.911,4.555 18.106,6.023 23.355,4.729 5.248,-1.294 -5.294,-1.095 0,0 -14.071,4.872 -16.334,6.649 -29.411,13.771 -6.036,3.287 -7.648,8.628 -11.922,14.011 -4.272,5.382 -6.471,12.899 -3.922,19.282 13.856,-0.338 27.643,-3.3 40.413,-8.683 -4.149,8.662 -4.509,8.302 -5.091,17.89 -0.109,1.801 5.707,4.42 6.578,6 1.591,2.887 10.441,-1.421 13,-3.5 16,-13 11.576,-10.261 19.947,-27.658 12.189,-25.334 8.053,-24.842 18.053,-49.203 3.1,17.848 5.901,18.428 13.007,35.09 17.327,-40.339 23.536,-52.837 24.493,-96.729 8.77,12.898 5.229,10.101 14,23 1.185,1.743 13.942,10.633 16,10.173 11.976,-2.673 16.349,-24.281 16.344,-26.179 -0.119,-42.449 -0.119,-42.449 -10.844,-83.676 5.561,7.587 16.45,24.258 25,28.182 8.549,3.924 8.206,-38.627 9,-48 C 0,103.799 -3.28,89.42 -4.243,85.488 -14.579,43.299 -13.685,82.292 -12.78,39.089" /></g><g
           transform="translate(52.2534,60.0146)"
           id="g142"><path
             id="path144"
             style="fill:#19501b;fill-opacity:1;fill-rule:nonzero;stroke:none"
             d="m 0,0 c 3.589,4.301 -2.024,12.182 -0.494,37.136 0.327,5.334 0.957,13.001 5.799,15.312 3.089,1.475 7.065,0.841 9.721,2.998 2.046,1.661 2.667,4.478 3.07,7.081 2.426,15.664 1.582,31.827 -2.462,47.154 4.88,-2.414 10.865,1.773 12.689,6.903 1.825,5.129 0.879,10.761 0.599,16.197 -0.28,5.437 0.417,11.517 4.509,15.109 7.593,6.664 19.3,-0.195 26.224,-7.553 11.783,-12.524 21.448,-27.034 28.463,-42.733 -5.61,23.955 -11.258,48.416 -9.012,72.917 0.652,7.112 2.298,14.761 7.742,19.385 5.444,4.624 15.65,3.753 17.914,-3.021 -0.821,8.944 3.76,18.516 11.902,22.309 8.141,3.793 19.283,0.407 22.872,-7.827 6.011,7.519 12.023,15.037 18.034,22.556 1.124,1.405 2.382,2.898 4.136,3.303 2.585,0.596 4.964,-1.362 7.342,-2.539 3.112,-1.541 6.841,-1.789 10.13,-0.673 3.011,1.02 5.628,3.114 8.744,3.749 5.158,1.051 10.409,-2.289 13.228,-6.735 3.979,-6.271 4.655,-12.547 4.589,-14.991 -0.385,-14.396 -6.955,-47.992 -8.811,-49.862 -29.062,-29.289 25.819,-138.792 8.815,-216.19 -6.306,-28.702 -58.844,2.773 -184.996,0 -70.959,-1.559 -56.718,-25.744 -73,-5 -18.819,23.976 -26.623,62.327 -3,73 C -28.638,20.011 -8.845,-10.599 0,0" /></g><g
           transform="translate(815.6064,79.166)"
           id="g146"><path
             id="path148"
             style="fill:#306f21;fill-opacity:1;fill-rule:nonzero;stroke:none"
             d="m 0,0 c -58.021,70.654 -121.858,140.335 -205.25,181.08 -22.17,10.832 -45.396,19.403 -69.414,25.105 -3.128,0.743 -4.463,-4.078 -1.329,-4.822 C -187.462,180.348 -114.85,121.354 -54.51,55.673 -36.887,36.489 -20.064,16.592 -3.535,-3.536 -1.492,-6.024 2.027,-2.469 0,0" /></g><g
           transform="translate(121.3438,304.0107)"
           id="g150"><path
             id="path152"
             style="fill:#48aa32;fill-opacity:1;fill-rule:nonzero;stroke:none"
             d="m 0,0 c -1.146,15.882 -6.927,31.007 -10.547,46.513 -3.62,15.506 -4.897,32.563 2.464,46.681 2.263,4.34 7.518,8.722 11.478,5.846 2.182,-1.583 2.615,-4.602 2.867,-7.286 0.982,-10.49 1.965,-20.981 2.947,-31.471 0.443,14.593 0.886,29.187 1.33,43.78 0.47,15.504 1.98,33.151 14.274,42.609 1.471,1.131 3.132,2.131 4.977,2.33 3.897,0.42 7.377,-2.981 8.445,-6.752 1.068,-3.771 0.327,-7.79 -0.42,-11.638 -2.759,-14.217 -5.517,-28.435 -8.276,-42.653 6.845,23.155 18.804,44.783 34.776,62.892 3.449,3.91 9.384,7.849 13.294,4.4 2.081,-1.836 2.333,-4.949 2.296,-7.724 -0.135,-10.136 -2.152,-20.245 -5.917,-29.657 10.542,23.075 38.219,36.866 62.989,31.388 1.661,-0.367 3.396,-0.862 4.568,-2.095 3,-3.156 0.407,-8.326 -2.506,-11.562 -4.191,-4.657 -9,-8.757 -14.26,-12.162 24.611,3.762 50.892,-10.108 61.675,-32.547 -3.675,-4.035 -10.088,-3.372 -15.448,-2.353 -13.591,2.585 -27.14,5.394 -40.639,8.422 8.115,-5.337 13.278,-14.895 13.292,-24.607 0.002,-1.218 -0.091,-2.499 -0.749,-3.523 -1.783,-2.777 -5.998,-1.869 -9.07,-0.663 -19.69,7.734 -42.079,14.25 -61.506,5.878 8.909,2.215 19.498,3.683 26.251,-2.533 1.919,-1.766 3.404,-4.341 2.894,-6.898 -0.659,-3.294 -4.173,-5.088 -7.34,-6.208 C 75.048,51.658 52.62,51.488 37.607,37.9 c 8.282,2.693 16.829,4.565 25.477,5.581 4.094,0.481 9.142,0.307 11.151,-3.292 C 76.997,35.244 71.254,29.895 66.119,27.505 43.392,16.928 15.44,14.59 -1.169,-4.185" /></g><g
           transform="translate(123.2793,261.9746)"
           id="g154"><path
             id="path156"
             style="fill:#306f21;fill-opacity:1;fill-rule:nonzero;stroke:none"
             d="m 0,0 c 3.012,33.719 6.256,69.65 25.307,98.726 15.879,24.236 41.734,41.254 69.76,47.967 15.913,3.813 32.497,4.177 48.515,0.783 3.139,-0.665 4.48,4.154 1.329,4.822 -29.513,6.253 -60.687,0.288 -86.433,-15.266 C 30.396,120.066 12.437,93.25 4.106,61.8 -1.239,41.624 -3.149,20.727 -5,0 -5.286,-3.204 -0.285,-3.185 0,0" /></g><g
           transform="translate(961.8711,78.4727)"
           id="g158"><path
             id="path160"
             style="fill:#306f21;fill-opacity:1;fill-rule:nonzero;stroke:none"
             d="m 0,0 c 10.547,27.111 6.045,56.654 -0.381,84.181 -7.003,30.002 -15.241,59.802 -24.806,89.09 -9.307,28.499 -19.88,56.853 -33.019,83.833 -11.739,24.105 -28.096,45.72 -45.877,65.668 -20.493,22.99 -43.145,43.907 -65.521,65.023 -2.338,2.208 -5.881,-1.321 -3.535,-3.535 38.479,-36.313 79.33,-72.76 105.337,-119.554 14.336,-25.796 24.724,-54.219 34.231,-82.087 9.496,-27.838 17.506,-56.164 24.679,-84.681 C -1.015,66.624 7.373,32.675 -4.821,1.329 -5.988,-1.671 -1.155,-2.972 0,0" /></g><g
           transform="translate(190.9976,50.0098)"
           id="g162"><path
             id="path164"
             style="fill:#48aa32;fill-opacity:1;fill-rule:nonzero;stroke:none"
             d="m 0,0 c -6.281,6.554 -34.718,36.224 -30.755,72.094 0.587,5.308 1.831,15.478 7.89,17.617 4.604,1.625 9.851,-0.863 12.918,-4.662 C -6.88,81.25 -5.51,76.397 -4.212,71.69 -0.868,59.556 2.476,47.42 5.82,35.285 l 0.222,83.968 c 0.04,14.93 0.148,30.249 5.506,44.184 2.78,7.231 7.312,14.268 14.313,17.584 7.001,3.315 16.743,1.541 20.354,-5.312 1.988,-3.773 1.86,-8.264 1.684,-12.525 l -1.163,-28.12 c 6.841,20.456 13.906,41.34 27.1,58.403 13.195,17.062 33.904,29.887 55.378,27.859 1.542,-0.145 3.168,-0.404 4.351,-1.403 3.308,-2.789 0.657,-8.102 -2.098,-11.439 -7.649,-9.265 -15.298,-18.532 -22.947,-27.798 29.542,19.666 63.749,32.271 98.988,36.478 3.657,0.437 8.825,-0.498 8.721,-4.18 -15.197,-8.37 -30.394,-16.74 -45.591,-25.11 20.617,-0.481 41.235,-0.963 61.852,-1.444 6.355,-0.149 12.859,-0.326 18.788,-2.619 5.928,-2.295 11.267,-7.167 12.303,-13.44 0.352,-2.132 0.148,-4.473 -1.153,-6.199 -1.935,-2.568 -5.565,-3.009 -8.78,-3.096 -17.412,-0.471 -34.645,3.159 -51.685,6.77 -13.715,2.906 -27.43,5.813 -41.146,8.719 12.756,-9.238 23.334,-21.461 30.646,-35.411 1.399,-2.669 2.669,-5.969 1.127,-8.558 -0.838,-1.408 -2.36,-2.272 -3.904,-2.817 -10.713,-3.774 -21.281,5.055 -30.04,12.286 -13.488,11.136 -37.193,16.482 -53.644,22.425 9.456,-12.35 11.798,-12.511 26.312,-25.776 5.736,-5.242 18.7,-16.292 13.143,-21.724 -5.908,-5.774 -12.165,-5.956 -24.955,-4 -19.404,2.967 -45.17,13.744 -64.5,17.169 9.006,-11.099 29.255,-10.203 38.261,-21.303 2.228,-2.746 4.59,-5.93 4.132,-9.438 C 96.939,95.925 93.857,93.454 91,91.394 69.203,75.679 51.043,85.948 27.502,72.99 c 20,-4 39.119,0.088 57,-6.5 C 96.718,61.99 83.616,45.059 76.528,38.99 67.416,31.188 56.937,26.018 48.002,21.49 28.306,11.51 21.908,10.433 10.002,10.005 7.884,9.929 11.015,-11.492 0,0" /></g><g
           transform="translate(199.9463,30.9922)"
           id="g166"><path
             id="path168"
             style="fill:#306f21;fill-opacity:1;fill-rule:nonzero;stroke:none"
             d="m 0,0 c 0.169,42.804 2.935,87.3 22.903,126.051 8.691,16.865 20.42,32.295 35.408,44.049 15.469,12.132 33.989,19.665 53.02,24.107 21.841,5.098 44.35,6.342 66.707,6.665 3.214,0.046 3.224,5.046 0,5 C 138.287,205.298 95.603,201.731 61.751,178.756 28.23,156.005 9.432,117.619 1.481,78.845 -3.833,52.926 -4.896,26.386 -5,0 -5.013,-3.218 -0.013,-3.222 0,0" /></g><g
           transform="translate(618.3623,794.0508)"
           id="g170"><path
             id="path172"
             style="fill:#45bf98;fill-opacity:1;fill-rule:nonzero;stroke:none"
             d="m 0,0 c -6.02,12.72 -12.131,25.764 -13.467,39.771 -0.985,10.33 0.681,20.708 2.341,30.951 4.213,25.978 8.425,51.957 12.637,77.935 0.809,4.996 2.704,11.121 7.716,11.829 4.513,0.639 8.179,-4.011 8.938,-8.507 0.759,-4.494 -0.301,-9.119 0.198,-13.65 0.498,-4.531 3.47,-9.466 8.026,-9.614 3.273,-0.107 6.102,2.32 7.977,5.005 5.368,7.681 5.56,17.694 5.982,27.056 0.766,17.022 2.943,33.982 6.574,50.629 0.683,3.133 1.471,6.367 3.463,8.879 1.992,2.512 5.537,4.085 8.488,2.833 3.193,-1.355 4.384,-5.199 5.062,-8.601 2.469,-12.391 3.127,-25.061 3.777,-37.679 1.099,-21.315 2.197,-42.628 3.296,-63.942 9.209,8.937 16.458,19.884 21.094,31.851 6.64,-17.208 -0.908,-36.728 2.192,-54.91 4.471,4.871 8.136,10.48 10.804,16.53 7.131,-5.538 8.28,-15.684 8.856,-24.695 1.407,-21.983 2.815,-43.968 4.221,-65.951 0.071,-1.111 0.19,-2.33 0.99,-3.104 0.8,-0.773 2.499,-0.557 2.638,0.546 1.144,-5.143 2.289,-10.288 3.433,-15.433 0.256,-1.152 0.469,-2.498 -0.298,-3.394 -0.591,-0.691 -1.572,-0.87 -2.473,-0.987 C 86.803,-11.283 50.237,12.894 16.034,1.783 10.509,-0.012 4.919,-2.737 -0.822,-1.842" /></g></g></g><g
       id="g174"><g
         clip-path="url(#clipPath180)"
         id="g176"><g
           transform="translate(0,1060.3335)"
           id="g182"><path
             id="path184"
             style="fill:#073715;fill-opacity:1;fill-rule:nonzero;stroke:none"
             d="m 0,0 c 11.781,-15.708 17.072,-27.486 19.617,-34.427 1.194,-3.258 3.678,-10.62 5.999,-17.999 1.604,-5.101 6.255,-8.584 4.5,-15 -9,-32.907 6.216,-21.211 7.5,-25.498 8.585,-28.674 9.134,-24.699 10.499,-32.998 3.11,-18.915 -1.362,-29.707 4.5,-32.999 4.982,-2.797 9.892,4.053 17.999,1.5 9.115,-2.871 10.05,-13.783 14.999,-13.499 5.213,0.297 12.351,-38.299 13.499,-28.499 0.471,4.012 -2.288,60.908 -7.499,83.996 -4.363,19.33 -5.735,20.523 -6,28.498 -0.351,10.585 1.99,10.727 3,25.499 1.422,20.792 -3.112,22.05 0,32.998 4.251,14.958 20.98,-13.909 17.999,-7.499 -2.424,5.214 -16.309,37.673 -19.499,43.498 -3.976,7.261 2.476,21.015 7.5,20.999 5.934,-0.02 43.497,-34.499 30.236,-73.762 -6.348,-18.792 5.357,-12.395 10.262,-11.734 5.7,0.769 16.053,-58.829 13.499,-43.407 -1.21,7.307 -4.32,87.839 -10.5,94.404 -23.998,25.499 -0.083,15.974 0,28.499 0.06,9.025 -1.46,18.016 -4.499,35.998 -3.404,20.136 -4.862,21.066 -4.5,28.499 0.673,13.805 -16.499,49.497 10.499,31.498 24.103,-16.068 -7.046,79.894 3,95.996 8.32,13.335 35.286,-18.418 34.498,-25.499 -4.499,-40.499 -5.808,-12.307 -4.499,-40.499 0.991,-21.352 9.047,-46.484 8.999,-46.497 -0.043,-0.012 1.388,0.18 0,0 -1.921,-0.249 14.999,-3 6,-34.498 -2.708,-9.476 28.498,-74.997 23.999,-12 -0.492,6.889 0.7,15.99 0,50.998 -1.5,74.996 10.225,14.71 16.499,20.998 6.495,6.509 2.411,51.405 8.999,43.498 15,-17.999 1.444,18.903 -8.999,29.999 -6.771,7.194 3.07,22.316 -9,31.499 -12.332,9.382 -16.039,23.627 -16.499,25.498 -1.106,4.498 -1.243,8.253 -1.311,10.394 -0.157,4.988 -0.484,15.386 2.811,16.605 5.472,2.023 16.371,-22.946 22.499,-20.999 3.091,0.982 1.93,7.845 4.5,20.999 3.019,15.457 6.726,16.745 8.999,28.498 3.94,20.364 -3.874,33.616 -1.5,34.499 3.337,1.239 22.331,-23.617 20.999,-52.498 -0.624,-13.535 -5.033,-13.231 -4.5,-25.498 0.878,-20.181 12.909,-23.232 16.5,-46.498 1.874,-12.141 -13.5,-52.498 1.5,-29.998 3.35,5.024 4.161,-26.857 9,-27 4.894,-0.143 4.318,22.371 11.999,41.999 13.499,34.498 -5.804,22.345 -9,50.997 -1.045,9.374 -9.713,19.898 -1.499,34.498 13.499,23.999 8.306,39.173 0,47.998 -24,25.499 -2.864,27.946 -4.5,52.497 -1.14,17.084 -9.101,17.567 -12,28.499 -6.608,24.92 -36.748,27.542 -37.498,44.998 -0.446,10.388 10.165,10.913 17.999,26.998 14.011,28.769 -6.353,54.977 6,65.997 11.58,10.33 36.424,-6.502 41.998,1.5 7.129,10.235 -31.646,40.459 -22.499,59.997 2.606,5.568 8.971,9.981 13.499,9 6.439,-1.397 4.967,-12.793 15,-28.499 7.848,-12.286 12.435,-11.083 14.999,-19.499 2.935,-9.635 -2.46,-13.239 -6,-32.999 -3.064,-17.104 -4.868,-27.172 0,-37.498 2.518,-5.341 6.688,-10.467 9,-19.499 1.643,-6.42 1.753,-12.349 1.753,-12.349 0.081,-4.337 -0.432,-7.122 -0.253,-7.15 0.498,-0.076 6.135,21.477 11.999,52.498 1.77,9.365 2.883,16.008 6,16.499 3.64,0.573 8.626,-7.469 10.499,-15 2.472,-9.938 -1.197,-16.084 -3,-25.498 -4.773,-24.924 8.542,-46.611 9,-46.498 0.288,0.072 -4.018,8.893 0,14.999 3.837,5.832 11.179,2.977 16.499,7.5 6.77,5.756 3.032,17.311 0,43.498 -0.515,4.44 0.376,-2.649 -3,44.997 -1.375,19.417 -1.95,26.617 0,37.499 0.901,5.03 2.601,10.853 6,22.499 4.317,14.792 9.112,21.421 8.999,25.499 -1.5,53.997 13.156,10.294 28.499,16.499 11.652,4.711 16.001,4.635 17.999,4.5 10.162,-0.692 20.505,-5.982 19.499,-9 -10.499,-31.498 11.807,-20.066 13.499,-28.499 1.705,-8.497 0.671,-10.618 1.5,-19.499 1.501,-16.073 -13.499,-35.998 12,-40.498 17.517,-3.091 2.861,-17.897 8.999,-40.498 2.879,-10.598 5.106,-17.08 7.5,-23.999 7.227,-20.886 -2.658,-34.329 1.5,-34.498 6.021,-0.245 7.108,40.173 14.474,25.031 26.998,-55.497 -1.841,41.921 2.025,60.465 3.176,15.232 14.985,13.843 17.999,31.499 1.843,10.797 -1.762,16.076 1.5,31.498 1.927,9.108 -6.11,39.29 -3,42.127 12.895,11.763 37.554,-49.025 43.498,-40.627 3.106,4.388 12.368,28.613 11.999,28.498 -0.458,-0.142 6.759,-14.881 9,-37.498 1.894,-19.123 -1.874,-22.631 3,-32.998 3.926,-8.351 8.275,-10.126 11.999,-20.999 3.348,-9.775 2.54,-16.244 4.5,-16.5 2.355,-0.306 4.514,8.906 11.999,26.999 1.33,3.215 5.124,12.258 10.5,22.499 7.355,14.012 11.3,21.528 14.999,20.999 3.402,-0.486 3.241,-7.299 9,-25.498 5.096,-16.105 7.583,-18.231 8.999,-28.499 0.842,-6.099 0.561,-11.065 0,-20.999 -1.461,-25.88 -5.563,-30.245 -1.5,-38.998 3.762,-8.107 8.099,-6.13 13.5,-16.499 2.024,-3.888 3.098,-7.398 5.999,-23.999 3.229,-18.473 3.624,-24.003 4.5,-23.999 2.383,0.01 -5.425,40.961 13.499,77.996 4.833,9.458 9.727,15.367 16.499,31.498 8.299,19.767 8.173,28.091 12,28.499 8.528,0.909 23.836,-38.867 28.498,-76.496 1.107,-8.927 2.007,-20.911 6,-38.998 1.38,-6.249 7.717,-34.953 11.999,-34.498 3.458,0.367 7.251,19.915 5.736,37.982 -0.414,4.94 -1.06,7.814 0.264,8.515 3.585,1.898 18.863,-13.583 25.499,-32.998 1.802,-5.274 2.701,-14.015 4.5,-31.498 2.117,-20.593 1.496,-22.515 2.999,-31.499 0.772,-4.609 -7.499,-41.998 2.067,-22.343 8.526,17.519 3.404,-42.77 8.433,-43.653 5.187,-0.912 15.484,13.265 22.62,31.45 5.283,13.459 14.878,-20.951 7.303,42.474 -4.604,38.549 9.528,52.054 10.575,88.067 0.447,15.395 -17.179,20.701 -23.999,43.498 -1.79,5.985 -6.455,61.136 9,71.997 7.039,4.947 14.475,-32.67 20.998,-35.999 10.892,-5.556 44.101,-22.787 29.999,-25.499 -38.998,-7.499 2.309,-14.952 3,-25.498 1.942,-29.609 12.885,-34.128 16.499,-64.497 2.979,-25.024 -17.999,-16.499 -17.999,-55.497 0,-45.155 14.73,-18.236 20.999,-40.498 5.843,-20.746 3.68,-40.451 3.68,-40.451 18.819,-29.436 0.867,-58.654 4.154,-68.443 4.834,-14.399 12.456,-13.968 13.165,-35.099 0.968,-28.856 1.968,-61.469 3,-61.497 1.757,-0.048 -4.443,94.643 20.998,101.995 8.443,2.44 19.042,-5.119 23.999,-11.999 6.167,-8.559 4.679,-17.56 1.5,-50.998 -1.91,-20.102 -2.866,-30.153 -3,-34.498 -0.871,-28.29 5.659,-32.596 7.5,-59.997 2.404,-35.755 -7.916,-40.297 -3,-70.497 4.115,-25.274 14.954,-44.286 17.999,-43.497 5.071,1.313 -13.117,57.109 4.5,67.496 6.467,3.813 17.002,1.062 22.499,-4.5 6.189,-6.262 3.793,-13.864 4.5,-53.997 0.077,-4.364 0.283,-13.111 2.999,-23.999 3.887,-15.57 8.998,-19.844 10.5,-20.998 0,-0.001 6.807,-5.231 17.936,-4.5 V 859.667 H 0 Z" /></g></g></g><path
       id="path186"
       style="fill:#5b2913;fill-opacity:1;fill-rule:nonzero;stroke:none"
       d="M 0,0 H 61 V 1920 H 0 Z" /><path
       id="path188"
       style="fill:#5b2913;fill-opacity:1;fill-rule:nonzero;stroke:none"
       d="M 1024.995,0 H 1080 v 1920 h -55.005 z" /></g></svg>