<svg id="svg" version="1.1" width="400" height="573.3832175307323" viewBox="0 0 400 573.3832175307323" xmlns="http://www.w3.org/2000/svg" xmlns:xlink="http://www.w3.org/1999/xlink" ><g id="svgg"><path id="path0" d="M196.034 74.035 C 168.077 92.817,136.424 120.853,109.660 150.538 C 103.656 157.197,96.055 166.304,88.620 175.747 C 86.044 179.020,81.303 185.369,78.273 189.606 C 76.581 191.971,74.687 194.619,74.063 195.490 C 67.737 204.328,56.851 221.866,50.646 233.214 C 47.189 239.539,38.471 256.740,38.471 257.238 C 38.471 257.279,37.651 259.067,36.650 261.213 C 33.717 267.496,30.669 274.393,27.062 282.915 C 12.285 317.819,8.003 341.966,12.931 362.605 C 20.444 394.070,45.055 424.447,74.194 438.216 C 92.951 447.080,110.816 448.363,134.289 442.533 C 139.558 441.224,144.563 439.794,151.016 437.754 C 174.927 430.196,179.514 429.968,182.326 436.201 C 184.810 441.708,184.598 448.561,181.144 474.313 C 178.963 490.578,179.525 503.920,182.697 511.136 L 183.076 511.997 191.000 512.154 C 195.359 512.240,200.376 512.373,202.151 512.448 L 205.376 512.585 206.298 511.012 C 211.431 502.257,212.092 488.634,208.500 465.655 C 204.970 443.073,204.671 437.725,206.703 433.533 C 208.960 428.877,212.099 429.133,220.080 434.625 C 237.788 446.810,245.380 450.878,257.539 454.699 C 279.192 461.502,306.590 460.716,330.466 452.605 C 377.282 436.702,394.724 401.576,382.810 347.192 C 376.238 317.193,362.960 286.070,334.588 234.157 C 328.940 223.823,320.198 210.941,309.324 196.928 C 307.350 194.384,305.520 192.014,305.257 191.662 C 301.758 186.968,285.088 166.834,276.477 156.902 C 263.457 141.885,247.764 124.347,236.679 112.425 C 227.691 102.759,223.087 97.829,219.497 94.026 C 208.941 82.845,198.831 72.396,198.580 72.408 C 198.507 72.411,197.361 73.143,196.034 74.035 M207.407 113.213 L 207.407 117.944 208.303 118.805 C 208.796 119.279,210.205 120.167,211.434 120.779 C 213.424 121.771,213.652 121.950,213.516 122.416 C 211.899 127.976,209.740 146.414,208.566 164.694 L 208.278 169.174 208.858 169.794 C 212.956 174.178,223.360 177.760,233.214 178.180 C 235.304 178.269,236.748 178.432,236.854 178.590 C 236.951 178.735,237.031 182.552,237.033 187.074 L 237.037 195.294 233.154 195.152 C 224.537 194.835,213.891 192.428,208.145 189.497 L 207.190 189.010 207.066 189.786 C 206.939 190.584,206.287 205.008,205.590 222.418 C 205.364 228.084,205.285 232.375,205.405 232.487 C 205.521 232.594,206.906 233.013,208.483 233.417 C 217.159 235.639,230.208 237.075,244.982 237.436 L 251.374 237.592 251.374 246.074 L 251.374 254.557 244.982 254.403 C 230.154 254.045,215.665 252.549,206.693 250.449 C 205.578 250.188,204.650 249.994,204.631 250.017 C 204.612 250.041,204.404 257.617,204.169 266.853 L 203.741 283.647 204.678 284.617 C 213.429 293.673,246.799 301.539,276.523 301.552 L 280.048 301.553 280.048 310.072 L 280.048 318.590 273.656 318.424 C 245.818 317.701,215.952 311.749,204.348 304.612 C 203.914 304.346,203.514 304.172,203.459 304.227 C 203.333 304.353,202.900 325.139,202.827 334.545 L 202.773 341.612 203.998 344.103 C 213.368 363.169,254.798 377.815,303.047 379.117 L 309.200 379.283 309.200 387.752 L 309.200 396.221 303.883 396.068 C 260.560 394.824,226.441 385.654,204.161 369.266 L 202.468 368.020 202.309 388.829 C 202.222 400.273,202.151 413.438,202.151 418.083 L 202.151 426.529 193.728 426.467 L 185.305 426.404 185.399 395.635 L 185.493 364.865 182.651 366.739 C 180.238 368.331,177.301 370.027,173.477 372.038 C 154.805 381.858,118.157 389.246,88.112 389.247 L 83.154 389.247 83.154 380.919 L 83.154 372.591 84.982 372.436 C 85.988 372.352,88.126 372.282,89.735 372.282 C 107.368 372.282,132.527 368.537,148.865 363.481 C 169.678 357.039,184.236 347.005,185.114 338.496 C 185.197 337.689,185.366 337.157,185.539 337.157 C 185.756 337.157,185.865 334.486,185.985 326.225 C 186.072 320.212,186.214 311.671,186.299 307.244 L 186.455 299.195 183.575 300.352 C 163.775 308.314,124.571 313.669,85.603 313.735 L 83.154 313.740 83.154 305.257 L 83.154 296.774 85.484 296.772 C 129.420 296.728,174.807 289.291,184.826 280.494 C 185.521 279.884,185.715 279.820,186.150 280.053 C 186.887 280.447,186.824 281.245,187.204 266.649 C 187.398 259.233,187.616 251.922,187.689 250.402 C 187.851 247.029,188.093 247.231,184.875 248.053 C 171.144 251.562,135.583 254.469,106.272 254.478 L 100.597 254.480 100.597 245.998 L 100.597 237.515 106.153 237.511 C 139.286 237.490,176.122 234.058,186.117 230.061 L 187.406 229.545 187.849 230.092 C 188.114 230.420,188.292 230.508,188.292 230.313 C 188.296 228.944,189.589 199.515,189.971 192.115 C 190.096 189.683,190.200 187.403,190.201 187.046 L 190.203 186.398 188.351 187.188 C 177.421 191.851,157.947 195.216,141.873 195.220 L 138.345 195.221 138.408 186.798 L 138.471 178.375 141.338 178.325 C 163.137 177.940,186.108 172.403,189.897 166.621 C 190.162 166.216,190.401 166.110,190.812 166.213 C 191.497 166.385,191.513 166.300,191.874 160.693 C 193.444 136.310,196.125 118.285,198.857 113.754 C 200.703 110.692,203.892 108.569,206.750 108.499 L 207.407 108.483 207.407 113.213 M228.707 112.942 C 233.673 116.583,266.302 152.875,294.626 186.260 C 301.534 194.403,314.022 212.296,323.058 227.001 C 326.013 231.809,329.011 236.776,329.975 238.460 C 330.467 239.320,331.888 241.798,333.133 243.967 C 345.632 265.739,360.829 296.878,365.025 309.311 C 369.952 323.910,365.068 327.772,350.655 320.673 C 333.477 312.212,320.157 294.409,301.192 254.564 C 297.680 247.184,294.618 240.598,287.213 224.492 C 269.004 184.891,258.524 165.536,236.237 130.346 C 229.392 119.539,227.213 115.846,226.408 113.689 C 225.602 111.529,226.419 111.264,228.707 112.942 M33.444 319.937 C 33.875 320.742,33.718 322.334,32.735 327.121 C 28.586 347.336,30.660 361.476,39.271 371.685 C 40.682 373.358,41.842 374.622,46.730 379.811 C 72.747 407.427,91.685 431.177,90.081 434.175 C 88.416 437.286,69.557 425.648,54.839 412.425 C 21.919 382.851,11.440 361.323,18.909 338.611 C 22.354 328.135,31.526 316.352,33.444 319.937 M363.123 387.600 C 368.077 392.156,363.013 412.449,354.156 423.536 C 343.752 436.559,329.870 443.372,315.915 442.303 C 299.928 441.079,286.646 432.226,292.922 426.978 C 294.184 425.923,296.885 424.686,303.345 422.205 C 323.748 414.367,334.845 407.620,352.449 392.351 C 358.659 386.965,361.201 385.833,363.123 387.600 " stroke="none" fill="#abc373" fill-rule="evenodd"></path><path id="path1" d="M197.843 61.579 C 197.518 61.804,197.106 62.130,196.928 62.304 C 196.750 62.478,196.213 62.834,195.734 63.094 C 195.255 63.355,193.949 64.212,192.832 64.998 C 191.714 65.785,190.102 66.919,189.247 67.519 C 188.393 68.118,187.049 69.088,186.260 69.672 C 185.472 70.257,184.450 71.003,183.990 71.329 C 181.235 73.286,177.032 76.461,176.703 76.836 C 176.571 76.985,176.060 77.347,175.568 77.641 C 175.075 77.935,174.671 78.247,174.670 78.335 C 174.669 78.423,174.266 78.763,173.774 79.092 C 173.282 79.420,172.762 79.796,172.620 79.928 C 172.477 80.060,171.536 80.811,170.529 81.598 C 169.522 82.385,168.698 83.110,168.698 83.211 C 168.698 83.311,168.563 83.395,168.399 83.396 C 168.235 83.398,167.648 83.802,167.096 84.293 C 166.543 84.783,165.486 85.669,164.747 86.260 C 163.588 87.187,160.126 90.085,156.870 92.853 C 154.411 94.944,144.656 103.541,142.416 105.591 C 136.967 110.579,131.931 115.419,125.586 121.765 C 116.955 130.398,107.297 140.608,103.683 144.919 C 103.366 145.298,102.768 145.991,102.355 146.460 C 100.078 149.044,97.124 152.436,96.514 153.166 C 96.130 153.626,95.400 154.486,94.891 155.078 C 94.382 155.669,92.872 157.497,91.536 159.140 C 90.199 160.783,88.924 162.342,88.701 162.605 C 88.115 163.296,84.396 167.978,83.789 168.789 C 83.506 169.168,82.944 169.867,82.541 170.342 C 82.138 170.818,81.552 171.583,81.238 172.043 C 80.925 172.503,80.597 172.933,80.509 172.999 C 80.421 173.065,80.040 173.557,79.661 174.092 C 79.282 174.628,78.168 176.133,77.185 177.438 C 74.670 180.774,74.619 180.843,72.777 183.444 C 71.866 184.730,70.657 186.381,70.089 187.112 C 69.521 187.843,69.056 188.555,69.056 188.695 C 69.056 188.835,68.904 189.076,68.719 189.230 C 68.409 189.487,66.437 192.278,64.994 194.501 C 64.665 195.007,63.617 196.569,62.664 197.972 C 61.711 199.376,60.932 200.550,60.932 200.582 C 60.932 200.614,60.045 202.000,58.961 203.661 C 56.153 207.965,55.604 208.822,55.177 209.574 C 54.968 209.941,54.332 210.974,53.764 211.871 C 51.222 215.878,50.896 216.410,50.896 216.556 C 50.896 216.642,50.412 217.459,49.821 218.374 C 49.229 219.288,48.746 220.100,48.746 220.179 C 48.746 220.258,48.315 221.003,47.790 221.836 C 47.264 222.668,46.834 223.417,46.834 223.501 C 46.834 223.584,46.350 224.430,45.759 225.380 C 45.167 226.331,44.683 227.202,44.683 227.317 C 44.683 227.431,44.484 227.810,44.240 228.159 C 43.841 228.729,43.025 230.224,40.435 235.125 C 38.881 238.066,32.376 251.044,31.326 253.298 C 30.748 254.540,29.899 256.362,29.439 257.348 C 28.980 258.333,28.199 260.000,27.704 261.051 C 27.209 262.103,26.297 264.092,25.679 265.472 C 25.060 266.852,24.083 269.002,23.507 270.251 C 22.932 271.499,22.461 272.599,22.461 272.696 C 22.461 272.792,22.031 273.788,21.505 274.910 C 20.980 276.033,20.550 277.043,20.550 277.155 C 20.550 277.268,20.066 278.402,19.474 279.676 C 18.883 280.951,18.399 282.111,18.399 282.254 C 18.399 282.398,18.025 283.304,17.568 284.268 C 17.110 285.231,16.664 286.316,16.577 286.678 C 16.489 287.040,15.949 288.398,15.377 289.696 C 14.805 290.995,14.337 292.191,14.337 292.355 C 14.337 292.519,14.055 293.284,13.710 294.056 C 13.365 294.828,12.787 296.320,12.425 297.372 C 8.534 308.684,6.213 315.825,6.213 316.486 C 6.213 316.690,5.841 318.118,5.386 319.659 C 4.931 321.200,4.487 322.945,4.400 323.536 C 4.313 324.128,3.941 325.956,3.575 327.599 C 1.829 335.420,0.990 346.812,1.649 353.763 C 1.798 355.341,2.024 357.706,2.152 359.020 C 2.556 363.196,5.016 372.568,7.130 377.990 C 7.611 379.224,8.097 380.515,8.210 380.858 C 8.846 382.794,13.793 393.028,15.262 395.448 C 15.705 396.177,16.307 397.204,16.599 397.730 C 17.636 399.592,19.196 402.042,19.868 402.862 C 20.243 403.319,20.550 403.771,20.550 403.867 C 20.550 404.027,23.016 407.548,24.285 409.200 C 24.588 409.594,25.188 410.376,25.620 410.938 C 30.635 417.475,38.096 425.186,44.446 430.397 C 49.506 434.550,49.588 434.615,50.473 435.222 C 50.903 435.517,52.353 436.530,53.695 437.473 C 55.038 438.416,56.200 439.188,56.277 439.188 C 56.355 439.188,57.055 439.620,57.834 440.149 C 58.613 440.678,59.440 441.179,59.673 441.263 C 59.905 441.347,60.371 441.606,60.707 441.839 C 61.043 442.071,62.226 442.734,63.335 443.311 C 64.445 443.888,65.568 444.480,65.830 444.627 C 66.626 445.072,70.544 446.885,71.585 447.290 C 72.122 447.499,73.574 448.067,74.811 448.551 C 91.358 455.033,109.784 455.654,129.566 450.398 C 131.502 449.883,133.239 449.462,133.426 449.462 C 133.939 449.462,144.489 446.149,149.582 444.389 C 151.093 443.867,152.706 443.355,153.166 443.252 C 153.626 443.149,155.131 442.685,156.511 442.220 C 176.830 435.378,180.216 438.819,175.745 461.768 C 175.181 464.659,174.437 468.799,174.090 470.968 C 171.270 488.619,172.403 500.656,177.959 512.067 C 178.932 514.065,180.223 516.257,180.634 516.607 C 180.711 516.673,180.904 517.022,181.063 517.384 L 181.352 518.041 195.156 518.034 L 208.961 518.027 209.986 516.780 C 211.999 514.332,214.965 508.969,215.369 507.049 C 215.438 506.720,215.825 505.376,216.230 504.062 C 216.634 502.748,217.072 500.705,217.202 499.522 C 217.332 498.339,217.547 496.458,217.678 495.341 C 217.983 492.750,217.980 484.713,217.673 481.601 C 217.543 480.287,217.332 477.975,217.204 476.464 C 217.075 474.952,216.642 471.995,216.240 469.892 C 215.839 467.790,215.415 465.376,215.299 464.529 C 215.183 463.682,214.654 460.994,214.122 458.556 C 212.640 451.753,211.506 445.715,211.327 443.669 C 210.850 438.224,214.529 436.968,219.952 440.723 C 220.346 440.996,220.843 441.327,221.055 441.458 C 222.047 442.070,225.068 444.218,225.390 444.540 C 225.589 444.739,226.069 445.094,226.457 445.330 C 226.846 445.566,227.604 446.081,228.141 446.476 C 229.244 447.284,231.729 448.989,232.952 449.776 C 233.399 450.063,234.636 450.863,235.700 451.554 C 236.764 452.244,238.011 453.001,238.471 453.236 C 238.931 453.471,239.683 453.904,240.143 454.198 C 241.189 454.866,250.560 459.498,250.866 459.498 C 250.989 459.498,251.808 459.820,252.685 460.214 C 254.678 461.108,260.930 463.256,262.776 463.681 C 263.536 463.856,265.368 464.331,266.847 464.737 C 268.327 465.142,270.208 465.574,271.029 465.695 C 271.849 465.817,273.811 466.136,275.388 466.404 C 281.824 467.498,283.816 467.630,293.954 467.633 C 304.259 467.637,306.564 467.485,313.859 466.322 C 315.830 466.007,317.927 465.688,318.519 465.611 C 320.103 465.406,327.540 463.614,330.705 462.674 C 332.216 462.225,333.990 461.719,334.648 461.550 C 335.305 461.382,336.810 460.867,337.993 460.408 C 339.176 459.948,340.448 459.497,340.820 459.406 C 341.192 459.315,342.302 458.868,343.287 458.414 C 344.271 457.959,345.174 457.587,345.292 457.587 C 345.486 457.587,349.076 455.950,350.896 455.032 C 355.956 452.479,358.123 451.236,362.106 448.604 C 362.883 448.091,363.863 447.455,364.283 447.192 C 364.703 446.930,365.358 446.466,365.737 446.163 C 366.117 445.859,367.449 444.805,368.698 443.820 C 371.623 441.513,375.675 437.704,377.948 435.125 C 379.659 433.185,383.751 427.918,383.751 427.658 C 383.751 427.589,384.199 426.863,384.747 426.043 C 386.178 423.900,389.962 416.555,389.966 415.914 C 389.966 415.769,390.107 415.382,390.278 415.054 C 391.968 411.813,394.058 403.571,395.371 394.982 C 395.962 391.112,396.102 376.981,395.601 371.710 C 394.524 360.380,392.195 348.308,388.843 336.679 C 387.330 331.431,385.995 327.180,384.904 324.134 C 384.386 322.688,383.860 321.101,383.735 320.606 C 383.611 320.112,383.148 318.768,382.707 317.619 C 380.810 312.684,380.320 311.384,379.804 309.916 C 379.504 309.062,378.925 307.627,378.518 306.728 C 378.111 305.829,377.778 304.976,377.778 304.833 C 377.778 304.592,377.115 303.009,374.652 297.372 C 374.135 296.189,373.713 295.148,373.714 295.058 C 373.715 294.969,373.225 293.840,372.625 292.549 C 372.024 291.259,371.101 289.235,370.572 288.053 C 370.043 286.870,369.199 285.042,368.697 283.990 C 368.194 282.939,367.115 280.627,366.299 278.853 C 364.935 275.887,355.285 256.649,353.355 253.047 C 351.792 250.131,350.235 247.194,349.200 245.210 C 348.631 244.120,347.946 242.920,347.679 242.545 C 347.411 242.169,347.192 241.705,347.192 241.513 C 347.192 241.321,346.996 240.907,346.755 240.594 C 346.515 240.280,345.747 238.949,345.049 237.634 C 343.173 234.101,342.623 233.089,341.220 230.585 C 340.520 229.337,339.718 227.885,339.437 227.360 C 339.156 226.834,338.528 225.783,338.041 225.025 C 337.555 224.267,337.157 223.589,337.157 223.519 C 337.157 223.449,336.552 222.457,335.814 221.314 C 335.076 220.171,334.126 218.698,333.704 218.041 C 332.861 216.728,332.749 216.560,330.761 213.634 C 330.007 212.525,329.194 211.296,328.954 210.903 C 328.713 210.511,328.149 209.740,327.699 209.192 C 327.250 208.643,326.882 208.125,326.882 208.040 C 326.882 207.901,326.253 207.033,324.115 204.218 C 323.731 203.712,323.148 202.893,322.820 202.397 C 321.638 200.614,319.143 197.372,318.952 197.372 C 318.845 197.372,318.757 197.225,318.757 197.047 C 318.757 196.868,318.351 196.250,317.854 195.673 C 317.357 195.096,316.793 194.394,316.600 194.112 C 315.841 193.008,311.753 187.680,311.491 187.455 C 311.338 187.324,310.958 186.840,310.647 186.380 C 310.336 185.920,309.959 185.436,309.810 185.305 C 309.661 185.173,309.221 184.636,308.833 184.110 C 308.445 183.584,308.068 183.100,307.995 183.035 C 307.923 182.969,306.937 181.732,305.805 180.287 C 304.673 178.841,303.468 177.398,303.127 177.079 C 302.787 176.760,302.509 176.395,302.509 176.267 C 302.509 176.140,302.023 175.486,301.429 174.816 C 300.835 174.145,300.216 173.433,300.055 173.234 C 299.893 173.034,298.340 171.153,296.603 169.052 C 294.866 166.952,293.199 164.935,292.899 164.570 C 292.599 164.206,291.596 163.023,290.671 161.942 C 289.745 160.861,288.670 159.584,288.281 159.104 C 286.913 157.415,283.991 153.979,282.090 151.823 C 281.032 150.624,279.772 149.172,279.289 148.597 C 278.325 147.449,271.183 139.237,270.482 138.471 C 270.242 138.208,269.619 137.509,269.098 136.918 C 264.283 131.454,256.122 122.309,254.705 120.789 C 254.214 120.263,253.345 119.304,252.773 118.658 C 251.608 117.344,249.952 115.539,248.852 114.385 C 248.451 113.964,247.060 112.437,245.761 110.992 C 242.527 107.393,241.777 106.570,241.201 105.993 C 240.929 105.719,239.376 104.044,237.750 102.270 C 236.124 100.496,233.498 97.657,231.913 95.962 C 230.329 94.267,228.226 92.016,227.240 90.959 C 224.494 88.016,221.502 84.850,220.311 83.625 C 219.719 83.018,217.891 81.085,216.249 79.331 C 214.606 77.576,212.778 75.646,212.186 75.042 C 211.595 74.437,209.829 72.601,208.262 70.961 C 203.734 66.224,198.736 61.171,198.579 61.171 C 198.499 61.171,198.168 61.355,197.843 61.579 M204.941 78.554 C 211.700 85.541,227.553 102.335,234.884 110.275 C 243.307 119.398,244.542 120.745,249.240 125.926 C 277.984 157.628,300.742 184.759,315.990 205.498 C 317.293 207.271,318.644 209.098,318.992 209.558 C 323.701 215.782,331.082 227.362,335.347 235.220 C 336.568 237.468,338.213 240.490,339.005 241.935 C 342.962 249.166,349.156 261.014,353.096 268.891 C 358.249 279.191,358.907 280.581,364.039 291.995 C 366.396 297.238,369.888 305.604,371.371 309.558 C 379.363 330.873,383.683 346.775,385.521 361.649 C 389.500 393.851,382.542 417.192,364.024 433.761 C 360.881 436.573,356.900 439.632,354.002 441.463 C 324.666 459.995,284.981 464.774,253.621 453.551 C 243.106 449.789,235.870 445.763,220.780 435.280 C 213.186 430.004,210.269 429.249,207.896 431.944 C 205.195 435.013,205.073 443.694,207.526 458.303 C 208.176 462.174,209.646 472.283,210.158 476.408 C 212.093 491.993,210.482 505.446,205.904 511.921 L 205.416 512.612 197.272 512.456 C 192.793 512.370,187.721 512.234,186.002 512.153 L 182.875 512.007 182.231 510.351 C 178.756 501.418,178.778 489.840,182.319 463.784 C 184.266 449.454,184.218 440.340,182.173 436.256 C 179.169 430.255,174.533 430.482,151.613 437.752 C 117.221 448.661,98.409 449.084,76.491 439.438 C 45.933 425.991,19.807 394.214,12.537 361.649 C 8.507 343.597,11.813 320.562,22.104 294.982 C 22.422 294.194,23.325 291.882,24.113 289.845 C 26.130 284.627,29.928 275.567,32.126 270.729 C 32.694 269.480,33.646 267.384,34.242 266.069 C 47.821 236.146,60.385 214.236,78.226 189.367 C 103.862 153.632,138.176 118.026,174.194 89.787 C 181.189 84.303,197.917 72.233,198.602 72.175 C 198.687 72.168,201.539 75.039,204.941 78.554 " stroke="none" fill="#5c6c3c" fill-rule="evenodd"></path><path id="path2" d="M204.980 108.815 C 200.376 110.055,197.784 114.066,196.081 122.581 C 194.605 129.965,192.799 146.330,191.874 160.693 C 191.513 166.300,191.497 166.385,190.812 166.213 C 190.401 166.110,190.162 166.216,189.897 166.621 C 186.108 172.403,163.137 177.940,141.338 178.325 L 138.471 178.375 138.408 186.798 L 138.345 195.221 141.873 195.220 C 157.947 195.216,177.421 191.851,188.351 187.188 L 190.203 186.398 190.201 187.046 C 190.200 187.403,190.096 189.683,189.971 192.115 C 189.589 199.515,188.296 228.944,188.292 230.313 C 188.292 230.508,188.114 230.420,187.849 230.092 L 187.406 229.545 186.117 230.061 C 176.122 234.058,139.286 237.490,106.153 237.511 L 100.597 237.515 100.597 245.998 L 100.597 254.480 106.272 254.478 C 135.583 254.469,171.144 251.562,184.875 248.053 C 188.093 247.231,187.851 247.029,187.689 250.402 C 187.616 251.922,187.398 259.233,187.204 266.649 C 186.824 281.245,186.887 280.447,186.150 280.053 C 185.715 279.820,185.521 279.884,184.826 280.494 C 174.807 289.291,129.420 296.728,85.484 296.772 L 83.154 296.774 83.154 305.257 L 83.154 313.740 85.603 313.735 C 124.571 313.669,163.775 308.314,183.575 300.352 L 186.455 299.195 186.299 307.244 C 186.214 311.671,186.072 320.212,185.985 326.225 C 185.865 334.486,185.756 337.157,185.539 337.157 C 185.366 337.157,185.197 337.689,185.114 338.496 C 183.395 355.150,135.032 372.282,89.735 372.282 C 88.126 372.282,85.988 372.352,84.982 372.436 L 83.154 372.591 83.154 380.919 L 83.154 389.247 88.112 389.247 C 118.157 389.246,154.805 381.858,173.477 372.038 C 177.301 370.027,180.238 368.331,182.651 366.739 L 185.493 364.865 185.399 395.635 L 185.305 426.404 193.728 426.467 L 202.151 426.529 202.151 418.083 C 202.151 413.438,202.222 400.273,202.309 388.829 L 202.468 368.020 204.161 369.266 C 226.441 385.654,260.560 394.824,303.883 396.068 L 309.200 396.221 309.200 387.752 L 309.200 379.283 303.047 379.117 C 254.798 377.815,213.368 363.169,203.998 344.103 L 202.773 341.612 202.827 334.545 C 202.900 325.139,203.333 304.353,203.459 304.227 C 203.514 304.172,203.914 304.346,204.348 304.612 C 215.952 311.749,245.818 317.701,273.656 318.424 L 280.048 318.590 280.048 310.072 L 280.048 301.553 276.523 301.552 C 246.799 301.539,213.429 293.673,204.678 284.617 L 203.741 283.647 204.169 266.853 C 204.404 257.617,204.612 250.041,204.631 250.017 C 204.650 249.994,205.578 250.188,206.693 250.449 C 215.665 252.549,230.154 254.045,244.982 254.403 L 251.374 254.557 251.374 246.074 L 251.374 237.592 244.982 237.436 C 230.208 237.075,217.159 235.639,208.483 233.417 C 206.906 233.013,205.521 232.594,205.405 232.487 C 205.285 232.375,205.364 228.084,205.590 222.418 C 206.287 205.008,206.939 190.584,207.066 189.786 L 207.190 189.010 208.145 189.497 C 213.891 192.428,224.537 194.835,233.154 195.152 L 237.037 195.294 237.033 187.074 C 237.031 182.552,236.951 178.735,236.854 178.590 C 236.748 178.432,235.304 178.269,233.214 178.180 C 223.360 177.760,212.956 174.178,208.858 169.794 L 208.278 169.174 208.566 164.694 C 209.740 146.414,211.899 127.976,213.516 122.416 C 213.652 121.950,213.424 121.771,211.434 120.779 C 210.205 120.167,208.796 119.279,208.303 118.805 L 207.407 117.944 207.407 113.213 L 207.407 108.483 206.750 108.499 C 206.389 108.508,205.592 108.650,204.980 108.815 M10.813 343.967 C 10.816 344.492,10.865 344.679,10.922 344.382 C 10.979 344.085,10.977 343.655,10.917 343.426 C 10.857 343.198,10.810 343.441,10.813 343.967 M10.818 346.476 C 10.818 347.067,10.864 347.309,10.921 347.013 C 10.978 346.717,10.978 346.234,10.921 345.938 C 10.864 345.642,10.818 345.884,10.818 346.476 M386.458 375.508 C 386.459 376.428,386.503 376.775,386.554 376.279 C 386.606 375.783,386.605 375.031,386.552 374.606 C 386.500 374.182,386.457 374.588,386.458 375.508 M386.458 381.004 C 386.459 381.924,386.503 382.271,386.554 381.775 C 386.606 381.279,386.605 380.526,386.552 380.102 C 386.500 379.678,386.457 380.084,386.458 381.004 M288.241 459.436 C 289.001 459.484,290.184 459.483,290.869 459.435 C 291.554 459.387,290.932 459.348,289.486 459.349 C 288.041 459.349,287.480 459.389,288.241 459.436 M179.750 490.442 C 179.752 490.968,179.801 491.155,179.858 490.857 C 179.916 490.560,179.913 490.130,179.854 489.902 C 179.794 489.673,179.747 489.916,179.750 490.442 M179.750 495.221 C 179.752 495.747,179.801 495.934,179.858 495.636 C 179.916 495.339,179.913 494.909,179.854 494.681 C 179.794 494.452,179.747 494.695,179.750 495.221 " stroke="none" fill="#84b444" fill-rule="evenodd"></path><path id="path3" d="M226.128 112.195 C 225.714 113.274,227.827 117.069,236.237 130.346 C 258.524 165.536,269.004 184.891,287.213 224.492 C 294.618 240.598,297.680 247.184,301.192 254.564 C 320.157 294.409,333.477 312.212,350.655 320.673 C 365.068 327.772,369.952 323.910,365.025 309.311 C 360.829 296.878,345.632 265.739,333.133 243.967 C 331.888 241.798,330.467 239.320,329.975 238.460 C 329.011 236.776,326.013 231.809,323.058 227.001 C 314.022 212.296,301.534 194.403,294.626 186.260 C 274.044 162.001,242.595 126.538,233.719 117.580 C 228.925 112.742,226.562 111.066,226.128 112.195 M31.063 319.939 C 27.126 322.029,21.540 330.610,18.909 338.611 C 11.988 359.657,20.942 380.512,47.770 405.830 C 61.622 418.902,73.261 427.766,83.001 432.660 C 95.640 439.011,91.886 431.307,69.763 405.496 C 60.818 395.059,55.320 388.928,46.730 379.811 C 41.842 374.622,40.682 373.358,39.271 371.685 C 30.660 361.476,28.586 347.336,32.735 327.121 C 34.240 319.790,33.922 318.422,31.063 319.939 M359.143 387.341 C 357.852 387.943,355.514 389.692,352.449 392.351 C 334.845 407.620,323.748 414.367,303.345 422.205 C 294.641 425.548,292.540 426.685,291.668 428.522 C 288.562 435.068,307.036 443.505,321.827 442.297 C 337.068 441.052,352.273 429.954,359.643 414.695 C 366.985 399.493,366.699 383.820,359.143 387.341 " stroke="none" fill="#dbe3a3" fill-rule="evenodd"></path><path id="path4" d="M202.270 75.986 C 203.711 77.431,204.944 78.614,205.010 78.614 C 205.075 78.614,203.950 77.431,202.509 75.986 C 201.068 74.540,199.835 73.357,199.769 73.357 C 199.703 73.357,200.829 74.540,202.270 75.986 M192.712 76.126 L 191.995 76.742 192.772 76.228 C 193.199 75.945,193.548 75.668,193.548 75.611 C 193.548 75.432,193.447 75.494,192.712 76.126 M186.977 80.188 L 186.260 80.804 187.037 80.290 C 187.464 80.008,187.814 79.730,187.814 79.673 C 187.814 79.494,187.712 79.557,186.977 80.188 M208.359 82.258 C 210.685 84.644,210.992 84.935,210.992 84.763 C 210.992 84.728,209.836 83.572,208.423 82.194 L 205.854 79.689 208.359 82.258 M213.262 87.455 C 214.175 88.375,214.975 89.128,215.041 89.128 C 215.107 89.128,214.414 88.375,213.501 87.455 C 212.588 86.535,211.787 85.783,211.721 85.783 C 211.656 85.783,212.349 86.535,213.262 87.455 M173.357 90.463 L 172.640 91.079 173.417 90.565 C 173.844 90.282,174.194 90.005,174.194 89.948 C 174.194 89.769,174.092 89.831,173.357 90.463 M217.443 91.876 C 218.290 92.730,219.036 93.429,219.102 93.429 C 219.168 93.429,218.529 92.730,217.682 91.876 C 216.836 91.022,216.089 90.323,216.023 90.323 C 215.958 90.323,216.597 91.022,217.443 91.876 M221.734 96.356 C 222.725 97.411,222.939 97.601,222.939 97.421 C 222.939 97.383,222.428 96.872,221.804 96.286 L 220.669 95.221 221.734 96.356 M225.448 100.358 C 226.228 101.147,226.921 101.792,226.986 101.792 C 227.052 101.792,226.467 101.147,225.687 100.358 C 224.907 99.570,224.214 98.925,224.149 98.925 C 224.083 98.925,224.668 99.570,225.448 100.358 M159.483 101.852 L 158.781 102.628 159.558 101.927 C 159.985 101.541,160.335 101.191,160.335 101.150 C 160.335 100.965,160.137 101.128,159.483 101.852 M229.032 104.182 C 229.813 104.970,230.505 105.615,230.570 105.615 C 230.636 105.615,230.052 104.970,229.271 104.182 C 228.491 103.393,227.799 102.748,227.733 102.748 C 227.667 102.748,228.252 103.393,229.032 104.182 M154.465 106.153 L 153.763 106.930 154.540 106.228 C 154.967 105.842,155.317 105.492,155.317 105.451 C 155.317 105.267,155.119 105.429,154.465 106.153 M232.019 107.407 C 232.733 108.130,233.371 108.722,233.436 108.722 C 233.502 108.722,232.972 108.130,232.258 107.407 C 231.544 106.685,230.906 106.093,230.841 106.093 C 230.775 106.093,231.305 106.685,232.019 107.407 M152.675 107.706 L 151.852 108.602 152.748 107.779 C 153.582 107.012,153.754 106.810,153.571 106.810 C 153.531 106.810,153.128 107.213,152.675 107.706 M150.407 109.737 L 149.462 110.753 150.478 109.808 C 151.422 108.930,151.603 108.722,151.422 108.722 C 151.383 108.722,150.926 109.179,150.407 109.737 M235.115 110.693 C 235.701 111.317,236.212 111.828,236.250 111.828 C 236.430 111.828,236.240 111.613,235.185 110.623 L 234.050 109.558 235.115 110.693 M148.148 111.708 C 147.568 112.300,147.147 112.784,147.212 112.784 C 147.278 112.784,147.807 112.300,148.387 111.708 C 148.968 111.117,149.389 110.633,149.323 110.633 C 149.257 110.633,148.729 111.117,148.148 111.708 M237.993 113.859 C 238.707 114.582,239.344 115.173,239.410 115.173 C 239.476 115.173,238.946 114.582,238.232 113.859 C 237.518 113.136,236.880 112.545,236.814 112.545 C 236.749 112.545,237.279 113.136,237.993 113.859 M145.630 114.038 L 144.444 115.293 145.699 114.107 C 146.865 113.005,147.063 112.784,146.885 112.784 C 146.847 112.784,146.282 113.348,145.630 114.038 M142.405 117.025 L 141.099 118.399 142.473 117.093 C 143.229 116.375,143.847 115.756,143.847 115.719 C 143.847 115.542,143.619 115.749,142.405 117.025 M240.860 116.965 C 241.306 117.425,241.725 117.802,241.790 117.802 C 241.856 117.802,241.545 117.425,241.099 116.965 C 240.653 116.505,240.235 116.129,240.169 116.129 C 240.103 116.129,240.414 116.505,240.860 116.965 M138.465 120.729 L 136.559 122.700 138.530 120.794 C 139.615 119.746,140.502 118.859,140.502 118.823 C 140.502 118.649,140.235 118.898,138.465 120.729 M243.479 119.773 C 244.469 120.828,244.683 121.018,244.683 120.838 C 244.683 120.800,244.173 120.289,243.548 119.703 L 242.413 118.638 243.479 119.773 M245.998 122.581 C 246.511 123.106,246.985 123.536,247.050 123.536 C 247.116 123.536,246.750 123.106,246.237 122.581 C 245.723 122.055,245.249 121.625,245.184 121.625 C 245.118 121.625,245.484 122.055,245.998 122.581 M129.150 129.809 L 122.461 136.559 129.211 129.870 C 132.924 126.191,135.962 123.154,135.962 123.120 C 135.962 122.951,135.366 123.536,129.150 129.809 M248.268 125.090 C 248.713 125.550,249.132 125.926,249.198 125.926 C 249.263 125.926,248.952 125.550,248.507 125.090 C 248.061 124.630,247.642 124.253,247.577 124.253 C 247.511 124.253,247.822 124.630,248.268 125.090 M250.657 127.718 C 251.103 128.178,251.521 128.554,251.587 128.554 C 251.653 128.554,251.342 128.178,250.896 127.718 C 250.450 127.258,250.032 126.882,249.966 126.882 C 249.900 126.882,250.211 127.258,250.657 127.718 M252.927 130.227 C 253.440 130.753,253.914 131.183,253.980 131.183 C 254.046 131.183,253.679 130.753,253.166 130.227 C 252.653 129.701,252.179 129.271,252.113 129.271 C 252.048 129.271,252.414 129.701,252.927 130.227 M254.958 132.497 C 255.404 132.957,255.823 133.333,255.888 133.333 C 255.954 133.333,255.643 132.957,255.197 132.497 C 254.751 132.037,254.333 131.661,254.267 131.661 C 254.201 131.661,254.512 132.037,254.958 132.497 M256.631 134.364 C 256.631 134.405,256.980 134.754,257.407 135.140 L 258.184 135.842 257.482 135.066 C 256.828 134.342,256.631 134.179,256.631 134.364 M258.542 136.514 C 258.542 136.556,258.892 136.905,259.319 137.291 L 260.096 137.993 259.394 137.216 C 258.740 136.492,258.542 136.330,258.542 136.514 M119.348 139.845 L 117.682 141.577 119.415 139.911 C 121.024 138.363,121.256 138.112,121.081 138.112 C 121.044 138.112,120.265 138.892,119.348 139.845 M260.454 138.665 C 260.454 138.706,260.803 139.056,261.231 139.442 L 262.007 140.143 261.305 139.367 C 260.651 138.643,260.454 138.480,260.454 138.665 M262.366 140.816 C 262.366 140.857,262.715 141.206,263.142 141.592 L 263.919 142.294 263.217 141.517 C 262.563 140.793,262.366 140.631,262.366 140.816 M115.643 143.787 L 114.337 145.161 115.711 143.855 C 116.987 142.642,117.194 142.413,117.017 142.413 C 116.980 142.413,116.361 143.032,115.643 143.787 M264.277 142.966 C 264.277 143.007,264.627 143.357,265.054 143.743 L 265.830 144.444 265.129 143.668 C 264.474 142.944,264.277 142.781,264.277 142.966 M112.771 146.894 L 111.947 147.790 112.843 146.966 C 113.678 146.200,113.849 145.998,113.667 145.998 C 113.627 145.998,113.224 146.401,112.771 146.894 M267.861 147.028 C 267.861 147.069,268.211 147.419,268.638 147.805 L 269.415 148.507 268.713 147.730 C 268.059 147.006,267.861 146.844,267.861 147.028 M110.499 149.403 L 109.797 150.179 110.573 149.477 C 111.297 148.823,111.460 148.626,111.275 148.626 C 111.234 148.626,110.885 148.976,110.499 149.403 M269.534 148.940 C 269.534 148.981,269.884 149.330,270.311 149.716 L 271.087 150.418 270.385 149.642 C 269.731 148.918,269.534 148.755,269.534 148.940 M271.685 151.374 C 272.130 151.834,272.549 152.210,272.615 152.210 C 272.680 152.210,272.369 151.834,271.924 151.374 C 271.478 150.914,271.059 150.538,270.993 150.538 C 270.928 150.538,271.239 150.914,271.685 151.374 M103.330 157.527 L 102.628 158.303 103.405 157.602 C 104.129 156.947,104.291 156.750,104.107 156.750 C 104.066 156.750,103.716 157.100,103.330 157.527 M277.180 157.781 C 277.180 157.822,277.530 158.171,277.957 158.557 L 278.734 159.259 278.032 158.483 C 277.378 157.759,277.180 157.596,277.180 157.781 M281.481 162.799 C 281.481 162.840,281.831 163.189,282.258 163.575 L 283.035 164.277 282.333 163.501 C 281.679 162.777,281.481 162.614,281.481 162.799 M86.260 178.495 C 85.980 178.889,85.804 179.211,85.869 179.211 C 85.935 179.211,86.219 178.889,86.499 178.495 C 86.780 178.100,86.956 177.778,86.890 177.778 C 86.825 177.778,86.541 178.100,86.260 178.495 M305.610 192.107 C 305.888 192.498,306.237 192.893,306.387 192.985 C 306.536 193.077,306.357 192.758,305.989 192.275 C 305.190 191.228,304.889 191.095,305.610 192.107 M317.563 207.885 C 317.843 208.280,318.127 208.602,318.193 208.602 C 318.258 208.602,318.082 208.280,317.802 207.885 C 317.521 207.491,317.237 207.168,317.172 207.168 C 317.106 207.168,317.282 207.491,317.563 207.885 M319.474 210.514 C 319.755 210.908,320.039 211.231,320.104 211.231 C 320.170 211.231,319.994 210.908,319.713 210.514 C 319.433 210.119,319.149 209.797,319.083 209.797 C 319.018 209.797,319.194 210.119,319.474 210.514 M51.732 230.824 C 51.528 231.219,51.415 231.541,51.481 231.541 C 51.547 231.541,51.767 231.219,51.971 230.824 C 52.175 230.430,52.288 230.108,52.223 230.108 C 52.157 230.108,51.936 230.430,51.732 230.824 M333.931 232.975 C 334.135 233.369,334.355 233.692,334.421 233.692 C 334.487 233.692,334.374 233.369,334.170 232.975 C 333.966 232.581,333.745 232.258,333.679 232.258 C 333.614 232.258,333.727 232.581,333.931 232.975 M338.232 240.860 C 338.436 241.254,338.656 241.577,338.722 241.577 C 338.788 241.577,338.675 241.254,338.471 240.860 C 338.267 240.466,338.046 240.143,337.981 240.143 C 337.915 240.143,338.028 240.466,338.232 240.860 M339.904 243.967 C 340.108 244.361,340.329 244.683,340.395 244.683 C 340.460 244.683,340.347 244.361,340.143 243.967 C 339.939 243.572,339.719 243.250,339.653 243.250 C 339.587 243.250,339.701 243.572,339.904 243.967 M39.704 254.132 C 39.304 255.011,39.380 255.198,39.813 254.399 C 40.015 254.026,40.136 253.676,40.081 253.622 C 40.027 253.567,39.857 253.797,39.704 254.132 M348.148 259.498 C 348.546 260.287,348.926 260.932,348.991 260.932 C 349.057 260.932,348.785 260.287,348.387 259.498 C 347.989 258.710,347.610 258.065,347.544 258.065 C 347.478 258.065,347.750 258.710,348.148 259.498 M31.580 271.814 C 31.180 272.693,31.256 272.880,31.689 272.082 C 31.891 271.709,32.012 271.359,31.957 271.304 C 31.903 271.249,31.733 271.479,31.580 271.814 M356.511 276.077 C 356.511 276.334,357.222 277.658,357.360 277.658 C 357.426 277.658,357.302 277.309,357.084 276.882 C 356.641 276.010,356.511 275.828,356.511 276.077 M19.138 303.009 C 18.976 303.548,18.888 304.033,18.942 304.087 C 18.995 304.141,19.172 303.743,19.333 303.204 C 19.495 302.665,19.583 302.179,19.529 302.126 C 19.475 302.072,19.299 302.469,19.138 303.009 M17.341 308.380 C 17.253 308.730,17.227 309.063,17.283 309.119 C 17.340 309.176,17.458 308.935,17.546 308.585 C 17.634 308.235,17.659 307.902,17.603 307.846 C 17.547 307.790,17.429 308.030,17.341 308.380 M376.378 323.775 C 376.378 323.973,376.470 324.349,376.583 324.612 C 376.712 324.913,376.788 324.957,376.788 324.731 C 376.788 324.534,376.696 324.158,376.583 323.895 C 376.454 323.594,376.378 323.549,376.378 323.775 M11.291 335.125 C 11.293 335.651,11.342 335.838,11.400 335.541 C 11.457 335.244,11.455 334.813,11.395 334.585 C 11.335 334.357,11.288 334.600,11.291 335.125 M11.060 337.515 C 11.062 338.172,11.108 338.413,11.163 338.049 C 11.218 337.686,11.217 337.148,11.160 336.855 C 11.103 336.561,11.058 336.858,11.060 337.515 M10.835 341.338 C 10.835 342.389,10.877 342.790,10.928 342.228 C 10.978 341.666,10.978 340.806,10.926 340.316 C 10.875 339.827,10.834 340.287,10.835 341.338 M10.833 349.104 C 10.833 350.090,10.875 350.493,10.927 350.000 C 10.978 349.507,10.978 348.701,10.927 348.208 C 10.875 347.715,10.833 348.118,10.833 349.104 M11.057 352.688 C 11.057 353.280,11.103 353.522,11.160 353.226 C 11.217 352.930,11.217 352.446,11.160 352.151 C 11.103 351.855,11.057 352.097,11.057 352.688 M11.286 354.839 C 11.286 355.299,11.335 355.487,11.395 355.257 C 11.455 355.027,11.455 354.651,11.395 354.421 C 11.335 354.191,11.286 354.379,11.286 354.839 M386.196 368.937 C 386.196 369.397,386.246 369.585,386.306 369.355 C 386.366 369.125,386.366 368.749,386.306 368.519 C 386.246 368.289,386.196 368.477,386.196 368.937 M386.454 372.640 C 386.455 373.429,386.500 373.723,386.553 373.293 C 386.606 372.864,386.605 372.219,386.551 371.860 C 386.496 371.500,386.453 371.852,386.454 372.640 M386.452 383.751 C 386.452 384.474,386.496 384.770,386.551 384.409 C 386.606 384.047,386.606 383.456,386.551 383.094 C 386.496 382.733,386.452 383.029,386.452 383.751 M20.809 384.588 C 20.809 384.719,21.015 385.203,21.266 385.663 C 21.518 386.123,21.724 386.392,21.724 386.260 C 21.724 386.129,21.518 385.645,21.266 385.185 C 21.015 384.725,20.809 384.456,20.809 384.588 M23.297 389.486 C 23.501 389.881,23.722 390.203,23.788 390.203 C 23.853 390.203,23.740 389.881,23.536 389.486 C 23.333 389.092,23.112 388.769,23.046 388.769 C 22.981 388.769,23.094 389.092,23.297 389.486 M382.693 404.677 C 382.605 405.027,382.580 405.359,382.636 405.416 C 382.692 405.472,382.810 405.232,382.898 404.881 C 382.986 404.531,383.012 404.199,382.955 404.142 C 382.899 404.086,382.781 404.326,382.693 404.677 M39.188 411.783 C 39.188 411.824,39.537 412.174,39.964 412.560 L 40.741 413.262 40.039 412.485 C 39.385 411.761,39.188 411.599,39.188 411.783 M43.608 416.487 C 44.917 417.802,46.042 418.877,46.108 418.877 C 46.174 418.877,45.156 417.802,43.847 416.487 C 42.538 415.173,41.413 414.098,41.347 414.098 C 41.281 414.098,42.299 415.173,43.608 416.487 M47.909 420.550 C 48.423 421.075,48.896 421.505,48.962 421.505 C 49.028 421.505,48.661 421.075,48.148 420.550 C 47.635 420.024,47.161 419.594,47.095 419.594 C 47.030 419.594,47.396 420.024,47.909 420.550 M375.001 420.848 C 374.179 422.244,374.125 422.363,374.544 421.864 C 375.030 421.286,375.448 420.550,375.291 420.550 C 375.229 420.550,375.098 420.684,375.001 420.848 M369.997 427.539 L 369.295 428.315 370.072 427.614 C 370.796 426.959,370.958 426.762,370.773 426.762 C 370.732 426.762,370.383 427.112,369.997 427.539 M366.542 431.243 L 364.277 433.572 366.607 431.307 C 368.771 429.203,369.045 428.913,368.872 428.913 C 368.837 428.913,367.788 429.961,366.542 431.243 M207.990 431.601 L 207.288 432.378 208.065 431.676 C 208.492 431.290,208.841 430.940,208.841 430.899 C 208.841 430.715,208.644 430.877,207.990 431.601 M174.496 431.952 C 174.859 432.007,175.396 432.005,175.690 431.948 C 175.984 431.892,175.687 431.847,175.030 431.849 C 174.373 431.850,174.132 431.897,174.496 431.952 M171.864 432.184 C 172.094 432.244,172.470 432.244,172.700 432.184 C 172.930 432.124,172.742 432.075,172.282 432.075 C 171.822 432.075,171.634 432.124,171.864 432.184 M161.888 434.409 C 161.586 434.538,161.542 434.614,161.768 434.614 C 161.965 434.614,162.342 434.522,162.605 434.409 C 162.906 434.279,162.950 434.203,162.724 434.203 C 162.527 434.203,162.151 434.296,161.888 434.409 M181.805 435.589 C 182.149 436.236,182.467 436.729,182.511 436.685 C 182.625 436.571,181.649 434.706,181.393 434.547 C 181.275 434.474,181.460 434.943,181.805 435.589 M68.578 435.472 C 68.578 435.537,68.901 435.758,69.295 435.962 C 69.689 436.166,70.012 436.279,70.012 436.213 C 70.012 436.147,69.689 435.927,69.295 435.723 C 68.901 435.519,68.578 435.406,68.578 435.472 M360.693 436.466 L 359.737 437.321 360.753 436.562 C 361.627 435.908,361.942 435.593,361.708 435.607 C 361.676 435.609,361.219 435.995,360.693 436.466 M156.392 436.081 C 156.091 436.211,156.046 436.287,156.272 436.287 C 156.470 436.287,156.846 436.194,157.109 436.081 C 157.410 435.952,157.454 435.876,157.228 435.876 C 157.031 435.876,156.655 435.968,156.392 436.081 M224.612 437.841 C 224.612 437.907,224.934 438.190,225.329 438.471 C 225.723 438.751,226.045 438.927,226.045 438.862 C 226.045 438.796,225.723 438.513,225.329 438.232 C 224.934 437.951,224.612 437.775,224.612 437.841 M74.552 438.590 C 74.881 438.778,75.257 438.932,75.388 438.932 C 75.520 438.932,75.358 438.778,75.030 438.590 C 74.701 438.402,74.325 438.249,74.194 438.249 C 74.062 438.249,74.223 438.402,74.552 438.590 M148.746 438.471 C 148.444 438.600,148.400 438.676,148.626 438.676 C 148.823 438.676,149.200 438.584,149.462 438.471 C 149.764 438.341,149.808 438.265,149.582 438.265 C 149.385 438.265,149.008 438.358,148.746 438.471 M205.586 441.099 C 205.586 442.611,205.625 443.229,205.672 442.473 C 205.720 441.717,205.720 440.481,205.672 439.725 C 205.625 438.970,205.586 439.588,205.586 441.099 M355.914 440.045 L 355.197 440.661 355.974 440.147 C 356.401 439.864,356.750 439.586,356.750 439.530 C 356.750 439.351,356.649 439.413,355.914 440.045 M143.250 440.143 C 142.948 440.273,142.904 440.349,143.130 440.349 C 143.327 440.349,143.704 440.256,143.967 440.143 C 144.268 440.014,144.312 439.938,144.086 439.938 C 143.889 439.938,143.513 440.030,143.250 440.143 M183.573 441.458 C 183.575 441.983,183.624 442.170,183.682 441.873 C 183.739 441.576,183.737 441.146,183.677 440.917 C 183.617 440.689,183.570 440.932,183.573 441.458 M183.850 446.595 C 183.850 448.895,183.886 449.836,183.929 448.686 C 183.973 447.536,183.973 445.654,183.929 444.504 C 183.886 443.354,183.850 444.295,183.850 446.595 M233.931 444.074 C 233.931 444.139,234.253 444.360,234.648 444.564 C 235.042 444.768,235.364 444.881,235.364 444.815 C 235.364 444.749,235.042 444.529,234.648 444.325 C 234.253 444.121,233.931 444.008,233.931 444.074 M205.800 446.117 C 205.800 446.708,205.846 446.950,205.903 446.655 C 205.960 446.359,205.960 445.875,205.903 445.579 C 205.846 445.284,205.800 445.526,205.800 446.117 M100.896 446.043 C 101.126 446.103,101.502 446.103,101.732 446.043 C 101.962 445.983,101.774 445.934,101.314 445.934 C 100.854 445.934,100.666 445.983,100.896 446.043 M114.399 446.047 C 114.697 446.104,115.127 446.102,115.355 446.042 C 115.584 445.983,115.341 445.936,114.815 445.938 C 114.289 445.941,114.102 445.990,114.399 446.047 M345.281 446.356 C 344.821 446.608,344.530 446.818,344.636 446.824 C 344.889 446.837,346.237 446.136,346.237 445.991 C 346.237 445.835,346.223 445.840,345.281 446.356 M105.807 446.295 C 107.161 446.338,109.312 446.338,110.586 446.295 C 111.861 446.252,110.753 446.217,108.124 446.217 C 105.496 446.218,104.453 446.253,105.807 446.295 M206.034 448.626 C 206.037 449.152,206.086 449.339,206.143 449.041 C 206.200 448.744,206.198 448.314,206.138 448.086 C 206.078 447.857,206.031 448.100,206.034 448.626 M206.268 450.418 C 206.268 450.878,206.317 451.066,206.377 450.836 C 206.437 450.606,206.437 450.230,206.377 450.000 C 206.317 449.770,206.268 449.958,206.268 450.418 M244.922 450.060 C 245.251 450.248,245.627 450.401,245.759 450.401 C 245.890 450.401,245.729 450.248,245.400 450.060 C 245.072 449.872,244.695 449.718,244.564 449.718 C 244.432 449.718,244.594 449.872,244.922 450.060 M183.584 452.569 C 183.584 453.292,183.629 453.587,183.684 453.226 C 183.738 452.864,183.738 452.273,183.684 451.912 C 183.629 451.550,183.584 451.846,183.584 452.569 M183.334 455.317 C 183.337 455.842,183.385 456.029,183.443 455.732 C 183.500 455.435,183.498 455.005,183.438 454.776 C 183.378 454.548,183.331 454.791,183.334 455.317 M323.656 454.719 C 323.355 454.849,323.311 454.925,323.536 454.925 C 323.734 454.925,324.110 454.832,324.373 454.719 C 324.674 454.590,324.718 454.514,324.492 454.514 C 324.295 454.514,323.919 454.606,323.656 454.719 M275.090 458.707 C 275.320 458.767,275.696 458.767,275.926 458.707 C 276.156 458.647,275.968 458.598,275.508 458.598 C 275.048 458.598,274.860 458.647,275.090 458.707 M303.408 458.711 C 303.705 458.769,304.135 458.766,304.364 458.707 C 304.592 458.647,304.349 458.600,303.823 458.603 C 303.297 458.605,303.111 458.654,303.408 458.711 M277.362 458.950 C 277.660 459.008,278.090 459.005,278.318 458.946 C 278.547 458.886,278.303 458.839,277.778 458.842 C 277.252 458.844,277.065 458.893,277.362 458.950 M301.016 458.950 C 301.311 459.007,301.795 459.007,302.091 458.950 C 302.386 458.893,302.145 458.846,301.553 458.846 C 300.962 458.846,300.720 458.893,301.016 458.950 M280.230 459.189 C 280.527 459.246,280.957 459.244,281.186 459.184 C 281.414 459.125,281.171 459.078,280.645 459.081 C 280.119 459.083,279.933 459.132,280.230 459.189 M297.909 459.189 C 298.205 459.246,298.689 459.246,298.984 459.189 C 299.280 459.132,299.038 459.085,298.447 459.085 C 297.855 459.085,297.614 459.132,297.909 459.189 M284.409 459.433 C 284.901 459.485,285.708 459.485,286.201 459.433 C 286.694 459.382,286.290 459.340,285.305 459.340 C 284.319 459.340,283.916 459.382,284.409 459.433 M292.772 459.433 C 293.265 459.485,294.071 459.485,294.564 459.433 C 295.057 459.382,294.654 459.340,293.668 459.340 C 292.682 459.340,292.279 459.382,292.772 459.433 M181.895 467.145 C 181.895 467.605,181.945 467.793,182.005 467.563 C 182.065 467.333,182.065 466.956,182.005 466.726 C 181.945 466.496,181.895 466.685,181.895 467.145 M181.661 468.937 C 181.664 469.462,181.713 469.649,181.770 469.352 C 181.827 469.055,181.825 468.625,181.765 468.396 C 181.705 468.168,181.659 468.411,181.661 468.937 M181.417 470.729 C 181.417 471.189,181.467 471.377,181.527 471.147 C 181.587 470.917,181.587 470.541,181.527 470.311 C 181.467 470.081,181.417 470.269,181.417 470.729 M209.852 475.030 C 209.852 475.490,209.902 475.678,209.962 475.448 C 210.022 475.218,210.022 474.842,209.962 474.612 C 209.902 474.382,209.852 474.570,209.852 475.030 M210.096 477.300 C 210.099 477.826,210.148 478.012,210.205 477.715 C 210.262 477.418,210.260 476.988,210.200 476.759 C 210.140 476.531,210.093 476.774,210.096 477.300 M210.343 479.450 C 210.345 480.108,210.391 480.348,210.446 479.985 C 210.501 479.622,210.500 479.084,210.443 478.790 C 210.386 478.496,210.341 478.793,210.343 479.450 M180.223 481.004 C 180.223 481.464,180.272 481.652,180.332 481.422 C 180.392 481.192,180.392 480.815,180.332 480.585 C 180.272 480.355,180.223 480.544,180.223 481.004 M210.582 482.318 C 210.584 482.975,210.630 483.215,210.685 482.852 C 210.740 482.489,210.739 481.951,210.682 481.657 C 210.625 481.364,210.580 481.661,210.582 482.318 M179.997 483.751 C 179.998 484.409,180.045 484.649,180.100 484.286 C 180.155 483.923,180.153 483.385,180.097 483.091 C 180.040 482.797,179.995 483.094,179.997 483.751 M210.836 487.455 C 210.836 488.572,210.877 489.029,210.928 488.471 C 210.978 487.912,210.978 486.998,210.928 486.440 C 210.877 485.881,210.836 486.338,210.836 487.455 M179.773 487.694 C 179.773 488.811,179.814 489.268,179.864 488.710 C 179.915 488.151,179.915 487.237,179.864 486.679 C 179.814 486.120,179.773 486.577,179.773 487.694 M210.835 492.115 C 210.835 493.166,210.877 493.566,210.928 493.004 C 210.978 492.442,210.978 491.582,210.926 491.093 C 210.875 490.603,210.834 491.063,210.835 492.115 M210.574 496.416 C 210.577 496.941,210.626 497.128,210.683 496.831 C 210.740 496.534,210.738 496.104,210.678 495.875 C 210.618 495.647,210.571 495.890,210.574 496.416 M179.768 497.611 C 179.769 498.530,179.812 498.878,179.864 498.382 C 179.915 497.886,179.915 497.133,179.862 496.709 C 179.809 496.285,179.767 496.691,179.768 497.611 M179.989 500.478 C 179.991 501.004,180.040 501.191,180.097 500.893 C 180.154 500.596,180.152 500.166,180.092 499.937 C 180.033 499.709,179.986 499.952,179.989 500.478 M187.523 512.243 C 188.217 512.292,189.293 512.291,189.912 512.242 C 190.532 512.193,189.964 512.154,188.650 512.154 C 187.336 512.155,186.829 512.195,187.523 512.243 M197.431 512.481 C 198.056 512.531,199.077 512.531,199.701 512.481 C 200.326 512.432,199.815 512.392,198.566 512.392 C 197.318 512.392,196.807 512.432,197.431 512.481 " stroke="none" fill="#849454" fill-rule="evenodd"></path></g></svg>