<svg id="svg" version="1.1" width="400" height="388.7437185929648" viewBox="0 0 400 388.7437185929648" xmlns="http://www.w3.org/2000/svg" xmlns:xlink="http://www.w3.org/1999/xlink" ><g id="svgg"><path id="path0" d="M181.907 0.245 C 163.297 1.279,135.727 6.515,127.432 10.591 C 126.576 11.012,124.037 12.025,121.790 12.844 C 114.566 15.474,100.643 21.869,99.372 23.141 C 99.025 23.488,97.567 24.363,96.132 25.086 C 92.999 26.663,83.050 33.346,78.988 36.600 C 77.383 37.886,74.632 40.038,72.875 41.383 C 66.063 46.597,48.412 63.939,43.974 69.779 C 43.134 70.885,40.586 74.154,38.313 77.043 C 34.029 82.486,28.923 89.811,27.057 93.191 C 24.716 97.430,23.966 98.671,23.274 99.450 C 22.200 100.658,16.558 112.282,14.131 118.288 C 12.963 121.177,11.691 124.162,11.304 124.922 C 3.070 141.074,-1.882 180.999,0.978 208.171 C 2.498 222.617,9.186 251.929,11.277 253.307 C 11.439 253.414,12.322 255.516,13.239 257.977 C 16.031 265.467,22.478 279.591,23.364 280.160 C 23.534 280.269,24.151 281.319,24.734 282.494 C 26.274 285.597,33.911 298.377,34.825 299.380 C 35.882 300.540,39.504 305.541,40.106 306.673 C 40.822 308.016,46.183 314.758,47.815 316.367 C 48.589 317.130,50.097 318.851,51.167 320.191 C 54.717 324.639,68.333 337.553,72.483 340.408 C 73.493 341.103,74.319 341.810,74.319 341.979 C 74.319 342.447,80.212 347.013,85.069 350.309 C 87.450 351.925,89.814 353.663,90.323 354.171 C 91.202 355.051,102.111 361.679,106.587 364.054 C 107.749 364.671,109.006 365.438,109.380 365.759 C 110.895 367.061,126.744 374.330,132.296 376.268 C 133.687 376.754,134.912 377.271,135.019 377.416 C 136.202 379.020,158.535 384.865,170.666 386.744 C 201.548 391.529,242.284 387.429,263.243 377.426 C 265.029 376.573,266.670 375.875,266.889 375.875 C 268.215 375.875,286.784 366.857,288.036 365.605 C 288.322 365.319,289.774 364.429,291.262 363.627 C 294.996 361.617,304.591 355.245,307.935 352.556 C 309.456 351.333,312.309 349.107,314.276 347.609 C 321.079 342.427,338.908 325.089,343.227 319.455 C 345.465 316.536,351.000 309.645,351.544 309.101 C 352.451 308.194,359.767 297.563,361.690 294.358 C 362.717 292.646,363.705 291.186,363.885 291.114 C 364.451 290.887,368.054 284.519,371.846 277.043 C 373.855 273.084,375.686 269.616,375.916 269.337 C 377.127 267.868,382.821 254.155,385.883 245.331 C 386.849 242.549,387.776 240.097,387.944 239.883 C 388.388 239.317,391.601 228.595,392.974 223.094 C 402.044 186.775,402.187 150.516,393.380 119.728 C 391.480 113.086,389.286 106.790,388.162 104.756 C 387.840 104.173,386.238 100.807,384.601 97.276 C 376.490 79.772,363.124 62.434,348.316 50.208 C 346.122 48.396,343.727 46.364,342.993 45.692 C 341.143 43.998,327.705 35.019,327.019 35.019 C 326.711 35.019,326.459 34.860,326.459 34.664 C 326.459 33.954,317.587 29.204,308.949 25.289 C 306.488 24.174,304.300 23.121,304.086 22.949 C 302.510 21.686,286.394 16.077,276.070 13.199 C 272.218 12.125,268.716 11.084,268.288 10.887 C 265.157 9.442,238.543 3.995,226.654 2.365 C 213.869 0.612,193.054 -0.374,181.907 0.245 M203.696 2.734 C 238.370 4.423,285.243 16.086,312.552 29.819 C 387.990 67.757,415.563 146.140,385.736 237.865 C 366.817 296.043,325.550 344.942,274.514 369.655 C 235.068 388.755,187.050 391.748,144.380 377.767 C 47.429 345.999,-12.963 248.133,5.871 153.313 C 8.628 139.429,15.271 120.248,21.100 109.339 C 25.633 100.855,26.283 99.674,27.955 96.887 C 41.939 73.576,62.415 51.685,85.779 35.068 C 118.490 11.802,159.425 0.578,203.696 2.734 M194.163 25.104 C 173.934 27.609,166.484 33.015,170.066 42.591 C 173.039 50.535,176.977 51.575,196.693 49.627 C 231.781 46.158,244.960 46.843,261.479 52.992 C 285.350 61.879,295.698 70.312,300.758 85.002 C 301.639 87.561,303.357 91.500,304.577 93.757 C 307.812 99.745,308.696 101.668,311.528 108.873 C 316.823 122.342,319.419 125.044,334.047 132.312 C 346.524 138.511,347.704 138.070,347.624 127.237 C 347.567 119.619,344.539 107.054,337.870 86.770 C 333.754 74.249,327.244 66.803,310.311 55.248 C 306.887 52.911,302.449 49.866,300.448 48.481 C 291.391 42.210,280.485 38.128,256.809 32.146 C 229.227 25.178,210.535 23.077,194.163 25.104 M34.873 203.684 C 27.490 206.316,26.154 218.571,31.170 237.651 C 34.211 249.215,40.134 257.819,56.982 275.145 C 61.274 279.559,66.773 285.294,69.202 287.889 C 86.460 306.336,124.563 329.662,132.240 326.482 C 135.648 325.070,134.601 321.205,128.096 311.191 C 125.974 307.925,123.658 304.202,122.950 302.918 C 121.677 300.612,118.449 296.397,115.349 292.996 C 114.472 292.033,111.848 289.144,109.520 286.576 C 107.191 284.008,104.121 280.681,102.696 279.183 C 100.314 276.678,97.386 273.414,92.445 267.755 C 87.959 262.617,86.433 256.842,84.613 238.132 C 83.259 224.210,82.649 222.274,78.231 217.899 C 68.977 208.736,43.831 200.492,34.873 203.684 M185.409 328.954 C 175.415 330.634,160.362 336.061,156.647 339.324 C 150.871 344.395,157.057 348.967,177.055 354.410 C 200.132 360.691,211.008 359.050,216.432 348.471 C 222.391 336.847,204.690 325.712,185.409 328.954 " stroke="none" fill="#fbfcfc" fill-rule="evenodd"></path><path id="path1" d="M179.767 3.353 C 179.018 3.439,175.603 3.778,172.179 4.106 C 141.907 7.001,113.437 16.907,89.713 32.799 C 84.982 35.968,74.004 44.348,70.797 47.237 C 51.016 65.062,39.047 79.273,27.540 98.597 C -3.627 150.937,-5.124 219.585,23.713 274.125 C 40.274 305.446,60.599 329.235,86.239 347.305 C 87.708 348.340,90.459 350.288,92.352 351.634 C 135.531 382.342,191.417 393.263,242.023 380.882 C 273.984 373.062,308.150 352.633,331.738 327.237 C 333.626 325.204,336.173 322.490,337.397 321.206 C 344.629 313.620,359.675 292.766,365.750 281.907 C 403.456 214.509,407.285 137.969,375.509 86.830 C 349.397 44.809,308.196 20.751,239.883 7.639 C 221.701 4.149,191.517 1.997,179.767 3.353 M218.482 24.533 C 233.958 25.859,251.703 29.707,276.070 37.022 C 286.270 40.084,293.022 43.048,299.222 47.185 C 312.542 56.072,317.374 59.560,322.568 64.040 C 330.627 70.990,334.246 75.529,336.338 81.311 C 348.216 114.143,351.664 136.965,344.746 136.965 C 341.191 136.965,324.870 128.685,320.035 124.429 C 316.872 121.644,313.908 116.340,310.082 106.615 C 308.946 103.726,306.722 98.823,305.140 95.720 C 303.558 92.617,301.424 87.878,300.397 85.190 C 295.593 72.611,292.864 69.554,279.566 61.861 C 262.908 52.223,242.238 46.583,228.152 47.832 C 225.616 48.057,220.126 48.423,215.953 48.645 C 208.252 49.056,200.774 49.681,189.883 50.824 C 182.107 51.640,178.552 51.419,175.859 49.954 C 168.636 46.022,166.703 35.989,172.232 31.134 C 178.103 25.980,199.586 22.913,218.482 24.533 M52.164 204.404 C 65.536 207.882,78.181 214.953,81.506 220.812 C 82.928 223.318,84.200 229.882,85.011 238.911 C 86.820 259.051,88.415 263.078,99.167 274.658 C 101.279 276.933,103.862 279.752,104.908 280.923 C 105.954 282.094,108.461 284.808,110.479 286.954 C 116.026 292.851,121.526 299.604,123.377 302.791 C 124.287 304.359,126.027 307.130,127.241 308.949 C 134.605 319.977,136.169 325.426,132.395 326.894 C 124.368 330.017,88.253 308.138,69.382 288.721 C 35.090 253.436,31.015 247.213,28.213 225.837 C 25.495 205.100,32.104 199.185,52.164 204.404 M201.362 329.000 C 215.513 332.918,220.880 340.063,216.443 349.077 C 213.341 355.378,206.989 358.743,198.180 358.752 C 186.934 358.764,159.717 350.589,155.514 345.937 C 150.103 339.947,162.724 332.895,187.160 328.256 C 189.285 327.852,199.067 328.365,201.362 329.000 " stroke="none" fill="#bcdce4" fill-rule="evenodd"></path><path id="path2" d="M190.564 2.624 C 192.116 2.697,194.655 2.697,196.206 2.624 C 197.758 2.550,196.488 2.489,193.385 2.489 C 190.282 2.489,189.013 2.550,190.564 2.624 M205.156 24.412 C 206.386 24.489,208.400 24.489,209.630 24.412 C 210.861 24.335,209.854 24.272,207.393 24.272 C 204.932 24.272,203.925 24.335,205.156 24.412 M312.840 30.140 C 312.840 30.247,313.541 30.692,314.397 31.128 C 315.253 31.565,315.953 31.835,315.953 31.728 C 315.953 31.621,315.253 31.176,314.397 30.739 C 313.541 30.303,312.840 30.033,312.840 30.140 M171.376 32.393 L 170.233 33.658 171.498 32.515 C 172.194 31.886,172.763 31.317,172.763 31.250 C 172.763 30.950,172.442 31.214,171.376 32.393 M172.763 47.276 C 173.489 48.025,174.170 48.638,174.277 48.638 C 174.384 48.638,173.878 48.025,173.152 47.276 C 172.426 46.527,171.744 45.914,171.637 45.914 C 171.530 45.914,172.037 46.527,172.763 47.276 M225.389 47.739 C 225.764 47.837,226.376 47.837,226.751 47.739 C 227.125 47.641,226.819 47.561,226.070 47.561 C 225.321 47.561,225.015 47.641,225.389 47.739 M218.969 48.135 C 219.450 48.227,220.238 48.227,220.720 48.135 C 221.201 48.042,220.807 47.966,219.844 47.966 C 218.881 47.966,218.487 48.042,218.969 48.135 M210.413 48.524 C 210.897 48.617,211.597 48.614,211.970 48.516 C 212.342 48.419,211.946 48.343,211.089 48.347 C 210.233 48.351,209.929 48.431,210.413 48.524 M183.755 50.852 C 184.129 50.950,184.742 50.950,185.117 50.852 C 185.491 50.754,185.185 50.674,184.436 50.674 C 183.687 50.674,183.380 50.754,183.755 50.852 M58.555 58.074 L 53.113 63.619 58.658 58.176 C 63.808 53.121,64.379 52.529,64.100 52.529 C 64.043 52.529,61.548 55.024,58.555 58.074 M347.860 53.429 C 347.860 53.496,348.429 54.065,349.125 54.694 L 350.389 55.837 349.246 54.572 C 348.181 53.393,347.860 53.129,347.860 53.429 M355.837 61.089 C 357.107 62.374,358.234 63.424,358.341 63.424 C 358.448 63.424,357.496 62.374,356.226 61.089 C 354.955 59.805,353.828 58.755,353.721 58.755 C 353.614 58.755,354.566 59.805,355.837 61.089 M326.832 68.580 C 327.786 69.596,328.618 70.428,328.680 70.428 C 328.972 70.428,328.663 70.079,326.946 68.466 L 325.097 66.732 326.832 68.580 M19.330 112.664 C 18.416 114.581,18.545 114.907,19.501 113.096 C 19.935 112.273,20.221 111.531,20.137 111.447 C 20.053 111.363,19.690 111.910,19.330 112.664 M319.261 123.346 C 320.097 124.202,320.868 124.903,320.975 124.903 C 321.082 124.903,320.486 124.202,319.650 123.346 C 318.814 122.490,318.042 121.790,317.935 121.790 C 317.828 121.790,318.425 122.490,319.261 123.346 M347.984 128.016 C 347.984 129.407,348.055 129.976,348.141 129.280 C 348.228 128.585,348.228 127.446,348.141 126.751 C 348.055 126.055,347.984 126.625,347.984 128.016 M397.407 168.482 C 397.407 170.088,397.476 170.744,397.560 169.942 C 397.644 169.139,397.644 167.826,397.560 167.023 C 397.476 166.221,397.407 166.877,397.407 168.482 M2.462 184.630 C 2.464 186.128,2.534 186.694,2.619 185.886 C 2.703 185.079,2.701 183.853,2.615 183.163 C 2.530 182.472,2.461 183.132,2.462 184.630 M2.462 192.412 C 2.464 193.911,2.534 194.476,2.619 193.668 C 2.703 192.861,2.701 191.635,2.615 190.945 C 2.530 190.254,2.461 190.914,2.462 192.412 M38.415 203.005 C 39.106 203.091,40.332 203.092,41.139 203.008 C 41.946 202.923,41.381 202.853,39.883 202.851 C 38.385 202.850,37.725 202.919,38.415 203.005 M31.688 205.545 L 30.545 206.809 31.809 205.667 C 32.988 204.601,33.253 204.280,32.952 204.280 C 32.885 204.280,32.316 204.849,31.688 205.545 M78.405 217.899 C 79.459 218.969,80.408 219.844,80.515 219.844 C 80.622 219.844,79.848 218.969,78.794 217.899 C 77.740 216.829,76.790 215.953,76.683 215.953 C 76.576 215.953,77.351 216.829,78.405 217.899 M28.106 222.568 C 28.106 223.317,28.186 223.624,28.284 223.249 C 28.382 222.875,28.382 222.262,28.284 221.887 C 28.186 221.513,28.106 221.819,28.106 222.568 M58.755 277.237 C 61.852 280.340,64.474 282.879,64.581 282.879 C 64.688 282.879,62.242 280.340,59.144 277.237 C 56.046 274.134,53.424 271.595,53.317 271.595 C 53.210 271.595,55.657 274.134,58.755 277.237 M101.151 277.529 C 102.763 279.247,103.113 279.556,103.113 279.264 C 103.113 279.201,102.281 278.370,101.265 277.416 L 99.416 275.681 101.151 277.529 M106.615 283.463 C 107.341 284.212,108.022 284.825,108.129 284.825 C 108.236 284.825,107.730 284.212,107.004 283.463 C 106.278 282.714,105.596 282.101,105.489 282.101 C 105.382 282.101,105.889 282.714,106.615 283.463 M70.817 290.078 C 72.196 291.469,73.411 292.607,73.518 292.607 C 73.625 292.607,72.585 291.469,71.206 290.078 C 69.828 288.687,68.612 287.549,68.505 287.549 C 68.398 287.549,69.438 288.687,70.817 290.078 M114.397 292.023 C 115.123 292.772,115.804 293.385,115.911 293.385 C 116.018 293.385,115.512 292.772,114.786 292.023 C 114.060 291.274,113.378 290.661,113.271 290.661 C 113.164 290.661,113.671 291.274,114.397 292.023 M59.533 325.097 C 62.202 327.772,64.473 329.961,64.580 329.961 C 64.687 329.961,62.591 327.772,59.922 325.097 C 57.254 322.422,54.982 320.233,54.875 320.233 C 54.768 320.233,56.864 322.422,59.533 325.097 M328.988 330.350 C 325.784 333.560,323.249 336.187,323.356 336.187 C 323.463 336.187,326.173 333.560,329.377 330.350 C 332.582 327.140,335.117 324.514,335.010 324.514 C 334.903 324.514,332.193 327.140,328.988 330.350 M66.926 332.028 C 66.926 332.095,67.495 332.664,68.191 333.293 L 69.455 334.436 68.312 333.171 C 67.247 331.992,66.926 331.728,66.926 332.028 M213.619 335.141 C 213.619 335.208,214.188 335.777,214.883 336.406 L 216.148 337.549 215.005 336.284 C 213.940 335.105,213.619 334.841,213.619 335.141 M217.616 343.191 C 217.616 344.154,217.692 344.548,217.784 344.066 C 217.877 343.585,217.877 342.797,217.784 342.315 C 217.692 341.834,217.616 342.228,217.616 343.191 M156.031 346.109 C 156.757 346.858,157.439 347.471,157.546 347.471 C 157.653 347.471,157.146 346.858,156.420 346.109 C 155.694 345.360,155.013 344.747,154.906 344.747 C 154.799 344.747,155.305 345.360,156.031 346.109 M194.844 358.251 C 195.326 358.344,196.114 358.344,196.595 358.251 C 197.077 358.159,196.683 358.083,195.720 358.083 C 194.757 358.083,194.363 358.159,194.844 358.251 M200.296 358.252 C 200.780 358.345,201.481 358.341,201.853 358.244 C 202.225 358.147,201.829 358.070,200.973 358.075 C 200.117 358.079,199.812 358.159,200.296 358.252 " stroke="none" fill="#e8f4f7" fill-rule="evenodd"></path><path id="path3" d="M209.825 3.381 C 210.199 3.479,210.812 3.479,211.187 3.381 C 211.561 3.283,211.255 3.203,210.506 3.203 C 209.757 3.203,209.450 3.283,209.825 3.381 M201.265 24.393 C 201.639 24.491,202.252 24.491,202.626 24.393 C 203.001 24.295,202.695 24.215,201.946 24.215 C 201.196 24.215,200.890 24.295,201.265 24.393 M212.160 24.393 C 212.534 24.491,213.147 24.491,213.521 24.393 C 213.896 24.295,213.589 24.215,212.840 24.215 C 212.091 24.215,211.785 24.295,212.160 24.393 M168.970 38.327 C 168.974 39.183,169.054 39.487,169.147 39.003 C 169.240 38.519,169.236 37.819,169.139 37.447 C 169.042 37.075,168.965 37.471,168.970 38.327 M227.923 47.746 C 228.407 47.839,229.107 47.836,229.479 47.738 C 229.851 47.641,229.455 47.565,228.599 47.569 C 227.743 47.573,227.439 47.653,227.923 47.746 M235.895 47.739 C 236.269 47.837,236.882 47.837,237.257 47.739 C 237.631 47.641,237.325 47.561,236.576 47.561 C 235.827 47.561,235.520 47.641,235.895 47.739 M64.181 52.821 L 62.840 54.280 64.300 52.939 C 65.658 51.691,65.938 51.362,65.641 51.362 C 65.576 51.362,64.919 52.018,64.181 52.821 M351.362 57.004 C 352.088 57.753,352.769 58.366,352.876 58.366 C 352.983 58.366,352.477 57.753,351.751 57.004 C 351.025 56.255,350.343 55.642,350.236 55.642 C 350.129 55.642,350.636 56.255,351.362 57.004 M357.782 63.424 C 358.618 64.280,359.389 64.981,359.496 64.981 C 359.603 64.981,359.007 64.280,358.171 63.424 C 357.335 62.568,356.564 61.868,356.457 61.868 C 356.350 61.868,356.946 62.568,357.782 63.424 M52.897 64.105 L 51.556 65.564 53.016 64.223 C 54.374 62.975,54.654 62.646,54.356 62.646 C 54.291 62.646,53.635 63.303,52.897 64.105 M323.541 65.370 C 324.377 66.226,325.148 66.926,325.255 66.926 C 325.362 66.926,324.766 66.226,323.930 65.370 C 323.094 64.514,322.323 63.813,322.216 63.813 C 322.109 63.813,322.705 64.514,323.541 65.370 M329.961 71.790 C 330.687 72.539,331.369 73.152,331.476 73.152 C 331.583 73.152,331.076 72.539,330.350 71.790 C 329.624 71.041,328.943 70.428,328.836 70.428 C 328.729 70.428,329.235 71.041,329.961 71.790 M2.433 188.521 C 2.437 189.377,2.517 189.682,2.610 189.198 C 2.703 188.714,2.699 188.013,2.602 187.641 C 2.505 187.269,2.428 187.665,2.433 188.521 M27.762 218.288 C 27.762 220.107,27.829 220.851,27.911 219.942 C 27.993 219.032,27.993 217.544,27.911 216.634 C 27.829 215.725,27.762 216.469,27.762 218.288 M54.086 319.261 C 54.812 320.010,55.493 320.623,55.600 320.623 C 55.707 320.623,55.201 320.010,54.475 319.261 C 53.749 318.512,53.067 317.899,52.960 317.899 C 52.853 317.899,53.360 318.512,54.086 319.261 M334.609 324.416 L 333.268 325.875 334.728 324.535 C 336.086 323.286,336.366 322.957,336.069 322.957 C 336.004 322.957,335.347 323.614,334.609 324.416 M191.342 328.297 C 192.038 328.383,193.176 328.383,193.872 328.297 C 194.567 328.211,193.998 328.140,192.607 328.140 C 191.216 328.140,190.647 328.211,191.342 328.297 M322.738 336.284 L 321.595 337.549 322.860 336.406 C 323.555 335.777,324.125 335.208,324.125 335.141 C 324.125 334.841,323.803 335.105,322.738 336.284 M197.763 358.634 C 198.137 358.732,198.750 358.732,199.125 358.634 C 199.499 358.536,199.193 358.456,198.444 358.456 C 197.695 358.456,197.388 358.536,197.763 358.634 M189.981 386.260 C 190.355 386.358,190.968 386.358,191.342 386.260 C 191.717 386.163,191.411 386.082,190.661 386.082 C 189.912 386.082,189.606 386.163,189.981 386.260 M207.490 386.260 C 207.865 386.358,208.478 386.358,208.852 386.260 C 209.227 386.163,208.920 386.082,208.171 386.082 C 207.422 386.082,207.116 386.163,207.490 386.260 " stroke="none" fill="#d7ecef" fill-rule="evenodd"></path><path id="path4" d="M188.035 3.015 C 190.978 3.081,195.793 3.081,198.735 3.015 C 201.678 2.949,199.270 2.894,193.385 2.894 C 187.500 2.894,185.092 2.949,188.035 3.015 M178.313 3.392 C 178.904 3.481,179.780 3.479,180.258 3.387 C 180.737 3.294,180.253 3.221,179.183 3.224 C 178.113 3.227,177.721 3.303,178.313 3.392 M206.717 3.392 C 207.309 3.481,208.184 3.479,208.663 3.387 C 209.142 3.294,208.658 3.221,207.588 3.224 C 206.518 3.227,206.126 3.303,206.717 3.392 M173.833 3.777 C 174.314 3.869,175.102 3.869,175.584 3.777 C 176.065 3.684,175.671 3.608,174.708 3.608 C 173.745 3.608,173.351 3.684,173.833 3.777 M211.576 3.777 C 212.057 3.869,212.845 3.869,213.327 3.777 C 213.808 3.684,213.414 3.608,212.451 3.608 C 211.488 3.608,211.094 3.684,211.576 3.777 M169.946 4.166 C 170.430 4.259,171.131 4.256,171.503 4.158 C 171.875 4.061,171.479 3.985,170.623 3.989 C 169.767 3.993,169.462 4.073,169.946 4.166 M215.861 4.166 C 216.345 4.259,217.045 4.256,217.417 4.158 C 217.789 4.061,217.393 3.985,216.537 3.989 C 215.681 3.993,215.377 4.073,215.861 4.166 M171.574 31.809 L 170.233 33.268 171.693 31.928 C 172.495 31.190,173.152 30.533,173.152 30.468 C 173.152 30.171,172.822 30.451,171.574 31.809 M255.447 31.518 C 255.875 31.701,256.488 31.852,256.809 31.852 C 257.177 31.852,257.105 31.728,256.615 31.518 C 256.187 31.334,255.574 31.183,255.253 31.183 C 254.885 31.183,254.957 31.307,255.447 31.518 M290.694 42.559 C 291.092 42.919,294.163 44.354,294.163 44.179 C 294.163 43.958,291.227 42.412,290.807 42.412 C 290.655 42.412,290.605 42.478,290.694 42.559 M171.984 46.814 C 171.984 46.881,172.554 47.450,173.249 48.079 L 174.514 49.222 173.371 47.957 C 172.305 46.778,171.984 46.514,171.984 46.814 M223.643 48.135 C 224.127 48.228,224.827 48.225,225.199 48.127 C 225.571 48.030,225.175 47.954,224.319 47.958 C 223.463 47.962,223.159 48.042,223.643 48.135 M239.397 48.128 C 239.771 48.226,240.384 48.226,240.759 48.128 C 241.133 48.030,240.827 47.950,240.078 47.950 C 239.329 47.950,239.022 48.030,239.397 48.128 M215.661 48.532 C 216.464 48.616,217.777 48.616,218.580 48.532 C 219.382 48.449,218.726 48.380,217.121 48.380 C 215.516 48.380,214.859 48.449,215.661 48.532 M209.047 48.917 C 209.635 49.006,210.598 49.006,211.187 48.917 C 211.775 48.828,211.294 48.755,210.117 48.755 C 208.940 48.755,208.458 48.828,209.047 48.917 M204.183 49.302 C 204.664 49.395,205.452 49.395,205.934 49.302 C 206.415 49.209,206.021 49.133,205.058 49.133 C 204.095 49.133,203.701 49.209,204.183 49.302 M66.148 51.167 C 65.203 52.130,64.517 52.918,64.624 52.918 C 64.731 52.918,65.592 52.130,66.537 51.167 C 67.482 50.204,68.168 49.416,68.061 49.416 C 67.954 49.416,67.093 50.204,66.148 51.167 M199.903 49.691 C 200.384 49.784,201.172 49.784,201.654 49.691 C 202.135 49.598,201.741 49.522,200.778 49.522 C 199.815 49.522,199.421 49.598,199.903 49.691 M195.623 50.080 C 196.104 50.173,196.892 50.173,197.374 50.080 C 197.855 49.987,197.461 49.911,196.498 49.911 C 195.535 49.911,195.141 49.987,195.623 50.080 M191.926 50.463 C 192.301 50.561,192.913 50.561,193.288 50.463 C 193.662 50.365,193.356 50.285,192.607 50.285 C 191.858 50.285,191.552 50.365,191.926 50.463 M188.234 50.859 C 188.718 50.952,189.419 50.948,189.791 50.851 C 190.163 50.754,189.767 50.677,188.911 50.682 C 188.054 50.686,187.750 50.766,188.234 50.859 M181.031 51.259 C 182.048 51.339,183.711 51.339,184.728 51.259 C 185.744 51.179,184.912 51.113,182.879 51.113 C 180.846 51.113,180.015 51.179,181.031 51.259 M61.649 55.350 L 60.506 56.615 61.770 55.472 C 62.949 54.407,63.214 54.086,62.913 54.086 C 62.846 54.086,62.277 54.655,61.649 55.350 M354.458 60.019 C 355.413 61.036,356.244 61.868,356.307 61.868 C 356.599 61.868,356.290 61.518,354.572 59.906 L 352.724 58.171 354.458 60.019 M56.031 60.895 C 55.086 61.858,54.400 62.646,54.507 62.646 C 54.614 62.646,55.475 61.858,56.420 60.895 C 57.365 59.932,58.051 59.144,57.944 59.144 C 57.837 59.144,56.976 59.932,56.031 60.895 M51.362 65.953 C 50.417 66.916,49.731 67.704,49.838 67.704 C 49.945 67.704,50.806 66.916,51.751 65.953 C 52.696 64.990,53.382 64.202,53.275 64.202 C 53.168 64.202,52.307 64.990,51.362 65.953 M359.533 65.564 C 360.259 66.313,360.941 66.926,361.048 66.926 C 361.155 66.926,360.648 66.313,359.922 65.564 C 359.196 64.815,358.515 64.202,358.408 64.202 C 358.301 64.202,358.807 64.815,359.533 65.564 M326.459 67.899 C 327.838 69.290,329.053 70.428,329.160 70.428 C 329.267 70.428,328.227 69.290,326.848 67.899 C 325.470 66.508,324.254 65.370,324.147 65.370 C 324.040 65.370,325.080 66.508,326.459 67.899 M395.810 147.082 C 395.810 147.831,395.890 148.137,395.988 147.763 C 396.086 147.388,396.086 146.775,395.988 146.401 C 395.890 146.026,395.810 146.333,395.810 147.082 M396.215 150.584 C 396.215 151.547,396.291 151.941,396.384 151.459 C 396.476 150.978,396.476 150.190,396.384 149.708 C 396.291 149.227,396.215 149.621,396.215 150.584 M396.619 155.447 C 396.621 156.732,396.693 157.210,396.780 156.511 C 396.867 155.811,396.865 154.761,396.776 154.176 C 396.687 153.591,396.616 154.163,396.619 155.447 M397.055 168.288 C 397.055 173.424,397.111 175.471,397.178 172.838 C 397.245 170.204,397.245 166.001,397.178 163.499 C 397.110 160.997,397.055 163.152,397.055 168.288 M3.981 167.315 C 3.981 168.064,4.061 168.371,4.159 167.996 C 4.257 167.622,4.257 167.009,4.159 166.634 C 4.061 166.260,3.981 166.566,3.981 167.315 M3.600 170.623 C 3.604 171.479,3.684 171.783,3.777 171.299 C 3.870 170.815,3.867 170.115,3.769 169.743 C 3.672 169.371,3.596 169.767,3.600 170.623 M3.219 175.097 C 3.219 176.060,3.295 176.454,3.387 175.973 C 3.480 175.491,3.480 174.703,3.387 174.222 C 3.295 173.740,3.219 174.134,3.219 175.097 M2.872 182.685 C 2.873 185.253,2.936 186.253,3.012 184.907 C 3.088 183.561,3.088 181.460,3.011 180.238 C 2.934 179.016,2.872 180.117,2.872 182.685 M396.619 181.518 C 396.621 182.802,396.693 183.280,396.780 182.581 C 396.867 181.881,396.865 180.831,396.776 180.246 C 396.687 179.661,396.616 180.233,396.619 181.518 M396.220 186.576 C 396.223 187.646,396.299 188.037,396.388 187.446 C 396.478 186.855,396.475 185.979,396.383 185.500 C 396.290 185.022,396.217 185.506,396.220 186.576 M395.810 190.272 C 395.810 191.021,395.890 191.328,395.988 190.953 C 396.086 190.579,396.086 189.966,395.988 189.591 C 395.890 189.217,395.810 189.523,395.810 190.272 M2.872 194.358 C 2.873 196.926,2.936 197.926,3.012 196.580 C 3.088 195.234,3.088 193.133,3.011 191.911 C 2.934 190.689,2.872 191.790,2.872 194.358 M3.224 202.140 C 3.227 203.210,3.303 203.602,3.392 203.010 C 3.481 202.419,3.479 201.543,3.387 201.065 C 3.294 200.586,3.221 201.070,3.224 202.140 M31.107 205.739 L 29.767 207.198 31.226 205.858 C 32.584 204.609,32.864 204.280,32.567 204.280 C 32.502 204.280,31.845 204.937,31.107 205.739 M3.592 206.615 C 3.592 207.364,3.672 207.670,3.770 207.296 C 3.868 206.921,3.868 206.308,3.770 205.934 C 3.672 205.559,3.592 205.866,3.592 206.615 M58.366 277.237 C 61.463 280.340,64.085 282.879,64.192 282.879 C 64.299 282.879,61.852 280.340,58.755 277.237 C 55.657 274.134,53.035 271.595,52.928 271.595 C 52.821 271.595,55.268 274.134,58.366 277.237 M96.498 272.106 C 96.498 272.173,97.067 272.742,97.763 273.371 L 99.027 274.514 97.884 273.249 C 96.819 272.070,96.498 271.806,96.498 272.106 M101.751 277.821 C 102.587 278.677,103.358 279.377,103.465 279.377 C 103.572 279.377,102.976 278.677,102.140 277.821 C 101.304 276.965,100.533 276.265,100.426 276.265 C 100.319 276.265,100.915 276.965,101.751 277.821 M26.654 280.156 C 26.986 280.798,27.345 281.323,27.452 281.323 C 27.559 281.323,27.375 280.798,27.043 280.156 C 26.711 279.514,26.352 278.988,26.245 278.988 C 26.138 278.988,26.322 279.514,26.654 280.156 M69.261 288.911 C 70.639 290.302,71.855 291.440,71.962 291.440 C 72.069 291.440,71.028 290.302,69.650 288.911 C 68.271 287.519,67.056 286.381,66.949 286.381 C 66.842 286.381,67.882 287.519,69.261 288.911 M111.284 288.132 C 112.010 288.881,112.692 289.494,112.799 289.494 C 112.906 289.494,112.399 288.881,111.673 288.132 C 110.947 287.383,110.266 286.770,110.159 286.770 C 110.052 286.770,110.558 287.383,111.284 288.132 M336.746 321.887 L 335.603 323.152 336.868 322.009 C 337.563 321.380,338.132 320.811,338.132 320.744 C 338.132 320.444,337.811 320.708,336.746 321.887 M60.506 325.681 C 62.853 328.035,64.860 329.961,64.967 329.961 C 65.074 329.961,63.242 328.035,60.895 325.681 C 58.548 323.327,56.541 321.401,56.434 321.401 C 56.327 321.401,58.159 323.327,60.506 325.681 M331.308 327.724 L 329.377 329.767 331.420 327.836 C 332.544 326.774,333.463 325.854,333.463 325.793 C 333.463 325.502,333.103 325.826,331.308 327.724 M188.424 328.284 C 188.799 328.382,189.411 328.382,189.786 328.284 C 190.161 328.186,189.854 328.106,189.105 328.106 C 188.356 328.106,188.050 328.186,188.424 328.284 M325.468 333.560 L 323.930 335.214 325.584 333.676 C 327.122 332.245,327.416 331.907,327.122 331.907 C 327.058 331.907,326.314 332.651,325.468 333.560 M214.397 335.603 C 215.123 336.352,215.804 336.965,215.911 336.965 C 216.018 336.965,215.512 336.352,214.786 335.603 C 214.060 334.854,213.378 334.241,213.271 334.241 C 213.164 334.241,213.671 334.854,214.397 335.603 M320.799 337.840 L 319.261 339.494 320.914 337.956 C 322.452 336.526,322.747 336.187,322.453 336.187 C 322.389 336.187,321.645 336.931,320.799 337.840 M154.488 341.220 C 153.635 342.813,154.012 344.313,155.696 346.027 L 157.306 347.665 155.890 346.011 C 154.416 344.287,154.082 342.706,154.878 341.220 C 155.099 340.806,155.193 340.467,155.086 340.467 C 154.979 340.467,154.710 340.806,154.488 341.220 M181.128 356.031 C 181.556 356.215,182.169 356.366,182.490 356.366 C 182.858 356.366,182.786 356.242,182.296 356.031 C 181.868 355.847,181.255 355.697,180.934 355.697 C 180.566 355.697,180.638 355.820,181.128 356.031 M194.844 358.640 C 195.326 358.733,196.114 358.733,196.595 358.640 C 197.077 358.548,196.683 358.472,195.720 358.472 C 194.757 358.472,194.363 358.548,194.844 358.640 M200.097 358.634 C 200.472 358.732,201.085 358.732,201.459 358.634 C 201.834 358.536,201.527 358.456,200.778 358.456 C 200.029 358.456,199.723 358.536,200.097 358.634 M109.728 362.431 C 109.728 362.538,110.253 362.898,110.895 363.230 C 111.537 363.562,112.062 363.746,112.062 363.639 C 112.062 363.532,111.537 363.172,110.895 362.840 C 110.253 362.508,109.728 362.324,109.728 362.431 M178.307 385.093 C 178.682 385.191,179.295 385.191,179.669 385.093 C 180.044 384.995,179.737 384.915,178.988 384.915 C 178.239 384.915,177.933 384.995,178.307 385.093 M219.163 385.093 C 219.538 385.191,220.151 385.191,220.525 385.093 C 220.900 384.995,220.593 384.915,219.844 384.915 C 219.095 384.915,218.789 384.995,219.163 385.093 M182.398 385.489 C 182.882 385.582,183.582 385.579,183.954 385.481 C 184.326 385.384,183.930 385.308,183.074 385.312 C 182.218 385.316,181.914 385.396,182.398 385.489 M215.082 385.489 C 215.566 385.582,216.267 385.579,216.639 385.481 C 217.011 385.384,216.615 385.308,215.759 385.312 C 214.903 385.316,214.598 385.396,215.082 385.489 M186.284 385.885 C 186.980 385.971,188.118 385.971,188.813 385.885 C 189.509 385.798,188.940 385.728,187.549 385.728 C 186.158 385.728,185.589 385.798,186.284 385.885 M210.019 385.885 C 210.715 385.971,211.853 385.971,212.549 385.885 C 213.244 385.798,212.675 385.728,211.284 385.728 C 209.893 385.728,209.324 385.798,210.019 385.885 M195.643 386.283 C 197.848 386.352,201.350 386.352,203.425 386.282 C 205.501 386.212,203.696 386.155,199.416 386.156 C 195.136 386.156,193.438 386.213,195.643 386.283 " stroke="none" fill="#cae4ec" fill-rule="evenodd"></path></g></svg>